<svg width="549" height="550" viewBox="0 0 549 550" fill="none" xmlns="http://www.w3.org/2000/svg">
<path d="M465.244 176.441C465.244 176.441 446.721 102.15 334.582 55.2985C222.444 8.44683 122.12 51.8398 99.2482 106.74C76.3768 161.64 100.346 191.286 85.084 238.17C69.8218 285.055 -8.5864 344.435 23.058 416.442C54.7023 488.449 202.779 509.014 322.603 494.158C442.428 479.302 536.044 314.723 465.244 176.441Z" fill="#92E3A9"/>
<path opacity="0.7" d="M465.244 176.441C465.244 176.441 446.721 102.15 334.582 55.2985C222.444 8.44683 122.12 51.8398 99.2482 106.74C76.3768 161.64 100.346 191.286 85.084 238.17C69.8218 285.055 -8.5864 344.435 23.058 416.442C54.7023 488.449 202.779 509.014 322.603 494.158C442.428 479.302 536.044 314.723 465.244 176.441Z" fill="white"/>
<path d="M263.533 73.7453H172.399C169.487 73.7453 166.694 74.9021 164.635 76.9613C162.576 79.0204 161.419 81.8132 161.419 84.7253V118.763C161.419 121.675 162.576 124.468 164.635 126.527C166.694 128.586 169.487 129.743 172.399 129.743H262.984L274.513 145.115V84.7253C274.513 81.8132 273.356 79.0204 271.297 76.9613C269.238 74.9021 266.445 73.7453 263.533 73.7453Z" fill="#263238"/>
<path d="M181.26 111.22H177.966V90.358H181.26V99.2848H184.971V90.358H188.265V111.22H184.971V102.293H181.26V111.22Z" fill="#92E3A9"/>
<path d="M190.691 90.391H193.985V111.253H190.691V90.391Z" fill="#92E3A9"/>
<path d="M200.002 90.391H210.115V93.3666H206.689V111.22H203.395V93.3666H199.98L200.002 90.391Z" fill="#92E3A9"/>
<path d="M214.815 111.22H211.521V90.358H214.815V99.2848H218.515V90.358H221.809V111.22H218.515V102.293H214.793L214.815 111.22Z" fill="#92E3A9"/>
<path d="M227.519 99.164H232.009V102.14H227.519V108.244H233.173V111.22H224.247V90.358H233.173V93.3336H227.519V99.164Z" fill="#92E3A9"/>
<path d="M242.034 111.22C241.765 110.396 241.665 109.526 241.737 108.662V105.368C241.737 103.435 241.09 102.722 239.541 102.722H238.443V111.198H235.149V90.3361H240.09C243.483 90.3361 244.944 91.9172 244.944 95.1234V96.7594C244.944 98.9005 244.252 100.306 242.748 100.987C244.384 101.678 244.944 103.249 244.944 105.379V108.596C244.884 109.454 245.008 110.315 245.306 111.121L242.034 111.22ZM238.465 93.3666V99.7679H239.75C240.969 99.7679 241.715 99.2299 241.715 97.5719V95.5077C241.715 94.0254 241.21 93.3117 240.047 93.3117L238.465 93.3666Z" fill="#92E3A9"/>
<path d="M250.434 99.164H254.925V102.14H250.434V108.244H256.078V111.22H247.151V90.358H256.078V93.3336H250.434V99.164Z" fill="#92E3A9"/>
<path d="M258.526 106.608L258.109 99.0762V90.391H261.403V99.0762L260.986 106.608H258.526ZM261.315 108.069V111.22H258.164V108.069H261.315Z" fill="#92E3A9"/>
<path d="M278.553 299.121H261.776V444.935H278.553V299.121Z" fill="#263238" stroke="#263238" stroke-linecap="round" stroke-linejoin="round"/>
<path d="M145.52 351.924V362.179H212.388V351.924H145.52Z" fill="#263238" stroke="#263238" stroke-linecap="round" stroke-linejoin="round"/>
<path d="M152.394 316.524H142.138V357.556H152.394V316.524Z" fill="#263238" stroke="#263238" stroke-linecap="round" stroke-linejoin="round"/>
<path d="M156.665 357.732C156.665 358.966 156.422 360.187 155.949 361.327C155.477 362.467 154.784 363.502 153.911 364.374C153.038 365.246 152.002 365.937 150.862 366.409C149.722 366.88 148.5 367.121 147.266 367.12C146.958 367.12 146.651 367.12 146.355 367.12C144.644 366.951 143.013 366.316 141.639 365.285C140.264 364.254 139.198 362.865 138.558 361.27C137.917 359.676 137.726 357.936 138.005 356.24C138.284 354.545 139.023 352.958 140.141 351.653C141.259 350.348 142.713 349.374 144.346 348.837C145.978 348.301 147.727 348.222 149.401 348.61C151.075 348.998 152.611 349.838 153.841 351.038C155.071 352.237 155.949 353.751 156.379 355.415C156.567 356.173 156.663 356.951 156.665 357.732Z" fill="white" stroke="#263238" stroke-linecap="round" stroke-linejoin="round"/>
<path d="M157.356 322.849C157.351 325.339 156.358 327.725 154.597 329.484C152.835 331.244 150.448 332.234 147.958 332.237C147.65 332.237 147.343 332.237 147.035 332.237C145.324 332.072 143.691 331.442 142.313 330.415C140.935 329.387 139.866 328.002 139.22 326.408C138.575 324.815 138.379 323.076 138.654 321.379C138.929 319.682 139.663 318.093 140.778 316.785C141.893 315.476 143.345 314.499 144.977 313.958C146.608 313.418 148.357 313.335 150.032 313.719C151.708 314.103 153.246 314.939 154.479 316.137C155.712 317.334 156.594 318.847 157.027 320.51C157.238 321.272 157.349 322.058 157.356 322.849Z" fill="white" stroke="#263238" stroke-linecap="round" stroke-linejoin="round"/>
<path d="M174.185 297.375L160.515 304.735L163.347 309.994L177.017 302.634L174.185 297.375Z" fill="#263238" stroke="#263238" stroke-linecap="round" stroke-linejoin="round"/>
<path d="M179.283 303.205L172.553 306.829L168.249 298.846L174.99 295.212C175.519 294.922 176.101 294.741 176.701 294.679C177.301 294.617 177.907 294.676 178.484 294.852C179.061 295.028 179.597 295.317 180.061 295.703C180.524 296.09 180.906 296.565 181.183 297.1C181.734 298.163 181.844 299.4 181.488 300.543C181.132 301.686 180.34 302.643 179.283 303.205Z" fill="white" stroke="#263238" stroke-linecap="round" stroke-linejoin="round"/>
<path d="M149.78 269.354L149.297 297.199L143.335 297.1L143.807 269.255L149.78 269.354Z" fill="#263238" stroke="#263238" stroke-linecap="round" stroke-linejoin="round"/>
<path d="M151.394 267.674L151.274 275.36L142.204 275.14L142.325 267.454C142.335 266.859 142.462 266.271 142.699 265.725C142.936 265.178 143.279 264.684 143.707 264.27C144.135 263.856 144.641 263.531 145.195 263.312C145.749 263.094 146.341 262.986 146.936 262.997C147.538 263.005 148.132 263.133 148.684 263.374C149.235 263.615 149.733 263.963 150.148 264.399C150.563 264.834 150.887 265.349 151.101 265.911C151.315 266.473 151.415 267.073 151.394 267.674Z" fill="white" stroke="#263238" stroke-linecap="round" stroke-linejoin="round"/>
<path d="M172.091 279.456L158.992 304.029L153.722 301.229L166.81 276.656L172.091 279.456Z" fill="#263238" stroke="#263238" stroke-linecap="round" stroke-linejoin="round"/>
<path d="M174.287 278.698L170.697 285.451L162.692 281.201L166.272 274.438C166.838 273.379 167.8 272.588 168.948 272.236C170.096 271.884 171.336 272.001 172.399 272.56C173.462 273.125 174.258 274.088 174.612 275.239C174.966 276.389 174.849 277.633 174.287 278.698Z" fill="white" stroke="#263238" stroke-linecap="round" stroke-linejoin="round"/>
<path d="M128.61 279.346L141.589 303.985L136.307 306.774L123.329 282.135L128.61 279.346Z" fill="#263238" stroke="#263238" stroke-linecap="round" stroke-linejoin="round"/>
<path d="M140.788 297.21C140.595 296.071 140.069 295.014 139.276 294.173C138.482 293.333 137.457 292.747 136.331 292.489C135.204 292.231 134.026 292.313 132.946 292.725C131.866 293.137 130.933 293.86 130.264 294.803C129.595 295.745 129.221 296.865 129.189 298.02C129.157 299.176 129.468 300.314 130.083 301.293C130.698 302.271 131.59 303.045 132.645 303.516C133.701 303.988 134.872 304.136 136.011 303.941C137.537 303.68 138.896 302.825 139.792 301.564C140.687 300.302 141.045 298.736 140.788 297.21Z" fill="white" stroke="#263238" stroke-linecap="round" stroke-linejoin="round"/>
<path d="M146.497 297.979C149.723 297.979 152.338 295.364 152.338 292.138C152.338 288.911 149.723 286.296 146.497 286.296C143.271 286.296 140.656 288.911 140.656 292.138C140.656 295.364 143.271 297.979 146.497 297.979Z" fill="white" stroke="#263238" stroke-linecap="round" stroke-linejoin="round"/>
<path d="M165.558 295.508C165.734 294.366 165.567 293.198 165.078 292.15C164.59 291.103 163.801 290.224 162.813 289.625C161.825 289.026 160.681 288.733 159.527 288.784C158.372 288.835 157.259 289.228 156.327 289.912C155.396 290.596 154.688 291.541 154.294 292.627C153.9 293.713 153.836 294.892 154.112 296.014C154.388 297.137 154.991 298.152 155.844 298.931C156.697 299.711 157.762 300.22 158.904 300.394C159.662 300.512 160.436 300.478 161.18 300.296C161.925 300.113 162.627 299.786 163.245 299.332C163.863 298.878 164.385 298.307 164.782 297.651C165.179 296.994 165.443 296.266 165.558 295.508Z" fill="white" stroke="#263238" stroke-linecap="round" stroke-linejoin="round"/>
<path d="M129.215 277.095L132.794 283.859L124.779 288.108L121.199 281.333C120.92 280.807 120.747 280.231 120.69 279.638C120.634 279.045 120.695 278.447 120.871 277.877C121.046 277.308 121.332 276.779 121.713 276.321C122.093 275.862 122.56 275.484 123.088 275.206C124.151 274.648 125.393 274.533 126.541 274.887C127.689 275.24 128.65 276.034 129.215 277.095Z" fill="white" stroke="#263238" stroke-linecap="round" stroke-linejoin="round"/>
<path d="M164.438 308.487C164.438 312.855 162.703 317.044 159.614 320.133C156.525 323.222 152.336 324.957 147.968 324.957C147.419 324.957 146.87 324.957 146.354 324.891C143.358 324.594 140.501 323.481 138.093 321.674C135.685 319.867 133.818 317.434 132.696 314.641C131.574 311.847 131.239 308.799 131.727 305.828C132.216 302.858 133.509 300.077 135.467 297.79C137.425 295.503 139.973 293.797 142.832 292.856C145.692 291.915 148.756 291.776 151.689 292.454C154.622 293.133 157.313 294.602 159.47 296.703C161.627 298.803 163.167 301.455 163.922 304.369C164.263 305.715 164.436 307.098 164.438 308.487Z" fill="white" stroke="#263238" stroke-linecap="round" stroke-linejoin="round"/>
<path d="M164.439 308.487C164.439 312.855 162.703 317.044 159.615 320.133C156.526 323.221 152.337 324.957 147.969 324.957C147.42 324.957 146.871 324.957 146.354 324.891C145.723 322.454 145.659 319.905 146.167 317.439C146.675 314.974 147.741 312.658 149.284 310.669C150.827 308.679 152.805 307.07 155.067 305.965C157.328 304.86 159.813 304.288 162.33 304.292C162.868 304.292 163.428 304.292 163.944 304.369C164.278 305.716 164.443 307.099 164.439 308.487Z" fill="white" stroke="#263238" stroke-linecap="round" stroke-linejoin="round"/>
<path d="M247.371 358.029C250.168 346.078 242.747 334.123 230.796 331.326C218.845 328.53 206.89 335.951 204.093 347.902C201.297 359.853 208.718 371.808 220.669 374.604C232.62 377.401 244.575 369.98 247.371 358.029Z" fill="white" stroke="#263238" stroke-linecap="round" stroke-linejoin="round"/>
<path d="M229.861 362.903C235.351 360.613 237.946 354.306 235.656 348.816C233.366 343.325 227.059 340.731 221.568 343.021C216.078 345.311 213.483 351.618 215.773 357.108C218.063 362.599 224.371 365.193 229.861 362.903Z" fill="#263238" stroke="#263238" stroke-linecap="round" stroke-linejoin="round"/>
<path d="M221.908 446.988H320.508L321.925 440.313C322.493 437.646 321.982 434.863 320.505 432.571C319.028 430.279 316.704 428.665 314.041 428.081C300.063 424.941 269.803 423.81 269.803 423.81C262.512 424.04 242.221 424.908 228.243 428.092C225.599 428.696 223.298 430.316 221.839 432.603C220.38 434.89 219.88 437.66 220.447 440.313L221.908 446.988Z" fill="white" stroke="#263238" stroke-linecap="round" stroke-linejoin="round"/>
<path d="M294.936 425.435C282.309 424.271 269.836 423.81 269.836 423.81C265.246 423.952 255.496 424.359 245.416 425.435C248.359 435.481 258.328 442.882 270.176 442.882C282.023 442.882 291.993 435.449 294.936 425.435Z" fill="#92E3A9" stroke="#263238" stroke-linecap="round" stroke-linejoin="round"/>
<path d="M373.161 399.907L379.294 391.688L325.702 351.698L319.568 359.917L373.161 399.907Z" fill="#263238" stroke="#263238" stroke-linecap="round" stroke-linejoin="round"/>
<path d="M346.491 424.171L354.71 430.304L379.249 397.419L371.03 391.285L346.491 424.171Z" fill="#263238" stroke="#263238" stroke-linecap="round" stroke-linejoin="round"/>
<path d="M367.7 388.586C368.439 387.595 369.367 386.759 370.429 386.127C371.492 385.494 372.668 385.077 373.892 384.9C375.116 384.723 376.362 384.788 377.561 385.093C378.759 385.397 379.886 385.935 380.876 386.675L381.59 387.257C382.86 388.416 383.788 389.9 384.273 391.549C384.758 393.198 384.781 394.948 384.341 396.609C383.901 398.271 383.013 399.78 381.775 400.972C380.537 402.164 378.996 402.994 377.319 403.371C375.642 403.748 373.894 403.658 372.264 403.111C370.635 402.564 369.187 401.581 368.077 400.268C366.968 398.956 366.24 397.364 365.972 395.666C365.704 393.968 365.907 392.23 366.558 390.639C366.853 389.91 367.236 389.221 367.7 388.586Z" fill="white" stroke="#263238" stroke-linecap="round" stroke-linejoin="round"/>
<path d="M346.256 414.861C347.648 412.794 349.805 411.364 352.251 410.886C354.697 410.408 357.233 410.922 359.3 412.314C359.553 412.478 359.795 412.665 360.036 412.852C361.362 413.946 362.362 415.383 362.928 417.006C363.494 418.629 363.604 420.376 363.246 422.057C362.888 423.738 362.076 425.289 360.898 426.541C359.72 427.793 358.222 428.698 356.565 429.157C354.909 429.617 353.158 429.613 351.504 429.147C349.849 428.681 348.354 427.77 347.182 426.513C346.009 425.256 345.203 423.702 344.852 422.019C344.501 420.337 344.619 418.59 345.191 416.969C345.457 416.225 345.815 415.517 346.256 414.861Z" fill="white" stroke="#263238" stroke-linecap="round" stroke-linejoin="round"/>
<path d="M318.033 426.624L333.484 428.142L334.068 422.197L318.617 420.679L318.033 426.624Z" fill="#263238" stroke="#263238" stroke-linecap="round" stroke-linejoin="round"/>
<path d="M317.093 418.978L324.713 419.725L323.824 428.751L316.204 428.004C315.007 427.887 313.905 427.3 313.142 426.372C312.378 425.443 312.014 424.249 312.13 423.052C312.25 421.854 312.839 420.753 313.769 419.989C314.7 419.226 315.895 418.862 317.093 418.978Z" fill="white" stroke="#263238" stroke-linecap="round" stroke-linejoin="round"/>
<path d="M332.356 422.821C333.562 421.023 335.112 419.48 336.916 418.282C338.72 417.083 340.742 416.252 342.867 415.835C344.993 415.419 347.18 415.426 349.302 415.857C351.425 416.287 353.442 417.131 355.238 418.342C355.688 418.649 356.116 418.967 356.533 419.308C358.855 421.226 360.606 423.744 361.596 426.588C362.586 429.432 362.778 432.493 362.15 435.439C361.522 438.384 360.098 441.101 358.034 443.293C355.97 445.486 353.344 447.071 350.442 447.875C347.54 448.68 344.473 448.673 341.574 447.856C338.675 447.039 336.056 445.443 334.002 443.242C331.947 441.04 330.535 438.318 329.919 435.37C329.304 432.422 329.509 429.361 330.511 426.522C330.965 425.215 331.585 423.971 332.356 422.821Z" fill="white" stroke="#263238" stroke-linecap="round" stroke-linejoin="round"/>
<path d="M314.612 439.928L335.035 424.655L338.318 429.036L317.895 444.298L314.612 439.928Z" fill="#263238" stroke="#263238" stroke-linecap="round" stroke-linejoin="round"/>
<path d="M312.493 439.698L318.104 435.448L323.089 442.036L317.478 446.242C316.597 446.901 315.49 447.184 314.401 447.027C313.312 446.871 312.329 446.288 311.669 445.407C311.037 444.536 310.769 443.452 310.923 442.385C311.077 441.319 311.64 440.355 312.493 439.698Z" fill="white" stroke="#263238" stroke-linecap="round" stroke-linejoin="round"/>
<path d="M340.986 429.366C341.245 428.238 341.164 427.059 340.752 425.977C340.34 424.896 339.617 423.961 338.673 423.291C337.729 422.622 336.608 422.248 335.451 422.216C334.295 422.185 333.155 422.498 332.176 423.115C331.198 423.733 330.424 424.627 329.955 425.684C329.485 426.742 329.34 427.915 329.538 429.055C329.736 430.195 330.268 431.251 331.067 432.088C331.865 432.925 332.895 433.506 334.024 433.758C335.529 434.092 337.106 433.819 338.41 432.996C339.714 432.173 340.64 430.868 340.986 429.366Z" fill="white" stroke="#263238" stroke-linecap="round" stroke-linejoin="round"/>
<path d="M351.812 455.278L354.843 434.328L359.333 434.965L356.314 455.915L351.812 455.278Z" fill="#263238" stroke="#263238" stroke-linecap="round" stroke-linejoin="round"/>
<path d="M350.44 456.387L351.263 450.623L358.082 451.6L357.258 457.354C357.195 457.802 357.044 458.234 356.814 458.624C356.583 459.014 356.279 459.355 355.917 459.627C355.555 459.899 355.143 460.097 354.704 460.21C354.265 460.323 353.809 460.349 353.36 460.285C352.457 460.155 351.641 459.671 351.094 458.94C350.546 458.209 350.311 457.291 350.44 456.387Z" fill="white" stroke="#263238" stroke-linecap="round" stroke-linejoin="round"/>
<path d="M361.09 433.593C360.573 432.787 359.829 432.153 358.952 431.77C358.075 431.387 357.104 431.273 356.162 431.442C355.22 431.61 354.349 432.055 353.659 432.718C352.969 433.381 352.491 434.234 352.286 435.169C352.08 436.104 352.157 437.079 352.505 437.97C352.853 438.862 353.458 439.63 354.243 440.178C355.027 440.726 355.957 441.029 356.914 441.049C357.871 441.069 358.812 440.805 359.619 440.291C360.701 439.597 361.464 438.502 361.74 437.246C362.016 435.99 361.782 434.676 361.09 433.593Z" fill="white" stroke="#263238" stroke-linecap="round" stroke-linejoin="round"/>
<path d="M331.598 452.489L345.213 430.925L349.835 433.823L336.231 455.399L331.598 452.489Z" fill="#263238" stroke="#263238" stroke-linecap="round" stroke-linejoin="round"/>
<path d="M329.545 453.016L333.267 447.087L340.305 451.479L336.572 457.419C335.984 458.349 335.053 459.008 333.981 459.253C332.909 459.497 331.784 459.308 330.851 458.726C329.923 458.141 329.264 457.211 329.019 456.141C328.774 455.071 328.963 453.948 329.545 453.016Z" fill="white" stroke="#263238" stroke-linecap="round" stroke-linejoin="round"/>
<path d="M352.471 433.187C352.308 432.043 351.809 430.974 351.038 430.114C350.266 429.255 349.257 428.644 348.138 428.359C347.019 428.074 345.84 428.127 344.751 428.513C343.663 428.899 342.713 429.599 342.023 430.525C341.333 431.452 340.934 432.562 340.876 433.715C340.817 434.869 341.103 436.014 341.697 437.004C342.29 437.995 343.164 438.787 344.209 439.281C345.253 439.774 346.42 439.946 347.563 439.775C349.086 439.549 350.458 438.729 351.378 437.495C352.298 436.26 352.691 434.711 352.471 433.187Z" fill="white" stroke="#263238" stroke-linecap="round" stroke-linejoin="round"/>
<path d="M327.248 372.038C337.568 365.395 340.549 351.643 333.906 341.322C327.262 331.002 313.51 328.021 303.19 334.665C292.87 341.308 289.889 355.06 296.532 365.38C303.176 375.7 316.927 378.681 327.248 372.038Z" fill="white" stroke="#263238" stroke-linecap="round" stroke-linejoin="round"/>
<path d="M325.019 357.85C327.499 352.443 325.126 346.049 319.719 343.569C314.312 341.089 307.918 343.461 305.438 348.869C302.957 354.276 305.33 360.67 310.737 363.15C316.145 365.63 322.539 363.257 325.019 357.85Z" fill="#263238" stroke="#263238" stroke-linecap="round" stroke-linejoin="round"/>
<path d="M270.165 309.31C289.879 309.31 305.861 293.329 305.861 273.614C305.861 253.9 289.879 237.918 270.165 237.918C250.45 237.918 234.469 253.9 234.469 273.614C234.469 293.329 250.45 309.31 270.165 309.31Z" fill="#92E3A9" stroke="#263238" stroke-linecap="round" stroke-linejoin="round"/>
<path d="M321.2 297.386C328.866 287.775 333.664 276.195 335.041 263.979C336.418 251.762 334.319 239.405 328.986 228.328C323.652 217.251 315.3 207.905 304.891 201.364C294.481 194.823 282.437 191.353 270.143 191.353C257.849 191.353 245.805 194.823 235.395 201.364C224.986 207.905 216.634 217.251 211.3 228.328C205.967 239.405 203.868 251.762 205.245 263.979C206.622 276.195 211.42 287.775 219.086 297.386H321.2Z" fill="white" stroke="#263238" stroke-linecap="round" stroke-linejoin="round"/>
<path d="M310.11 232.011H228.572C223.612 232.011 219.591 236.032 219.591 240.993V269.892C219.591 274.852 223.612 278.874 228.572 278.874H310.11C315.07 278.874 319.092 274.852 319.092 269.892V240.993C319.092 236.032 315.07 232.011 310.11 232.011Z" fill="#92E3A9" stroke="#263238" stroke-linecap="round" stroke-linejoin="round"/>
<path d="M230.351 253.543C231.429 250.524 233.395 247.9 235.99 246.017C238.584 244.134 241.688 243.079 244.892 242.99C248.097 242.901 251.254 243.782 253.95 245.519C256.645 247.255 258.753 249.765 259.997 252.719" stroke="#263238" stroke-width="5" stroke-linecap="round" stroke-linejoin="round"/>
<path d="M279.531 253.543C280.609 250.524 282.574 247.9 285.169 246.017C287.764 244.134 290.867 243.079 294.072 242.99C297.277 242.901 300.434 243.782 303.129 245.519C305.825 247.255 307.932 249.765 309.177 252.719" stroke="#263238" stroke-width="5" stroke-linecap="round" stroke-linejoin="round"/>
<path d="M261.557 264.402C261.832 266.579 262.893 268.581 264.539 270.033C266.186 271.484 268.305 272.285 270.5 272.285C272.695 272.285 274.814 271.484 276.46 270.033C278.107 268.581 279.167 266.579 279.443 264.402H261.557Z" fill="white" stroke="#263238" stroke-linecap="round" stroke-linejoin="round"/>
<path d="M354.667 268.113C352.856 268.113 351.119 267.394 349.838 266.113C348.557 264.832 347.837 263.095 347.837 261.284V245.747C347.836 244.849 348.012 243.96 348.354 243.13C348.697 242.3 349.2 241.546 349.834 240.911C350.468 240.275 351.222 239.771 352.051 239.427C352.88 239.083 353.769 238.906 354.667 238.906C355.565 238.905 356.454 239.081 357.284 239.423C358.114 239.766 358.868 240.269 359.503 240.903C360.139 241.537 360.643 242.291 360.987 243.12C361.33 243.949 361.508 244.838 361.508 245.736V261.273C361.509 262.171 361.333 263.062 360.99 263.892C360.646 264.723 360.143 265.477 359.507 266.113C358.872 266.748 358.117 267.252 357.286 267.596C356.456 267.939 355.566 268.115 354.667 268.113Z" fill="#263238" stroke="#263238" stroke-linecap="round" stroke-linejoin="round"/>
<path d="M183.796 268.113C182.898 268.115 182.009 267.939 181.179 267.597C180.349 267.254 179.595 266.751 178.96 266.117C178.324 265.482 177.82 264.729 177.476 263.9C177.133 263.07 176.956 262.182 176.956 261.284V245.747C176.954 244.848 177.13 243.958 177.473 243.128C177.817 242.297 178.32 241.542 178.956 240.907C179.591 240.271 180.346 239.767 181.177 239.424C182.007 239.081 182.897 238.905 183.796 238.906C184.693 238.906 185.581 239.083 186.41 239.426C187.238 239.77 187.991 240.273 188.625 240.907C189.26 241.541 189.763 242.294 190.106 243.122C190.449 243.951 190.626 244.839 190.626 245.736V261.273C190.627 262.171 190.452 263.06 190.109 263.89C189.766 264.72 189.264 265.474 188.629 266.109C187.995 266.744 187.242 267.248 186.412 267.592C185.583 267.936 184.694 268.113 183.796 268.113Z" fill="#263238" stroke="#263238" stroke-linecap="round" stroke-linejoin="round"/>
<path d="M205.69 198.006C199.649 206.932 196.428 217.467 196.445 228.245V239.532" stroke="#263238" stroke-width="14" stroke-linecap="round" stroke-linejoin="round"/>
<path d="M335.342 198.05C330.399 190.684 323.718 184.649 315.89 180.476C308.062 176.304 299.327 174.122 290.456 174.124H250.544C241.685 174.118 232.961 176.29 225.14 180.449C217.318 184.608 210.639 190.626 205.69 197.973" stroke="#263238" stroke-width="7" stroke-linecap="round" stroke-linejoin="round"/>
<path d="M344.544 239.532V228.245C344.56 217.487 341.356 206.97 335.342 198.05" stroke="#263238" stroke-width="14" stroke-linecap="round" stroke-linejoin="round"/>
<path d="M201.891 227.377H192.734C187.434 227.377 183.137 231.674 183.137 236.974V268.695C183.137 273.995 187.434 278.292 192.734 278.292H201.891C207.191 278.292 211.488 273.995 211.488 268.695V236.974C211.488 231.674 207.191 227.377 201.891 227.377Z" fill="white" stroke="#263238" stroke-linecap="round" stroke-linejoin="round"/>
<path d="M198.762 227.377H195.874V278.292H198.762V227.377Z" fill="#92E3A9" stroke="#263238" stroke-linecap="round" stroke-linejoin="round"/>
<path d="M346.519 227.377H337.362C332.062 227.377 327.766 231.674 327.766 236.974V268.695C327.766 273.995 332.062 278.292 337.362 278.292H346.519C351.819 278.292 356.116 273.995 356.116 268.695V236.974C356.116 231.674 351.819 227.377 346.519 227.377Z" fill="white" stroke="#263238" stroke-linecap="round" stroke-linejoin="round"/>
<path d="M343.39 227.377H340.502V278.292H343.39V227.377Z" fill="#92E3A9" stroke="#263238" stroke-linecap="round" stroke-linejoin="round"/>
<path d="M270.395 222.755C275.397 222.756 280.32 221.505 284.714 219.115C289.108 216.725 292.833 213.273 295.55 209.074L301.743 199.488C291.93 194.069 280.887 191.268 269.677 191.354C258.468 191.441 247.469 194.412 237.741 199.982L247.063 211.555C249.867 215.048 253.419 217.867 257.457 219.805C261.495 221.743 265.916 222.751 270.395 222.755Z" fill="#92E3A9" stroke="#263238" stroke-linecap="round" stroke-linejoin="round"/>
<path d="M271.944 283.617C271.944 283.4 271.879 283.188 271.759 283.007C271.638 282.826 271.466 282.686 271.266 282.603C271.065 282.52 270.844 282.498 270.631 282.54C270.418 282.583 270.223 282.687 270.069 282.841C269.916 282.994 269.811 283.19 269.769 283.403C269.726 283.616 269.748 283.837 269.831 284.037C269.914 284.238 270.055 284.409 270.236 284.53C270.416 284.651 270.628 284.715 270.846 284.715C271.137 284.715 271.416 284.599 271.622 284.393C271.828 284.188 271.944 283.908 271.944 283.617Z" fill="#263238"/>
<path d="M271.944 287.306C271.944 287.089 271.879 286.877 271.759 286.696C271.638 286.516 271.466 286.375 271.266 286.292C271.065 286.209 270.844 286.187 270.631 286.229C270.418 286.272 270.223 286.376 270.069 286.53C269.916 286.683 269.811 286.879 269.769 287.092C269.726 287.305 269.748 287.526 269.831 287.726C269.914 287.927 270.055 288.099 270.236 288.219C270.416 288.34 270.628 288.404 270.846 288.404C271.137 288.404 271.416 288.289 271.622 288.083C271.828 287.877 271.944 287.598 271.944 287.306Z" fill="#263238"/>
<path d="M267.76 286.735C267.961 286.606 268.113 286.415 268.195 286.19C268.278 285.966 268.284 285.722 268.215 285.493C268.145 285.265 268.003 285.065 267.81 284.925C267.617 284.784 267.384 284.711 267.145 284.715C266.945 284.845 266.792 285.036 266.71 285.26C266.627 285.484 266.621 285.729 266.69 285.957C266.76 286.186 266.902 286.385 267.095 286.525C267.288 286.666 267.521 286.74 267.76 286.735Z" fill="#263238"/>
<path d="M274.359 286.735C274.529 286.732 274.696 286.69 274.846 286.612C274.997 286.533 275.128 286.421 275.228 286.283C275.328 286.146 275.394 285.987 275.422 285.82C275.451 285.652 275.44 285.48 275.39 285.318C275.341 285.155 275.254 285.006 275.137 284.883C275.021 284.76 274.877 284.665 274.717 284.607C274.558 284.548 274.387 284.527 274.218 284.546C274.049 284.565 273.887 284.623 273.744 284.715C273.574 284.718 273.407 284.76 273.257 284.839C273.106 284.917 272.976 285.03 272.876 285.167C272.776 285.304 272.709 285.463 272.681 285.631C272.653 285.798 272.664 285.97 272.713 286.133C272.763 286.295 272.849 286.444 272.966 286.567C273.083 286.691 273.226 286.785 273.386 286.844C273.545 286.902 273.716 286.923 273.885 286.904C274.054 286.885 274.216 286.827 274.359 286.735Z" fill="#263238"/>
<path d="M314.041 324.814C300.064 321.663 269.803 320.532 269.803 320.532C262.512 320.762 242.221 321.63 228.243 324.825C225.597 325.426 223.295 327.046 221.835 329.334C220.376 331.622 219.877 334.393 220.448 337.046L233.393 397.611C234.029 400.548 235.65 403.179 237.986 405.068C240.323 406.958 243.235 407.991 246.24 407.998H296.144C299.148 407.991 302.061 406.958 304.397 405.068C306.734 403.179 308.354 400.548 308.99 397.611L321.925 337.046C322.493 334.379 321.982 331.596 320.505 329.304C319.028 327.012 316.704 325.398 314.041 324.814Z" fill="white" stroke="#263238" stroke-linecap="round" stroke-linejoin="round"/>
<path d="M307.672 323.65C292.509 321.388 269.835 320.532 269.835 320.532C258.734 320.85 247.657 321.766 236.654 323.277L251.323 407.998H291.191L307.672 323.65Z" fill="#92E3A9" stroke="#263238" stroke-linecap="round" stroke-linejoin="round"/>
<path d="M282.924 338.945H258.636C253.676 338.945 249.654 342.966 249.654 347.927V359.785C249.654 364.746 253.676 368.767 258.636 368.767H282.924C287.884 368.767 291.905 364.746 291.905 359.785V347.927C291.905 342.966 287.884 338.945 282.924 338.945Z" fill="white" stroke="#263238" stroke-linecap="round" stroke-linejoin="round"/>
<path d="M263.687 351.232H256.846V358.072H263.687V351.232Z" fill="white" stroke="#263238" stroke-linecap="round" stroke-linejoin="round"/>
<path d="M274.195 351.232H267.354V358.072H274.195V351.232Z" fill="white" stroke="#263238" stroke-linecap="round" stroke-linejoin="round"/>
<path d="M284.713 351.232H277.873V358.072H284.713V351.232Z" fill="white" stroke="#263238" stroke-linecap="round" stroke-linejoin="round"/>
</svg>
