<svg width="549" height="604" viewBox="0 0 549 604" fill="none" xmlns="http://www.w3.org/2000/svg">
<path d="M198.961 44.3028C196.908 44.3028 195.068 43.9695 193.441 43.3028C191.815 42.6362 190.508 41.6495 189.521 40.3428C188.561 39.0362 188.055 37.4628 188.001 35.6228H195.281C195.388 36.6628 195.748 37.4628 196.361 38.0228C196.975 38.5562 197.775 38.8228 198.761 38.8228C199.775 38.8228 200.575 38.5962 201.161 38.1428C201.748 37.6628 202.041 37.0095 202.041 36.1828C202.041 35.4895 201.801 34.9162 201.321 34.4628C200.868 34.0095 200.295 33.6362 199.601 33.3428C198.935 33.0495 197.975 32.7162 196.721 32.3428C194.908 31.7828 193.428 31.2228 192.281 30.6628C191.135 30.1028 190.148 29.2762 189.321 28.1828C188.495 27.0895 188.081 25.6628 188.081 23.9028C188.081 21.2895 189.028 19.2495 190.921 17.7828C192.815 16.2895 195.281 15.5428 198.321 15.5428C201.415 15.5428 203.908 16.2895 205.801 17.7828C207.695 19.2495 208.708 21.3028 208.841 23.9428H201.441C201.388 23.0362 201.055 22.3295 200.441 21.8228C199.828 21.2895 199.041 21.0228 198.081 21.0228C197.255 21.0228 196.588 21.2495 196.081 21.7028C195.575 22.1295 195.321 22.7562 195.321 23.5828C195.321 24.4895 195.748 25.1962 196.601 25.7028C197.455 26.2095 198.788 26.7562 200.601 27.3428C202.415 27.9562 203.881 28.5428 205.001 29.1028C206.148 29.6628 207.135 30.4762 207.961 31.5428C208.788 32.6095 209.201 33.9828 209.201 35.6628C209.201 37.2628 208.788 38.7162 207.961 40.0228C207.161 41.3295 205.988 42.3695 204.441 43.1428C202.895 43.9162 201.068 44.3028 198.961 44.3028ZM234.451 32.5028C234.451 33.1428 234.411 33.8095 234.331 34.5028H218.851C218.957 35.8895 219.397 36.9562 220.171 37.7028C220.971 38.4228 221.944 38.7828 223.091 38.7828C224.797 38.7828 225.984 38.0628 226.651 36.6228H233.931C233.557 38.0895 232.877 39.4095 231.891 40.5828C230.931 41.7562 229.717 42.6762 228.251 43.3428C226.784 44.0095 225.144 44.3428 223.331 44.3428C221.144 44.3428 219.197 43.8762 217.491 42.9428C215.784 42.0095 214.451 40.6762 213.491 38.9428C212.531 37.2095 212.051 35.1828 212.051 32.8628C212.051 30.5428 212.517 28.5162 213.451 26.7828C214.411 25.0495 215.744 23.7162 217.451 22.7828C219.157 21.8495 221.117 21.3828 223.331 21.3828C225.491 21.3828 227.411 21.8362 229.091 22.7428C230.771 23.6495 232.077 24.9428 233.011 26.6228C233.971 28.3028 234.451 30.2628 234.451 32.5028ZM227.451 30.7028C227.451 29.5295 227.051 28.5962 226.251 27.9028C225.451 27.2095 224.451 26.8628 223.251 26.8628C222.104 26.8628 221.131 27.1962 220.331 27.8628C219.557 28.5295 219.077 29.4762 218.891 30.7028H227.451ZM244.899 25.4228C245.699 24.1962 246.699 23.2362 247.899 22.5428C249.099 21.8228 250.432 21.4628 251.899 21.4628V28.7028H250.019C248.312 28.7028 247.032 29.0762 246.179 29.8228C245.326 30.5428 244.899 31.8228 244.899 33.6628V44.0228H238.059V21.7028H244.899V25.4228ZM276.208 32.5028C276.208 33.1428 276.168 33.8095 276.088 34.5028H260.608C260.715 35.8895 261.155 36.9562 261.928 37.7028C262.728 38.4228 263.702 38.7828 264.848 38.7828C266.555 38.7828 267.742 38.0628 268.408 36.6228H275.688C275.315 38.0895 274.635 39.4095 273.648 40.5828C272.688 41.7562 271.475 42.6762 270.008 43.3428C268.542 44.0095 266.902 44.3428 265.088 44.3428C262.902 44.3428 260.955 43.8762 259.248 42.9428C257.542 42.0095 256.208 40.6762 255.248 38.9428C254.288 37.2095 253.808 35.1828 253.808 32.8628C253.808 30.5428 254.275 28.5162 255.208 26.7828C256.168 25.0495 257.502 23.7162 259.208 22.7828C260.915 21.8495 262.875 21.3828 265.088 21.3828C267.248 21.3828 269.168 21.8362 270.848 22.7428C272.528 23.6495 273.835 24.9428 274.768 26.6228C275.728 28.3028 276.208 30.2628 276.208 32.5028ZM269.208 30.7028C269.208 29.5295 268.808 28.5962 268.008 27.9028C267.208 27.2095 266.208 26.8628 265.008 26.8628C263.862 26.8628 262.888 27.1962 262.088 27.8628C261.315 28.5295 260.835 29.4762 260.648 30.7028H269.208ZM293.417 21.4628C296.03 21.4628 298.11 22.3162 299.657 24.0228C301.23 25.7028 302.017 28.0228 302.017 30.9828V44.0228H295.217V31.9028C295.217 30.4095 294.83 29.2495 294.057 28.4228C293.284 27.5962 292.244 27.1828 290.937 27.1828C289.63 27.1828 288.59 27.5962 287.817 28.4228C287.044 29.2495 286.657 30.4095 286.657 31.9028V44.0228H279.817V21.7028H286.657V24.6628C287.35 23.6762 288.284 22.9028 289.457 22.3428C290.63 21.7562 291.95 21.4628 293.417 21.4628Z" fill="#1B4332"/>
<path d="M465.244 230.441C465.244 230.441 446.721 156.15 334.582 109.298C222.444 62.4468 122.12 105.84 99.2482 160.74C76.3768 215.64 100.346 245.286 85.084 292.17C69.8218 339.055 -8.5864 398.435 23.058 470.442C54.7023 542.449 202.779 563.014 322.603 548.158C442.428 533.302 536.044 368.723 465.244 230.441Z" fill="#92E3A9"/>
<path opacity="0.7" d="M465.244 230.441C465.244 230.441 446.721 156.15 334.582 109.298C222.444 62.4468 122.12 105.84 99.2482 160.74C76.3768 215.64 100.346 245.286 85.084 292.17C69.8218 339.055 -8.5864 398.435 23.058 470.442C54.7023 542.449 202.779 563.014 322.603 548.158C442.428 533.302 536.044 368.723 465.244 230.441Z" fill="white"/>
<path d="M263.533 127.745H172.399C169.487 127.745 166.694 128.902 164.635 130.961C162.576 133.02 161.419 135.813 161.419 138.725V172.763C161.419 175.675 162.576 178.468 164.635 180.527C166.694 182.586 169.487 183.743 172.399 183.743H262.984L274.513 199.115V138.725C274.513 135.813 273.356 133.02 271.297 130.961C269.238 128.902 266.445 127.745 263.533 127.745Z" fill="#263238"/>
<path d="M181.26 165.22H177.966V144.358H181.26V153.285H184.971V144.358H188.265V165.22H184.971V156.293H181.26V165.22Z" fill="#92E3A9"/>
<path d="M190.691 144.391H193.985V165.253H190.691V144.391Z" fill="#92E3A9"/>
<path d="M200.002 144.391H210.115V147.367H206.689V165.22H203.395V147.367H199.98L200.002 144.391Z" fill="#92E3A9"/>
<path d="M214.815 165.22H211.521V144.358H214.815V153.285H218.515V144.358H221.809V165.22H218.515V156.293H214.793L214.815 165.22Z" fill="#92E3A9"/>
<path d="M227.519 153.164H232.009V156.14H227.519V162.244H233.173V165.22H224.247V144.358H233.173V147.334H227.519V153.164Z" fill="#92E3A9"/>
<path d="M242.034 165.22C241.765 164.396 241.665 163.526 241.737 162.662V159.368C241.737 157.435 241.09 156.722 239.541 156.722H238.443V165.198H235.149V144.336H240.09C243.483 144.336 244.944 145.917 244.944 149.123V150.759C244.944 152.9 244.252 154.306 242.748 154.987C244.384 155.678 244.944 157.249 244.944 159.379V162.596C244.884 163.454 245.008 164.315 245.306 165.121L242.034 165.22ZM238.465 147.367V153.768H239.75C240.969 153.768 241.715 153.23 241.715 151.572V149.508C241.715 148.025 241.21 147.312 240.047 147.312L238.465 147.367Z" fill="#92E3A9"/>
<path d="M250.434 153.164H254.925V156.14H250.434V162.244H256.078V165.22H247.151V144.358H256.078V147.334H250.434V153.164Z" fill="#92E3A9"/>
<path d="M258.526 160.608L258.109 153.076V144.391H261.403V153.076L260.986 160.608H258.526ZM261.315 162.069V165.22H258.164V162.069H261.315Z" fill="#92E3A9"/>
<path d="M278.553 353.121H261.776V498.935H278.553V353.121Z" fill="#263238" stroke="#263238" stroke-linecap="round" stroke-linejoin="round"/>
<path d="M145.52 405.924V416.179H212.388V405.924H145.52Z" fill="#263238" stroke="#263238" stroke-linecap="round" stroke-linejoin="round"/>
<path d="M152.394 370.524H142.138V411.556H152.394V370.524Z" fill="#263238" stroke="#263238" stroke-linecap="round" stroke-linejoin="round"/>
<path d="M156.665 411.732C156.665 412.966 156.422 414.187 155.949 415.327C155.477 416.467 154.784 417.502 153.911 418.374C153.038 419.246 152.002 419.937 150.862 420.409C149.722 420.88 148.5 421.121 147.266 421.12C146.958 421.12 146.651 421.12 146.355 421.12C144.644 420.951 143.013 420.316 141.639 419.285C140.264 418.254 139.198 416.865 138.558 415.27C137.917 413.676 137.726 411.936 138.005 410.24C138.284 408.545 139.023 406.958 140.141 405.653C141.259 404.348 142.713 403.374 144.346 402.837C145.978 402.301 147.727 402.222 149.401 402.61C151.075 402.998 152.611 403.838 153.841 405.038C155.071 406.237 155.949 407.751 156.379 409.415C156.567 410.173 156.663 410.951 156.665 411.732Z" fill="white" stroke="#263238" stroke-linecap="round" stroke-linejoin="round"/>
<path d="M157.356 376.849C157.351 379.339 156.358 381.725 154.597 383.484C152.835 385.244 150.448 386.234 147.958 386.237C147.65 386.237 147.343 386.237 147.035 386.237C145.324 386.072 143.691 385.442 142.313 384.415C140.935 383.387 139.866 382.002 139.22 380.408C138.575 378.815 138.379 377.076 138.654 375.379C138.929 373.682 139.663 372.093 140.778 370.785C141.893 369.476 143.345 368.499 144.977 367.958C146.608 367.418 148.357 367.335 150.032 367.719C151.708 368.103 153.246 368.939 154.479 370.137C155.712 371.334 156.594 372.847 157.027 374.51C157.238 375.272 157.349 376.058 157.356 376.849Z" fill="white" stroke="#263238" stroke-linecap="round" stroke-linejoin="round"/>
<path d="M174.185 351.375L160.515 358.735L163.347 363.994L177.017 356.634L174.185 351.375Z" fill="#263238" stroke="#263238" stroke-linecap="round" stroke-linejoin="round"/>
<path d="M179.283 357.205L172.553 360.829L168.249 352.846L174.99 349.212C175.519 348.922 176.101 348.741 176.701 348.679C177.301 348.617 177.907 348.676 178.484 348.852C179.061 349.028 179.597 349.317 180.061 349.703C180.524 350.09 180.906 350.565 181.183 351.1C181.734 352.163 181.844 353.4 181.488 354.543C181.132 355.686 180.34 356.643 179.283 357.205Z" fill="white" stroke="#263238" stroke-linecap="round" stroke-linejoin="round"/>
<path d="M149.78 323.354L149.297 351.199L143.335 351.1L143.807 323.255L149.78 323.354Z" fill="#263238" stroke="#263238" stroke-linecap="round" stroke-linejoin="round"/>
<path d="M151.394 321.674L151.274 329.36L142.204 329.14L142.325 321.454C142.335 320.859 142.462 320.271 142.699 319.725C142.936 319.178 143.279 318.684 143.707 318.27C144.135 317.856 144.641 317.531 145.195 317.312C145.749 317.094 146.341 316.986 146.936 316.997C147.538 317.005 148.132 317.133 148.684 317.374C149.235 317.615 149.733 317.963 150.148 318.399C150.563 318.834 150.887 319.349 151.101 319.911C151.315 320.473 151.415 321.073 151.394 321.674Z" fill="white" stroke="#263238" stroke-linecap="round" stroke-linejoin="round"/>
<path d="M172.091 333.456L158.992 358.029L153.722 355.229L166.81 330.656L172.091 333.456Z" fill="#263238" stroke="#263238" stroke-linecap="round" stroke-linejoin="round"/>
<path d="M174.287 332.698L170.697 339.451L162.692 335.201L166.272 328.438C166.838 327.379 167.8 326.588 168.948 326.236C170.096 325.884 171.336 326.001 172.399 326.56C173.462 327.125 174.258 328.088 174.612 329.239C174.966 330.389 174.849 331.633 174.287 332.698Z" fill="white" stroke="#263238" stroke-linecap="round" stroke-linejoin="round"/>
<path d="M128.61 333.346L141.589 357.985L136.307 360.774L123.329 336.135L128.61 333.346Z" fill="#263238" stroke="#263238" stroke-linecap="round" stroke-linejoin="round"/>
<path d="M140.788 351.21C140.595 350.071 140.069 349.014 139.276 348.173C138.482 347.333 137.457 346.747 136.331 346.489C135.204 346.231 134.026 346.313 132.946 346.725C131.866 347.137 130.933 347.86 130.264 348.803C129.595 349.745 129.221 350.865 129.189 352.02C129.157 353.176 129.468 354.314 130.083 355.293C130.698 356.271 131.59 357.045 132.645 357.516C133.701 357.988 134.872 358.136 136.011 357.941C137.537 357.68 138.896 356.825 139.792 355.564C140.687 354.302 141.045 352.736 140.788 351.21Z" fill="white" stroke="#263238" stroke-linecap="round" stroke-linejoin="round"/>
<path d="M146.497 351.979C149.723 351.979 152.338 349.364 152.338 346.138C152.338 342.911 149.723 340.296 146.497 340.296C143.271 340.296 140.656 342.911 140.656 346.138C140.656 349.364 143.271 351.979 146.497 351.979Z" fill="white" stroke="#263238" stroke-linecap="round" stroke-linejoin="round"/>
<path d="M165.558 349.508C165.734 348.366 165.567 347.198 165.078 346.15C164.59 345.103 163.801 344.224 162.813 343.625C161.825 343.026 160.681 342.733 159.527 342.784C158.372 342.835 157.259 343.228 156.327 343.912C155.396 344.596 154.688 345.541 154.294 346.627C153.9 347.713 153.836 348.892 154.112 350.014C154.388 351.137 154.991 352.152 155.844 352.931C156.697 353.711 157.762 354.22 158.904 354.394C159.662 354.512 160.436 354.478 161.18 354.296C161.925 354.113 162.627 353.786 163.245 353.332C163.863 352.878 164.385 352.307 164.782 351.651C165.179 350.994 165.443 350.266 165.558 349.508Z" fill="white" stroke="#263238" stroke-linecap="round" stroke-linejoin="round"/>
<path d="M129.215 331.095L132.794 337.859L124.779 342.108L121.199 335.333C120.92 334.807 120.747 334.231 120.69 333.638C120.634 333.045 120.695 332.447 120.871 331.877C121.046 331.308 121.332 330.779 121.713 330.321C122.093 329.862 122.56 329.484 123.088 329.206C124.151 328.648 125.393 328.533 126.541 328.887C127.689 329.24 128.65 330.034 129.215 331.095Z" fill="white" stroke="#263238" stroke-linecap="round" stroke-linejoin="round"/>
<path d="M164.438 362.487C164.438 366.855 162.703 371.044 159.614 374.133C156.525 377.222 152.336 378.957 147.968 378.957C147.419 378.957 146.87 378.957 146.354 378.891C143.358 378.594 140.501 377.481 138.093 375.674C135.685 373.867 133.818 371.434 132.696 368.641C131.574 365.847 131.239 362.799 131.727 359.828C132.216 356.858 133.509 354.077 135.467 351.79C137.425 349.503 139.973 347.797 142.832 346.856C145.692 345.915 148.756 345.776 151.689 346.454C154.622 347.133 157.313 348.602 159.47 350.703C161.627 352.803 163.167 355.455 163.922 358.369C164.263 359.715 164.436 361.098 164.438 362.487Z" fill="white" stroke="#263238" stroke-linecap="round" stroke-linejoin="round"/>
<path d="M164.439 362.487C164.439 366.855 162.703 371.044 159.615 374.133C156.526 377.221 152.337 378.957 147.969 378.957C147.42 378.957 146.871 378.957 146.354 378.891C145.723 376.454 145.659 373.905 146.167 371.439C146.675 368.974 147.741 366.658 149.284 364.669C150.827 362.679 152.805 361.07 155.067 359.965C157.328 358.86 159.813 358.288 162.33 358.292C162.868 358.292 163.428 358.292 163.944 358.369C164.278 359.716 164.443 361.099 164.439 362.487Z" fill="white" stroke="#263238" stroke-linecap="round" stroke-linejoin="round"/>
<path d="M247.371 412.029C250.168 400.078 242.747 388.123 230.796 385.326C218.845 382.53 206.89 389.951 204.093 401.902C201.297 413.853 208.718 425.808 220.669 428.604C232.62 431.401 244.575 423.98 247.371 412.029Z" fill="white" stroke="#263238" stroke-linecap="round" stroke-linejoin="round"/>
<path d="M229.861 416.903C235.351 414.613 237.946 408.306 235.656 402.816C233.366 397.325 227.059 394.731 221.568 397.021C216.078 399.311 213.483 405.618 215.773 411.108C218.063 416.599 224.371 419.193 229.861 416.903Z" fill="#263238" stroke="#263238" stroke-linecap="round" stroke-linejoin="round"/>
<path d="M221.908 500.988H320.508L321.925 494.313C322.493 491.646 321.982 488.863 320.505 486.571C319.028 484.279 316.704 482.665 314.041 482.081C300.063 478.941 269.803 477.81 269.803 477.81C262.512 478.04 242.221 478.908 228.243 482.092C225.599 482.696 223.298 484.316 221.839 486.603C220.38 488.89 219.88 491.66 220.447 494.313L221.908 500.988Z" fill="white" stroke="#263238" stroke-linecap="round" stroke-linejoin="round"/>
<path d="M294.936 479.435C282.309 478.271 269.836 477.81 269.836 477.81C265.246 477.952 255.496 478.359 245.416 479.435C248.359 489.481 258.328 496.882 270.176 496.882C282.023 496.882 291.993 489.449 294.936 479.435Z" fill="#92E3A9" stroke="#263238" stroke-linecap="round" stroke-linejoin="round"/>
<path d="M373.161 453.907L379.294 445.688L325.702 405.698L319.568 413.917L373.161 453.907Z" fill="#263238" stroke="#263238" stroke-linecap="round" stroke-linejoin="round"/>
<path d="M346.491 478.171L354.71 484.304L379.249 451.419L371.03 445.285L346.491 478.171Z" fill="#263238" stroke="#263238" stroke-linecap="round" stroke-linejoin="round"/>
<path d="M367.7 442.586C368.439 441.595 369.367 440.759 370.429 440.127C371.492 439.494 372.668 439.077 373.892 438.9C375.116 438.723 376.362 438.788 377.561 439.093C378.759 439.397 379.886 439.935 380.876 440.675L381.59 441.257C382.86 442.416 383.788 443.9 384.273 445.549C384.758 447.198 384.781 448.948 384.341 450.609C383.901 452.271 383.013 453.78 381.775 454.972C380.537 456.164 378.996 456.994 377.319 457.371C375.642 457.748 373.894 457.658 372.264 457.111C370.635 456.564 369.187 455.581 368.077 454.268C366.968 452.956 366.24 451.364 365.972 449.666C365.704 447.968 365.907 446.23 366.558 444.639C366.853 443.91 367.236 443.221 367.7 442.586Z" fill="white" stroke="#263238" stroke-linecap="round" stroke-linejoin="round"/>
<path d="M346.256 468.861C347.648 466.794 349.805 465.364 352.251 464.886C354.697 464.408 357.233 464.922 359.3 466.314C359.553 466.478 359.795 466.665 360.036 466.852C361.362 467.946 362.362 469.383 362.928 471.006C363.494 472.629 363.604 474.376 363.246 476.057C362.888 477.738 362.076 479.289 360.898 480.541C359.72 481.793 358.222 482.698 356.565 483.157C354.909 483.617 353.158 483.613 351.504 483.147C349.849 482.681 348.354 481.77 347.182 480.513C346.009 479.256 345.203 477.702 344.852 476.019C344.501 474.337 344.619 472.59 345.191 470.969C345.457 470.225 345.815 469.517 346.256 468.861Z" fill="white" stroke="#263238" stroke-linecap="round" stroke-linejoin="round"/>
<path d="M318.033 480.624L333.484 482.142L334.068 476.197L318.617 474.679L318.033 480.624Z" fill="#263238" stroke="#263238" stroke-linecap="round" stroke-linejoin="round"/>
<path d="M317.093 472.978L324.713 473.725L323.824 482.751L316.204 482.004C315.007 481.887 313.905 481.3 313.142 480.372C312.378 479.443 312.014 478.249 312.13 477.052C312.25 475.854 312.839 474.753 313.769 473.989C314.7 473.226 315.895 472.862 317.093 472.978Z" fill="white" stroke="#263238" stroke-linecap="round" stroke-linejoin="round"/>
<path d="M332.356 476.821C333.562 475.023 335.112 473.48 336.916 472.282C338.72 471.083 340.742 470.252 342.867 469.835C344.993 469.419 347.18 469.426 349.302 469.857C351.425 470.287 353.442 471.131 355.238 472.342C355.688 472.649 356.116 472.967 356.533 473.308C358.855 475.226 360.606 477.744 361.596 480.588C362.586 483.432 362.778 486.493 362.15 489.439C361.522 492.384 360.098 495.101 358.034 497.293C355.97 499.486 353.344 501.071 350.442 501.875C347.54 502.68 344.473 502.673 341.574 501.856C338.675 501.039 336.056 499.443 334.002 497.242C331.947 495.04 330.535 492.318 329.919 489.37C329.304 486.422 329.509 483.361 330.511 480.522C330.965 479.215 331.585 477.971 332.356 476.821Z" fill="white" stroke="#263238" stroke-linecap="round" stroke-linejoin="round"/>
<path d="M314.612 493.928L335.035 478.655L338.318 483.036L317.895 498.298L314.612 493.928Z" fill="#263238" stroke="#263238" stroke-linecap="round" stroke-linejoin="round"/>
<path d="M312.493 493.698L318.104 489.448L323.089 496.036L317.478 500.242C316.597 500.901 315.49 501.184 314.401 501.027C313.312 500.871 312.329 500.288 311.669 499.407C311.037 498.536 310.769 497.452 310.923 496.385C311.077 495.319 311.64 494.355 312.493 493.698Z" fill="white" stroke="#263238" stroke-linecap="round" stroke-linejoin="round"/>
<path d="M340.986 483.366C341.245 482.238 341.164 481.059 340.752 479.977C340.34 478.896 339.617 477.961 338.673 477.291C337.729 476.622 336.608 476.248 335.451 476.216C334.295 476.185 333.155 476.498 332.176 477.115C331.198 477.733 330.424 478.627 329.955 479.684C329.485 480.742 329.34 481.915 329.538 483.055C329.736 484.195 330.268 485.251 331.067 486.088C331.865 486.925 332.895 487.506 334.024 487.758C335.529 488.092 337.106 487.819 338.41 486.996C339.714 486.173 340.64 484.868 340.986 483.366Z" fill="white" stroke="#263238" stroke-linecap="round" stroke-linejoin="round"/>
<path d="M351.812 509.278L354.843 488.328L359.333 488.965L356.314 509.915L351.812 509.278Z" fill="#263238" stroke="#263238" stroke-linecap="round" stroke-linejoin="round"/>
<path d="M350.44 510.387L351.263 504.623L358.082 505.6L357.258 511.354C357.195 511.802 357.044 512.234 356.814 512.624C356.583 513.014 356.279 513.355 355.917 513.627C355.555 513.899 355.143 514.097 354.704 514.21C354.265 514.323 353.809 514.349 353.36 514.285C352.457 514.155 351.641 513.671 351.094 512.94C350.546 512.209 350.311 511.291 350.44 510.387Z" fill="white" stroke="#263238" stroke-linecap="round" stroke-linejoin="round"/>
<path d="M361.09 487.593C360.573 486.787 359.829 486.153 358.952 485.77C358.075 485.387 357.104 485.273 356.162 485.442C355.22 485.61 354.349 486.055 353.659 486.718C352.969 487.381 352.491 488.234 352.286 489.169C352.08 490.104 352.157 491.079 352.505 491.97C352.853 492.862 353.458 493.63 354.243 494.178C355.027 494.726 355.957 495.029 356.914 495.049C357.871 495.069 358.812 494.805 359.619 494.291C360.701 493.597 361.464 492.502 361.74 491.246C362.016 489.99 361.782 488.676 361.09 487.593Z" fill="white" stroke="#263238" stroke-linecap="round" stroke-linejoin="round"/>
<path d="M331.598 506.489L345.213 484.925L349.835 487.823L336.231 509.399L331.598 506.489Z" fill="#263238" stroke="#263238" stroke-linecap="round" stroke-linejoin="round"/>
<path d="M329.545 507.016L333.267 501.087L340.305 505.479L336.572 511.419C335.984 512.349 335.053 513.008 333.981 513.253C332.909 513.497 331.784 513.308 330.851 512.726C329.923 512.141 329.264 511.211 329.019 510.141C328.774 509.071 328.963 507.948 329.545 507.016Z" fill="white" stroke="#263238" stroke-linecap="round" stroke-linejoin="round"/>
<path d="M352.471 487.187C352.308 486.043 351.809 484.974 351.038 484.114C350.266 483.255 349.257 482.644 348.138 482.359C347.019 482.074 345.84 482.127 344.751 482.513C343.663 482.899 342.713 483.599 342.023 484.525C341.333 485.452 340.934 486.562 340.876 487.715C340.817 488.869 341.103 490.014 341.697 491.004C342.29 491.995 343.164 492.787 344.209 493.281C345.253 493.774 346.42 493.946 347.563 493.775C349.086 493.549 350.458 492.729 351.378 491.495C352.298 490.26 352.691 488.711 352.471 487.187Z" fill="white" stroke="#263238" stroke-linecap="round" stroke-linejoin="round"/>
<path d="M327.248 426.038C337.568 419.395 340.549 405.643 333.906 395.322C327.262 385.002 313.51 382.021 303.19 388.665C292.87 395.308 289.889 409.06 296.532 419.38C303.176 429.7 316.927 432.681 327.248 426.038Z" fill="white" stroke="#263238" stroke-linecap="round" stroke-linejoin="round"/>
<path d="M325.019 411.85C327.499 406.443 325.126 400.049 319.719 397.569C314.312 395.089 307.918 397.461 305.438 402.869C302.957 408.276 305.33 414.67 310.737 417.15C316.145 419.63 322.539 417.257 325.019 411.85Z" fill="#263238" stroke="#263238" stroke-linecap="round" stroke-linejoin="round"/>
<path d="M270.165 363.31C289.879 363.31 305.861 347.329 305.861 327.614C305.861 307.9 289.879 291.918 270.165 291.918C250.45 291.918 234.469 307.9 234.469 327.614C234.469 347.329 250.45 363.31 270.165 363.31Z" fill="#92E3A9" stroke="#263238" stroke-linecap="round" stroke-linejoin="round"/>
<path d="M321.2 351.386C328.866 341.775 333.664 330.195 335.041 317.979C336.418 305.762 334.319 293.405 328.986 282.328C323.652 271.251 315.3 261.905 304.891 255.364C294.481 248.823 282.437 245.353 270.143 245.353C257.849 245.353 245.805 248.823 235.395 255.364C224.986 261.905 216.634 271.251 211.3 282.328C205.967 293.405 203.868 305.762 205.245 317.979C206.622 330.195 211.42 341.775 219.086 351.386H321.2Z" fill="white" stroke="#263238" stroke-linecap="round" stroke-linejoin="round"/>
<path d="M310.11 286.011H228.572C223.612 286.011 219.591 290.032 219.591 294.993V323.892C219.591 328.852 223.612 332.874 228.572 332.874H310.11C315.07 332.874 319.092 328.852 319.092 323.892V294.993C319.092 290.032 315.07 286.011 310.11 286.011Z" fill="#92E3A9" stroke="#263238" stroke-linecap="round" stroke-linejoin="round"/>
<path d="M230.351 307.543C231.429 304.524 233.395 301.9 235.99 300.017C238.584 298.134 241.688 297.079 244.892 296.99C248.097 296.901 251.254 297.782 253.95 299.519C256.645 301.255 258.753 303.765 259.997 306.719" stroke="#263238" stroke-width="5" stroke-linecap="round" stroke-linejoin="round"/>
<path d="M279.531 307.543C280.609 304.524 282.574 301.9 285.169 300.017C287.764 298.134 290.867 297.079 294.072 296.99C297.277 296.901 300.434 297.782 303.129 299.519C305.825 301.255 307.932 303.765 309.177 306.719" stroke="#263238" stroke-width="5" stroke-linecap="round" stroke-linejoin="round"/>
<path d="M261.557 318.402C261.832 320.579 262.893 322.581 264.539 324.033C266.186 325.484 268.305 326.285 270.5 326.285C272.695 326.285 274.814 325.484 276.46 324.033C278.107 322.581 279.167 320.579 279.443 318.402H261.557Z" fill="white" stroke="#263238" stroke-linecap="round" stroke-linejoin="round"/>
<path d="M354.667 322.113C352.856 322.113 351.119 321.394 349.838 320.113C348.557 318.832 347.837 317.095 347.837 315.284V299.747C347.836 298.849 348.012 297.96 348.354 297.13C348.697 296.3 349.2 295.546 349.834 294.911C350.468 294.275 351.222 293.771 352.051 293.427C352.88 293.083 353.769 292.906 354.667 292.906C355.565 292.905 356.454 293.081 357.284 293.423C358.114 293.766 358.868 294.269 359.503 294.903C360.139 295.537 360.643 296.291 360.987 297.12C361.33 297.949 361.508 298.838 361.508 299.736V315.273C361.509 316.171 361.333 317.062 360.99 317.892C360.646 318.723 360.143 319.477 359.507 320.113C358.872 320.748 358.117 321.252 357.286 321.596C356.456 321.939 355.566 322.115 354.667 322.113Z" fill="#263238" stroke="#263238" stroke-linecap="round" stroke-linejoin="round"/>
<path d="M183.796 322.113C182.898 322.115 182.009 321.939 181.179 321.597C180.349 321.254 179.595 320.751 178.96 320.117C178.324 319.482 177.82 318.729 177.476 317.9C177.133 317.07 176.956 316.182 176.956 315.284V299.747C176.954 298.848 177.13 297.958 177.473 297.128C177.817 296.297 178.32 295.542 178.956 294.907C179.591 294.271 180.346 293.767 181.177 293.424C182.007 293.081 182.897 292.905 183.796 292.906C184.693 292.906 185.581 293.083 186.41 293.426C187.238 293.77 187.991 294.273 188.625 294.907C189.26 295.541 189.763 296.294 190.106 297.122C190.449 297.951 190.626 298.839 190.626 299.736V315.273C190.627 316.171 190.452 317.06 190.109 317.89C189.766 318.72 189.264 319.474 188.629 320.109C187.995 320.744 187.242 321.248 186.412 321.592C185.583 321.936 184.694 322.113 183.796 322.113Z" fill="#263238" stroke="#263238" stroke-linecap="round" stroke-linejoin="round"/>
<path d="M205.69 252.006C199.649 260.932 196.428 271.467 196.445 282.245V293.532" stroke="#263238" stroke-width="14" stroke-linecap="round" stroke-linejoin="round"/>
<path d="M335.342 252.05C330.399 244.684 323.718 238.649 315.89 234.476C308.062 230.304 299.327 228.122 290.456 228.124H250.544C241.685 228.118 232.961 230.29 225.14 234.449C217.318 238.608 210.639 244.626 205.69 251.973" stroke="#263238" stroke-width="7" stroke-linecap="round" stroke-linejoin="round"/>
<path d="M344.544 293.532V282.245C344.56 271.487 341.356 260.97 335.342 252.05" stroke="#263238" stroke-width="14" stroke-linecap="round" stroke-linejoin="round"/>
<path d="M201.891 281.377H192.734C187.434 281.377 183.137 285.674 183.137 290.974V322.695C183.137 327.995 187.434 332.292 192.734 332.292H201.891C207.191 332.292 211.488 327.995 211.488 322.695V290.974C211.488 285.674 207.191 281.377 201.891 281.377Z" fill="white" stroke="#263238" stroke-linecap="round" stroke-linejoin="round"/>
<path d="M198.762 281.377H195.874V332.292H198.762V281.377Z" fill="#92E3A9" stroke="#263238" stroke-linecap="round" stroke-linejoin="round"/>
<path d="M346.519 281.377H337.362C332.062 281.377 327.766 285.674 327.766 290.974V322.695C327.766 327.995 332.062 332.292 337.362 332.292H346.519C351.819 332.292 356.116 327.995 356.116 322.695V290.974C356.116 285.674 351.819 281.377 346.519 281.377Z" fill="white" stroke="#263238" stroke-linecap="round" stroke-linejoin="round"/>
<path d="M343.39 281.377H340.502V332.292H343.39V281.377Z" fill="#92E3A9" stroke="#263238" stroke-linecap="round" stroke-linejoin="round"/>
<path d="M270.395 276.755C275.397 276.756 280.32 275.505 284.714 273.115C289.108 270.725 292.833 267.273 295.55 263.074L301.743 253.488C291.93 248.069 280.887 245.268 269.677 245.354C258.468 245.441 247.469 248.412 237.741 253.982L247.063 265.555C249.867 269.048 253.419 271.867 257.457 273.805C261.495 275.743 265.916 276.751 270.395 276.755Z" fill="#92E3A9" stroke="#263238" stroke-linecap="round" stroke-linejoin="round"/>
<path d="M271.944 337.617C271.944 337.4 271.879 337.188 271.759 337.007C271.638 336.826 271.466 336.686 271.266 336.603C271.065 336.52 270.844 336.498 270.631 336.54C270.418 336.583 270.223 336.687 270.069 336.841C269.916 336.994 269.811 337.19 269.769 337.403C269.726 337.616 269.748 337.837 269.831 338.037C269.914 338.238 270.055 338.409 270.236 338.53C270.416 338.651 270.628 338.715 270.846 338.715C271.137 338.715 271.416 338.599 271.622 338.393C271.828 338.188 271.944 337.908 271.944 337.617Z" fill="#263238"/>
<path d="M271.944 341.306C271.944 341.089 271.879 340.877 271.759 340.696C271.638 340.516 271.466 340.375 271.266 340.292C271.065 340.209 270.844 340.187 270.631 340.229C270.418 340.272 270.223 340.376 270.069 340.53C269.916 340.683 269.811 340.879 269.769 341.092C269.726 341.305 269.748 341.526 269.831 341.726C269.914 341.927 270.055 342.099 270.236 342.219C270.416 342.34 270.628 342.404 270.846 342.404C271.137 342.404 271.416 342.289 271.622 342.083C271.828 341.877 271.944 341.598 271.944 341.306Z" fill="#263238"/>
<path d="M267.76 340.735C267.961 340.606 268.113 340.415 268.195 340.19C268.278 339.966 268.284 339.722 268.215 339.493C268.145 339.265 268.003 339.065 267.81 338.925C267.617 338.784 267.384 338.711 267.145 338.715C266.945 338.845 266.792 339.036 266.71 339.26C266.627 339.484 266.621 339.729 266.69 339.957C266.76 340.186 266.902 340.385 267.095 340.525C267.288 340.666 267.521 340.74 267.76 340.735Z" fill="#263238"/>
<path d="M274.359 340.735C274.529 340.732 274.696 340.69 274.846 340.612C274.997 340.533 275.128 340.421 275.228 340.283C275.328 340.146 275.394 339.987 275.422 339.82C275.451 339.652 275.44 339.48 275.39 339.318C275.341 339.155 275.254 339.006 275.137 338.883C275.021 338.76 274.877 338.665 274.717 338.607C274.558 338.548 274.387 338.527 274.218 338.546C274.049 338.565 273.887 338.623 273.744 338.715C273.574 338.718 273.407 338.76 273.257 338.839C273.106 338.917 272.976 339.03 272.876 339.167C272.776 339.304 272.709 339.463 272.681 339.631C272.653 339.798 272.664 339.97 272.713 340.133C272.763 340.295 272.849 340.444 272.966 340.567C273.083 340.691 273.226 340.785 273.386 340.844C273.545 340.902 273.716 340.923 273.885 340.904C274.054 340.885 274.216 340.827 274.359 340.735Z" fill="#263238"/>
<path d="M314.041 378.814C300.064 375.663 269.803 374.532 269.803 374.532C262.512 374.762 242.221 375.63 228.243 378.825C225.597 379.426 223.295 381.046 221.835 383.334C220.376 385.622 219.877 388.393 220.448 391.046L233.393 451.611C234.029 454.548 235.65 457.179 237.986 459.068C240.323 460.958 243.235 461.991 246.24 461.998H296.144C299.148 461.991 302.061 460.958 304.397 459.068C306.734 457.179 308.354 454.548 308.99 451.611L321.925 391.046C322.493 388.379 321.982 385.596 320.505 383.304C319.028 381.012 316.704 379.398 314.041 378.814Z" fill="white" stroke="#263238" stroke-linecap="round" stroke-linejoin="round"/>
<path d="M307.672 377.65C292.509 375.388 269.835 374.532 269.835 374.532C258.734 374.85 247.657 375.766 236.654 377.277L251.323 461.998H291.191L307.672 377.65Z" fill="#92E3A9" stroke="#263238" stroke-linecap="round" stroke-linejoin="round"/>
<path d="M282.924 392.945H258.636C253.676 392.945 249.654 396.966 249.654 401.927V413.785C249.654 418.746 253.676 422.767 258.636 422.767H282.924C287.884 422.767 291.905 418.746 291.905 413.785V401.927C291.905 396.966 287.884 392.945 282.924 392.945Z" fill="white" stroke="#263238" stroke-linecap="round" stroke-linejoin="round"/>
<path d="M263.687 405.232H256.846V412.072H263.687V405.232Z" fill="white" stroke="#263238" stroke-linecap="round" stroke-linejoin="round"/>
<path d="M274.195 405.232H267.354V412.072H274.195V405.232Z" fill="white" stroke="#263238" stroke-linecap="round" stroke-linejoin="round"/>
<path d="M284.713 405.232H277.873V412.072H284.713V405.232Z" fill="white" stroke="#263238" stroke-linecap="round" stroke-linejoin="round"/>
</svg>
