<svg width="549" height="618" viewBox="0 0 549 618" fill="none" xmlns="http://www.w3.org/2000/svg">
<path d="M228.156 44.3028C226.102 44.3028 224.262 43.9695 222.636 43.3028C221.009 42.6362 219.702 41.6495 218.716 40.3428C217.756 39.0362 217.249 37.4628 217.196 35.6228H224.476C224.582 36.6628 224.942 37.4628 225.556 38.0228C226.169 38.5562 226.969 38.8228 227.956 38.8228C228.969 38.8228 229.769 38.5962 230.356 38.1428C230.942 37.6628 231.236 37.0095 231.236 36.1828C231.236 35.4895 230.996 34.9162 230.516 34.4628C230.062 34.0095 229.489 33.6362 228.796 33.3428C228.129 33.0495 227.169 32.7162 225.916 32.3428C224.102 31.7828 222.622 31.2228 221.476 30.6628C220.329 30.1028 219.342 29.2762 218.516 28.1828C217.689 27.0895 217.276 25.6628 217.276 23.9028C217.276 21.2895 218.222 19.2495 220.116 17.7828C222.009 16.2895 224.476 15.5428 227.516 15.5428C230.609 15.5428 233.102 16.2895 234.996 17.7828C236.889 19.2495 237.902 21.3028 238.036 23.9428H230.636C230.582 23.0362 230.249 22.3295 229.636 21.8228C229.022 21.2895 228.236 21.0228 227.276 21.0228C226.449 21.0228 225.782 21.2495 225.276 21.7028C224.769 22.1295 224.516 22.7562 224.516 23.5828C224.516 24.4895 224.942 25.1962 225.796 25.7028C226.649 26.2095 227.982 26.7562 229.796 27.3428C231.609 27.9562 233.076 28.5428 234.196 29.1028C235.342 29.6628 236.329 30.4762 237.156 31.5428C237.982 32.6095 238.396 33.9828 238.396 35.6628C238.396 37.2628 237.982 38.7162 237.156 40.0228C236.356 41.3295 235.182 42.3695 233.636 43.1428C232.089 43.9162 230.262 44.3028 228.156 44.3028ZM263.645 32.5028C263.645 33.1428 263.605 33.8095 263.525 34.5028H248.045C248.152 35.8895 248.592 36.9562 249.365 37.7028C250.165 38.4228 251.138 38.7828 252.285 38.7828C253.992 38.7828 255.178 38.0628 255.845 36.6228H263.125C262.752 38.0895 262.072 39.4095 261.085 40.5828C260.125 41.7562 258.912 42.6762 257.445 43.3428C255.978 44.0095 254.338 44.3428 252.525 44.3428C250.338 44.3428 248.392 43.8762 246.685 42.9428C244.978 42.0095 243.645 40.6762 242.685 38.9428C241.725 37.2095 241.245 35.1828 241.245 32.8628C241.245 30.5428 241.712 28.5162 242.645 26.7828C243.605 25.0495 244.938 23.7162 246.645 22.7828C248.352 21.8495 250.312 21.3828 252.525 21.3828C254.685 21.3828 256.605 21.8362 258.285 22.7428C259.965 23.6495 261.272 24.9428 262.205 26.6228C263.165 28.3028 263.645 30.2628 263.645 32.5028ZM256.645 30.7028C256.645 29.5295 256.245 28.5962 255.445 27.9028C254.645 27.2095 253.645 26.8628 252.445 26.8628C251.298 26.8628 250.325 27.1962 249.525 27.8628C248.752 28.5295 248.272 29.4762 248.085 30.7028H256.645ZM274.093 25.4228C274.893 24.1962 275.893 23.2362 277.093 22.5428C278.293 21.8228 279.627 21.4628 281.093 21.4628V28.7028H279.213C277.507 28.7028 276.227 29.0762 275.373 29.8228C274.52 30.5428 274.093 31.8228 274.093 33.6628V44.0228H267.253V21.7028H274.093V25.4228ZM305.403 32.5028C305.403 33.1428 305.363 33.8095 305.283 34.5028H289.803C289.909 35.8895 290.349 36.9562 291.123 37.7028C291.923 38.4228 292.896 38.7828 294.043 38.7828C295.749 38.7828 296.936 38.0628 297.603 36.6228H304.883C304.509 38.0895 303.829 39.4095 302.843 40.5828C301.883 41.7562 300.669 42.6762 299.203 43.3428C297.736 44.0095 296.096 44.3428 294.283 44.3428C292.096 44.3428 290.149 43.8762 288.443 42.9428C286.736 42.0095 285.403 40.6762 284.443 38.9428C283.483 37.2095 283.003 35.1828 283.003 32.8628C283.003 30.5428 283.469 28.5162 284.403 26.7828C285.363 25.0495 286.696 23.7162 288.403 22.7828C290.109 21.8495 292.069 21.3828 294.283 21.3828C296.443 21.3828 298.363 21.8362 300.043 22.7428C301.723 23.6495 303.029 24.9428 303.963 26.6228C304.923 28.3028 305.403 30.2628 305.403 32.5028ZM298.403 30.7028C298.403 29.5295 298.003 28.5962 297.203 27.9028C296.403 27.2095 295.403 26.8628 294.203 26.8628C293.056 26.8628 292.083 27.1962 291.283 27.8628C290.509 28.5295 290.029 29.4762 289.843 30.7028H298.403ZM322.611 21.4628C325.225 21.4628 327.305 22.3162 328.851 24.0228C330.425 25.7028 331.211 28.0228 331.211 30.9828V44.0228H324.411V31.9028C324.411 30.4095 324.025 29.2495 323.251 28.4228C322.478 27.5962 321.438 27.1828 320.131 27.1828C318.825 27.1828 317.785 27.5962 317.011 28.4228C316.238 29.2495 315.851 30.4095 315.851 31.9028V44.0228H309.011V21.7028H315.851V24.6628C316.545 23.6762 317.478 22.9028 318.651 22.3428C319.825 21.7562 321.145 21.4628 322.611 21.4628Z" fill="#1B4332"/>
<path d="M465.244 244.23C465.244 244.23 446.721 169.939 334.582 123.088C222.444 76.2359 122.12 119.629 99.2482 174.529C76.3768 229.429 100.346 259.075 85.084 305.959C69.8218 352.844 -8.5864 412.224 23.058 484.231C54.7023 556.238 202.779 576.803 322.603 561.947C442.428 547.091 536.044 382.512 465.244 244.23Z" fill="#92E3A9"/>
<path opacity="0.7" d="M465.244 244.23C465.244 244.23 446.721 169.939 334.582 123.088C222.444 76.2359 122.12 119.629 99.2482 174.529C76.3768 229.429 100.346 259.075 85.084 305.959C69.8218 352.844 -8.5864 412.224 23.058 484.231C54.7023 556.238 202.779 576.803 322.603 561.947C442.428 547.091 536.044 382.512 465.244 244.23Z" fill="white"/>
<path d="M263.533 141.534H172.399C169.487 141.534 166.694 142.691 164.635 144.75C162.576 146.809 161.419 149.602 161.419 152.514V186.552C161.419 189.464 162.576 192.257 164.635 194.316C166.694 196.375 169.487 197.532 172.399 197.532H262.984L274.513 212.904V152.514C274.513 149.602 273.356 146.809 271.297 144.75C269.238 142.691 266.445 141.534 263.533 141.534Z" fill="#263238"/>
<path d="M181.26 179.009H177.966V158.147H181.26V167.074H184.971V158.147H188.265V179.009H184.971V170.082H181.26V179.009Z" fill="#92E3A9"/>
<path d="M190.691 158.18H193.985V179.042H190.691V158.18Z" fill="#92E3A9"/>
<path d="M200.002 158.18H210.115V161.156H206.689V179.009H203.395V161.156H199.98L200.002 158.18Z" fill="#92E3A9"/>
<path d="M214.815 179.009H211.521V158.147H214.815V167.074H218.515V158.147H221.809V179.009H218.515V170.082H214.793L214.815 179.009Z" fill="#92E3A9"/>
<path d="M227.519 166.953H232.009V169.929H227.519V176.033H233.173V179.009H224.247V158.147H233.173V161.123H227.519V166.953Z" fill="#92E3A9"/>
<path d="M242.034 179.009C241.765 178.185 241.665 177.315 241.737 176.451V173.157C241.737 171.224 241.09 170.511 239.541 170.511H238.443V178.987H235.149V158.125H240.09C243.483 158.125 244.944 159.706 244.944 162.912V164.548C244.944 166.689 244.252 168.095 242.748 168.776C244.384 169.467 244.944 171.038 244.944 173.168V176.385C244.884 177.243 245.008 178.104 245.306 178.91L242.034 179.009ZM238.465 161.156V167.557H239.75C240.969 167.557 241.715 167.019 241.715 165.361V163.297C241.715 161.814 241.21 161.101 240.047 161.101L238.465 161.156Z" fill="#92E3A9"/>
<path d="M250.434 166.953H254.925V169.929H250.434V176.033H256.078V179.009H247.151V158.147H256.078V161.123H250.434V166.953Z" fill="#92E3A9"/>
<path d="M258.526 174.397L258.109 166.865V158.18H261.403V166.865L260.986 174.397H258.526ZM261.315 175.858V179.009H258.164V175.858H261.315Z" fill="#92E3A9"/>
<path d="M278.553 366.91H261.776V512.724H278.553V366.91Z" fill="#263238" stroke="#263238" stroke-linecap="round" stroke-linejoin="round"/>
<path d="M145.52 419.713V429.968H212.388V419.713H145.52Z" fill="#263238" stroke="#263238" stroke-linecap="round" stroke-linejoin="round"/>
<path d="M152.394 384.313H142.138V425.345H152.394V384.313Z" fill="#263238" stroke="#263238" stroke-linecap="round" stroke-linejoin="round"/>
<path d="M156.665 425.521C156.665 426.755 156.422 427.976 155.949 429.116C155.477 430.256 154.784 431.291 153.911 432.163C153.038 433.035 152.002 433.726 150.862 434.197C149.722 434.669 148.5 434.91 147.266 434.909C146.958 434.909 146.651 434.909 146.355 434.909C144.644 434.74 143.013 434.105 141.639 433.074C140.264 432.042 139.198 430.654 138.558 429.059C137.917 427.465 137.726 425.725 138.005 424.029C138.284 422.334 139.023 420.747 140.141 419.442C141.259 418.136 142.713 417.163 144.346 416.626C145.978 416.09 147.727 416.011 149.401 416.399C151.075 416.787 152.611 417.627 153.841 418.826C155.071 420.026 155.949 421.54 156.379 423.204C156.567 423.962 156.663 424.74 156.665 425.521Z" fill="white" stroke="#263238" stroke-linecap="round" stroke-linejoin="round"/>
<path d="M157.356 390.638C157.351 393.128 156.358 395.514 154.597 397.273C152.835 399.033 150.448 400.023 147.958 400.026C147.65 400.026 147.343 400.026 147.035 400.026C145.324 399.861 143.691 399.231 142.313 398.204C140.935 397.176 139.866 395.791 139.22 394.197C138.575 392.604 138.379 390.865 138.654 389.168C138.929 387.471 139.663 385.882 140.778 384.574C141.893 383.265 143.345 382.288 144.977 381.747C146.608 381.207 148.357 381.124 150.032 381.508C151.708 381.892 153.246 382.729 154.479 383.926C155.712 385.123 156.594 386.636 157.027 388.299C157.238 389.061 157.349 389.847 157.356 390.638Z" fill="white" stroke="#263238" stroke-linecap="round" stroke-linejoin="round"/>
<path d="M174.185 365.164L160.515 372.524L163.347 377.783L177.017 370.423L174.185 365.164Z" fill="#263238" stroke="#263238" stroke-linecap="round" stroke-linejoin="round"/>
<path d="M179.283 370.994L172.553 374.618L168.249 366.635L174.99 363.001C175.519 362.711 176.101 362.53 176.701 362.468C177.301 362.406 177.907 362.465 178.484 362.641C179.061 362.817 179.597 363.106 180.061 363.492C180.524 363.879 180.906 364.354 181.183 364.889C181.734 365.952 181.844 367.189 181.488 368.332C181.132 369.475 180.34 370.432 179.283 370.994Z" fill="white" stroke="#263238" stroke-linecap="round" stroke-linejoin="round"/>
<path d="M149.78 337.143L149.297 364.988L143.335 364.889L143.807 337.044L149.78 337.143Z" fill="#263238" stroke="#263238" stroke-linecap="round" stroke-linejoin="round"/>
<path d="M151.394 335.463L151.274 343.149L142.204 342.929L142.325 335.243C142.335 334.648 142.462 334.06 142.699 333.514C142.936 332.967 143.279 332.473 143.707 332.059C144.135 331.645 144.641 331.32 145.195 331.101C145.749 330.883 146.341 330.775 146.936 330.786C147.538 330.794 148.132 330.922 148.684 331.163C149.235 331.404 149.733 331.752 150.148 332.188C150.563 332.623 150.887 333.138 151.101 333.7C151.315 334.262 151.415 334.862 151.394 335.463Z" fill="white" stroke="#263238" stroke-linecap="round" stroke-linejoin="round"/>
<path d="M172.091 347.245L158.992 371.818L153.722 369.018L166.81 344.445L172.091 347.245Z" fill="#263238" stroke="#263238" stroke-linecap="round" stroke-linejoin="round"/>
<path d="M174.287 346.487L170.697 353.24L162.692 348.99L166.272 342.227C166.838 341.168 167.8 340.377 168.948 340.025C170.096 339.673 171.336 339.79 172.399 340.349C173.462 340.914 174.258 341.877 174.612 343.028C174.966 344.178 174.849 345.422 174.287 346.487Z" fill="white" stroke="#263238" stroke-linecap="round" stroke-linejoin="round"/>
<path d="M128.61 347.135L141.589 371.774L136.307 374.563L123.329 349.924L128.61 347.135Z" fill="#263238" stroke="#263238" stroke-linecap="round" stroke-linejoin="round"/>
<path d="M140.788 364.999C140.595 363.86 140.069 362.803 139.276 361.962C138.482 361.122 137.457 360.536 136.331 360.278C135.204 360.02 134.026 360.102 132.946 360.514C131.866 360.926 130.933 361.649 130.264 362.592C129.595 363.534 129.221 364.654 129.189 365.809C129.157 366.965 129.468 368.103 130.083 369.082C130.698 370.06 131.59 370.834 132.645 371.305C133.701 371.777 134.872 371.925 136.011 371.73C137.537 371.469 138.896 370.614 139.792 369.353C140.687 368.091 141.045 366.525 140.788 364.999Z" fill="white" stroke="#263238" stroke-linecap="round" stroke-linejoin="round"/>
<path d="M146.497 365.768C149.723 365.768 152.338 363.153 152.338 359.927C152.338 356.7 149.723 354.085 146.497 354.085C143.271 354.085 140.656 356.7 140.656 359.927C140.656 363.153 143.271 365.768 146.497 365.768Z" fill="white" stroke="#263238" stroke-linecap="round" stroke-linejoin="round"/>
<path d="M165.558 363.297C165.734 362.155 165.567 360.987 165.078 359.939C164.59 358.892 163.801 358.013 162.813 357.414C161.825 356.815 160.681 356.522 159.527 356.573C158.372 356.624 157.259 357.017 156.327 357.701C155.396 358.385 154.688 359.33 154.294 360.416C153.9 361.502 153.836 362.681 154.112 363.803C154.388 364.926 154.991 365.941 155.844 366.72C156.697 367.5 157.762 368.009 158.904 368.183C159.662 368.301 160.436 368.267 161.18 368.085C161.925 367.902 162.627 367.575 163.245 367.121C163.863 366.667 164.385 366.096 164.782 365.44C165.179 364.783 165.443 364.055 165.558 363.297Z" fill="white" stroke="#263238" stroke-linecap="round" stroke-linejoin="round"/>
<path d="M129.215 344.884L132.794 351.648L124.779 355.897L121.199 349.122C120.92 348.596 120.747 348.02 120.69 347.427C120.634 346.834 120.695 346.236 120.871 345.666C121.046 345.097 121.332 344.568 121.713 344.11C122.093 343.651 122.56 343.273 123.088 342.995C124.151 342.437 125.393 342.322 126.541 342.676C127.689 343.029 128.65 343.823 129.215 344.884Z" fill="white" stroke="#263238" stroke-linecap="round" stroke-linejoin="round"/>
<path d="M164.438 376.276C164.438 380.644 162.703 384.833 159.614 387.922C156.525 391.011 152.336 392.746 147.968 392.746C147.419 392.746 146.87 392.746 146.354 392.68C143.358 392.383 140.501 391.27 138.093 389.463C135.685 387.656 133.818 385.223 132.696 382.43C131.574 379.636 131.239 376.588 131.727 373.617C132.216 370.647 133.509 367.866 135.467 365.579C137.425 363.292 139.973 361.586 142.832 360.645C145.692 359.704 148.756 359.565 151.689 360.243C154.622 360.922 157.313 362.391 159.47 364.492C161.627 366.592 163.167 369.244 163.922 372.158C164.263 373.504 164.436 374.887 164.438 376.276Z" fill="white" stroke="#263238" stroke-linecap="round" stroke-linejoin="round"/>
<path d="M164.439 376.276C164.439 380.644 162.703 384.833 159.615 387.922C156.526 391.01 152.337 392.746 147.969 392.746C147.42 392.746 146.871 392.746 146.354 392.68C145.723 390.243 145.659 387.694 146.167 385.228C146.675 382.763 147.741 380.447 149.284 378.458C150.827 376.468 152.805 374.859 155.067 373.754C157.328 372.649 159.813 372.077 162.33 372.081C162.868 372.081 163.428 372.081 163.944 372.158C164.278 373.505 164.443 374.888 164.439 376.276Z" fill="white" stroke="#263238" stroke-linecap="round" stroke-linejoin="round"/>
<path d="M247.371 425.818C250.168 413.867 242.747 401.912 230.796 399.115C218.845 396.319 206.89 403.74 204.093 415.691C201.297 427.642 208.718 439.597 220.669 442.393C232.62 445.19 244.575 437.769 247.371 425.818Z" fill="white" stroke="#263238" stroke-linecap="round" stroke-linejoin="round"/>
<path d="M229.861 430.692C235.351 428.402 237.946 422.095 235.656 416.605C233.366 411.114 227.059 408.52 221.568 410.81C216.078 413.1 213.483 419.407 215.773 424.897C218.063 430.388 224.371 432.982 229.861 430.692Z" fill="#263238" stroke="#263238" stroke-linecap="round" stroke-linejoin="round"/>
<path d="M221.908 514.777H320.508L321.925 508.102C322.493 505.435 321.982 502.652 320.505 500.36C319.028 498.068 316.704 496.454 314.041 495.87C300.063 492.73 269.803 491.599 269.803 491.599C262.512 491.829 242.221 492.697 228.243 495.881C225.599 496.485 223.298 498.105 221.839 500.392C220.38 502.679 219.88 505.449 220.447 508.102L221.908 514.777Z" fill="white" stroke="#263238" stroke-linecap="round" stroke-linejoin="round"/>
<path d="M294.936 493.224C282.309 492.06 269.836 491.599 269.836 491.599C265.246 491.741 255.496 492.148 245.416 493.224C248.359 503.27 258.328 510.671 270.176 510.671C282.023 510.671 291.993 503.237 294.936 493.224Z" fill="#92E3A9" stroke="#263238" stroke-linecap="round" stroke-linejoin="round"/>
<path d="M373.161 467.696L379.294 459.477L325.702 419.487L319.568 427.706L373.161 467.696Z" fill="#263238" stroke="#263238" stroke-linecap="round" stroke-linejoin="round"/>
<path d="M346.491 491.96L354.71 498.094L379.249 465.208L371.03 459.075L346.491 491.96Z" fill="#263238" stroke="#263238" stroke-linecap="round" stroke-linejoin="round"/>
<path d="M367.7 456.375C368.439 455.384 369.367 454.548 370.429 453.916C371.492 453.283 372.668 452.866 373.892 452.689C375.116 452.512 376.362 452.577 377.561 452.882C378.759 453.186 379.886 453.724 380.876 454.464L381.59 455.046C382.86 456.205 383.788 457.689 384.273 459.338C384.758 460.987 384.781 462.737 384.341 464.398C383.901 466.06 383.013 467.569 381.775 468.761C380.537 469.953 378.996 470.783 377.319 471.16C375.642 471.537 373.894 471.448 372.264 470.9C370.635 470.353 369.187 469.37 368.077 468.057C366.968 466.745 366.24 465.153 365.972 463.455C365.704 461.757 365.907 460.019 366.558 458.428C366.853 457.699 367.236 457.01 367.7 456.375Z" fill="white" stroke="#263238" stroke-linecap="round" stroke-linejoin="round"/>
<path d="M346.256 482.65C347.648 480.583 349.805 479.153 352.251 478.675C354.697 478.197 357.233 478.711 359.3 480.103C359.553 480.267 359.795 480.454 360.036 480.641C361.362 481.735 362.362 483.172 362.928 484.795C363.494 486.418 363.604 488.165 363.246 489.846C362.888 491.527 362.076 493.078 360.898 494.33C359.72 495.582 358.222 496.487 356.565 496.946C354.909 497.406 353.158 497.402 351.504 496.936C349.849 496.47 348.354 495.559 347.182 494.302C346.009 493.045 345.203 491.491 344.852 489.808C344.501 488.126 344.619 486.379 345.191 484.758C345.457 484.014 345.815 483.306 346.256 482.65Z" fill="white" stroke="#263238" stroke-linecap="round" stroke-linejoin="round"/>
<path d="M318.033 494.413L333.484 495.931L334.068 489.986L318.617 488.469L318.033 494.413Z" fill="#263238" stroke="#263238" stroke-linecap="round" stroke-linejoin="round"/>
<path d="M317.093 486.767L324.713 487.514L323.824 496.54L316.204 495.793C315.007 495.676 313.905 495.089 313.142 494.161C312.378 493.232 312.014 492.038 312.13 490.841C312.25 489.643 312.839 488.542 313.769 487.778C314.7 487.015 315.895 486.651 317.093 486.767Z" fill="white" stroke="#263238" stroke-linecap="round" stroke-linejoin="round"/>
<path d="M332.356 490.61C333.562 488.812 335.112 487.269 336.916 486.071C338.72 484.872 340.742 484.041 342.867 483.624C344.993 483.208 347.18 483.215 349.302 483.646C351.425 484.076 353.442 484.92 355.238 486.131C355.688 486.438 356.116 486.756 356.533 487.097C358.855 489.015 360.606 491.533 361.596 494.377C362.586 497.221 362.778 500.282 362.15 503.228C361.522 506.173 360.098 508.89 358.034 511.082C355.97 513.275 353.344 514.86 350.442 515.664C347.54 516.469 344.473 516.462 341.574 515.645C338.675 514.828 336.056 513.232 334.002 511.031C331.947 508.829 330.535 506.107 329.919 503.159C329.304 500.211 329.509 497.15 330.511 494.311C330.965 493.004 331.585 491.76 332.356 490.61Z" fill="white" stroke="#263238" stroke-linecap="round" stroke-linejoin="round"/>
<path d="M314.612 507.717L335.035 492.444L338.318 496.825L317.895 512.087L314.612 507.717Z" fill="#263238" stroke="#263238" stroke-linecap="round" stroke-linejoin="round"/>
<path d="M312.493 507.487L318.104 503.237L323.089 509.825L317.478 514.031C316.597 514.69 315.49 514.973 314.401 514.816C313.312 514.66 312.329 514.077 311.669 513.196C311.037 512.325 310.769 511.241 310.923 510.174C311.077 509.108 311.64 508.144 312.493 507.487Z" fill="white" stroke="#263238" stroke-linecap="round" stroke-linejoin="round"/>
<path d="M340.986 497.155C341.245 496.027 341.164 494.848 340.752 493.766C340.34 492.685 339.617 491.75 338.673 491.081C337.729 490.411 336.608 490.037 335.451 490.005C334.295 489.974 333.155 490.287 332.176 490.904C331.198 491.522 330.424 492.416 329.955 493.473C329.485 494.531 329.34 495.704 329.538 496.844C329.736 497.984 330.268 499.04 331.067 499.877C331.865 500.714 332.895 501.295 334.024 501.547C335.529 501.881 337.106 501.608 338.41 500.785C339.714 499.962 340.64 498.657 340.986 497.155Z" fill="white" stroke="#263238" stroke-linecap="round" stroke-linejoin="round"/>
<path d="M351.812 523.067L354.843 502.118L359.333 502.754L356.314 523.704L351.812 523.067Z" fill="#263238" stroke="#263238" stroke-linecap="round" stroke-linejoin="round"/>
<path d="M350.44 524.176L351.263 518.412L358.082 519.389L357.258 525.143C357.195 525.591 357.044 526.023 356.814 526.413C356.583 526.803 356.279 527.144 355.917 527.416C355.555 527.688 355.143 527.887 354.704 527.999C354.265 528.112 353.809 528.138 353.36 528.074C352.457 527.944 351.641 527.46 351.094 526.729C350.546 525.999 350.311 525.08 350.44 524.176Z" fill="white" stroke="#263238" stroke-linecap="round" stroke-linejoin="round"/>
<path d="M361.09 501.382C360.573 500.576 359.829 499.942 358.952 499.559C358.075 499.176 357.104 499.062 356.162 499.231C355.22 499.4 354.349 499.844 353.659 500.507C352.969 501.17 352.491 502.023 352.286 502.958C352.08 503.893 352.157 504.868 352.505 505.759C352.853 506.651 353.458 507.419 354.243 507.967C355.027 508.515 355.957 508.818 356.914 508.838C357.871 508.858 358.812 508.594 359.619 508.08C360.701 507.386 361.464 506.291 361.74 505.035C362.016 503.779 361.782 502.465 361.09 501.382Z" fill="white" stroke="#263238" stroke-linecap="round" stroke-linejoin="round"/>
<path d="M331.598 520.278L345.213 498.714L349.835 501.612L336.231 523.188L331.598 520.278Z" fill="#263238" stroke="#263238" stroke-linecap="round" stroke-linejoin="round"/>
<path d="M329.545 520.805L333.267 514.876L340.305 519.268L336.572 525.208C335.984 526.138 335.053 526.797 333.981 527.042C332.909 527.286 331.784 527.097 330.851 526.515C329.923 525.93 329.264 525 329.019 523.93C328.774 522.86 328.963 521.737 329.545 520.805Z" fill="white" stroke="#263238" stroke-linecap="round" stroke-linejoin="round"/>
<path d="M352.471 500.976C352.308 499.832 351.809 498.763 351.038 497.903C350.266 497.044 349.257 496.433 348.138 496.148C347.019 495.863 345.84 495.916 344.751 496.302C343.663 496.688 342.713 497.388 342.023 498.314C341.333 499.241 340.934 500.351 340.876 501.504C340.817 502.658 341.103 503.803 341.697 504.793C342.29 505.784 343.164 506.576 344.209 507.07C345.253 507.563 346.42 507.735 347.563 507.564C349.086 507.338 350.458 506.518 351.378 505.284C352.298 504.049 352.691 502.5 352.471 500.976Z" fill="white" stroke="#263238" stroke-linecap="round" stroke-linejoin="round"/>
<path d="M327.248 439.827C337.568 433.184 340.549 419.432 333.906 409.111C327.262 398.791 313.51 395.81 303.19 402.454C292.87 409.097 289.889 422.849 296.532 433.169C303.176 443.489 316.927 446.47 327.248 439.827Z" fill="white" stroke="#263238" stroke-linecap="round" stroke-linejoin="round"/>
<path d="M325.019 425.639C327.499 420.232 325.126 413.838 319.719 411.358C314.312 408.878 307.918 411.25 305.438 416.658C302.957 422.065 305.33 428.459 310.737 430.939C316.145 433.419 322.539 431.046 325.019 425.639Z" fill="#263238" stroke="#263238" stroke-linecap="round" stroke-linejoin="round"/>
<path d="M270.165 377.099C289.879 377.099 305.861 361.118 305.861 341.403C305.861 321.689 289.879 305.707 270.165 305.707C250.45 305.707 234.469 321.689 234.469 341.403C234.469 361.118 250.45 377.099 270.165 377.099Z" fill="#92E3A9" stroke="#263238" stroke-linecap="round" stroke-linejoin="round"/>
<path d="M321.2 365.175C328.866 355.564 333.664 343.984 335.041 331.768C336.418 319.551 334.319 307.194 328.986 296.117C323.652 285.04 315.3 275.694 304.891 269.153C294.481 262.612 282.437 259.142 270.143 259.142C257.849 259.142 245.805 262.612 235.395 269.153C224.986 275.694 216.634 285.04 211.3 296.117C205.967 307.194 203.868 319.551 205.245 331.768C206.622 343.984 211.42 355.564 219.086 365.175H321.2Z" fill="white" stroke="#263238" stroke-linecap="round" stroke-linejoin="round"/>
<path d="M310.11 299.8H228.572C223.612 299.8 219.591 303.821 219.591 308.782V337.681C219.591 342.641 223.612 346.663 228.572 346.663H310.11C315.07 346.663 319.092 342.641 319.092 337.681V308.782C319.092 303.821 315.07 299.8 310.11 299.8Z" fill="#92E3A9" stroke="#263238" stroke-linecap="round" stroke-linejoin="round"/>
<path d="M230.351 321.332C231.429 318.313 233.395 315.689 235.99 313.806C238.584 311.923 241.688 310.868 244.892 310.779C248.097 310.69 251.254 311.571 253.95 313.308C256.645 315.044 258.753 317.554 259.997 320.508" stroke="#263238" stroke-width="5" stroke-linecap="round" stroke-linejoin="round"/>
<path d="M279.531 321.332C280.609 318.313 282.574 315.689 285.169 313.806C287.764 311.923 290.867 310.868 294.072 310.779C297.277 310.69 300.434 311.571 303.129 313.308C305.825 315.044 307.932 317.554 309.177 320.508" stroke="#263238" stroke-width="5" stroke-linecap="round" stroke-linejoin="round"/>
<path d="M261.557 332.191C261.832 334.368 262.893 336.37 264.539 337.822C266.186 339.273 268.305 340.074 270.5 340.074C272.695 340.074 274.814 339.273 276.46 337.822C278.107 336.37 279.167 334.368 279.443 332.191H261.557Z" fill="white" stroke="#263238" stroke-linecap="round" stroke-linejoin="round"/>
<path d="M354.667 335.902C352.856 335.902 351.119 335.183 349.838 333.902C348.557 332.621 347.837 330.884 347.837 329.073V313.536C347.836 312.638 348.012 311.749 348.354 310.919C348.697 310.089 349.2 309.335 349.834 308.7C350.468 308.064 351.222 307.56 352.051 307.216C352.88 306.872 353.769 306.695 354.667 306.695C355.565 306.694 356.454 306.87 357.284 307.212C358.114 307.555 358.868 308.058 359.503 308.692C360.139 309.326 360.643 310.08 360.987 310.909C361.33 311.738 361.508 312.627 361.508 313.525V329.062C361.509 329.96 361.333 330.851 360.99 331.681C360.646 332.512 360.143 333.266 359.507 333.902C358.872 334.537 358.117 335.041 357.286 335.385C356.456 335.728 355.566 335.904 354.667 335.902Z" fill="#263238" stroke="#263238" stroke-linecap="round" stroke-linejoin="round"/>
<path d="M183.796 335.902C182.898 335.904 182.009 335.728 181.179 335.386C180.349 335.043 179.595 334.54 178.96 333.906C178.324 333.271 177.82 332.518 177.476 331.689C177.133 330.859 176.956 329.971 176.956 329.073V313.536C176.954 312.637 177.13 311.747 177.473 310.917C177.817 310.086 178.32 309.331 178.956 308.696C179.591 308.06 180.346 307.557 181.177 307.213C182.007 306.87 182.897 306.694 183.796 306.695C184.693 306.695 185.581 306.872 186.41 307.215C187.238 307.559 187.991 308.062 188.625 308.696C189.26 309.33 189.763 310.083 190.106 310.911C190.449 311.74 190.626 312.628 190.626 313.525V329.062C190.627 329.96 190.452 330.849 190.109 331.679C189.766 332.509 189.264 333.263 188.629 333.898C187.995 334.533 187.242 335.037 186.412 335.381C185.583 335.725 184.694 335.902 183.796 335.902Z" fill="#263238" stroke="#263238" stroke-linecap="round" stroke-linejoin="round"/>
<path d="M205.69 265.795C199.649 274.721 196.428 285.256 196.445 296.034V307.321" stroke="#263238" stroke-width="14" stroke-linecap="round" stroke-linejoin="round"/>
<path d="M335.342 265.839C330.399 258.473 323.718 252.438 315.89 248.265C308.062 244.093 299.327 241.911 290.456 241.913H250.544C241.685 241.907 232.961 244.079 225.14 248.238C217.318 252.397 210.639 258.415 205.69 265.762" stroke="#263238" stroke-width="7" stroke-linecap="round" stroke-linejoin="round"/>
<path d="M344.544 307.321V296.034C344.56 285.276 341.356 274.759 335.342 265.839" stroke="#263238" stroke-width="14" stroke-linecap="round" stroke-linejoin="round"/>
<path d="M201.891 295.166H192.734C187.434 295.166 183.137 299.463 183.137 304.763V336.484C183.137 341.784 187.434 346.081 192.734 346.081H201.891C207.191 346.081 211.488 341.784 211.488 336.484V304.763C211.488 299.463 207.191 295.166 201.891 295.166Z" fill="white" stroke="#263238" stroke-linecap="round" stroke-linejoin="round"/>
<path d="M198.762 295.166H195.874V346.081H198.762V295.166Z" fill="#92E3A9" stroke="#263238" stroke-linecap="round" stroke-linejoin="round"/>
<path d="M346.519 295.166H337.362C332.062 295.166 327.766 299.463 327.766 304.763V336.484C327.766 341.784 332.062 346.081 337.362 346.081H346.519C351.819 346.081 356.116 341.784 356.116 336.484V304.763C356.116 299.463 351.819 295.166 346.519 295.166Z" fill="white" stroke="#263238" stroke-linecap="round" stroke-linejoin="round"/>
<path d="M343.39 295.166H340.502V346.081H343.39V295.166Z" fill="#92E3A9" stroke="#263238" stroke-linecap="round" stroke-linejoin="round"/>
<path d="M270.395 290.544C275.397 290.545 280.32 289.294 284.714 286.904C289.108 284.514 292.833 281.062 295.55 276.863L301.743 267.277C291.93 261.858 280.887 259.057 269.677 259.143C258.468 259.23 247.469 262.201 237.741 267.771L247.063 279.344C249.867 282.837 253.419 285.656 257.457 287.594C261.495 289.532 265.916 290.54 270.395 290.544Z" fill="#92E3A9" stroke="#263238" stroke-linecap="round" stroke-linejoin="round"/>
<path d="M271.944 351.406C271.944 351.189 271.879 350.977 271.759 350.796C271.638 350.615 271.466 350.475 271.266 350.392C271.065 350.309 270.844 350.287 270.631 350.329C270.418 350.372 270.223 350.476 270.069 350.63C269.916 350.783 269.811 350.979 269.769 351.192C269.726 351.405 269.748 351.626 269.831 351.826C269.914 352.027 270.055 352.198 270.236 352.319C270.416 352.44 270.628 352.504 270.846 352.504C271.137 352.504 271.416 352.388 271.622 352.182C271.828 351.977 271.944 351.697 271.944 351.406Z" fill="#263238"/>
<path d="M271.944 355.095C271.944 354.878 271.879 354.666 271.759 354.485C271.638 354.305 271.466 354.164 271.266 354.081C271.065 353.998 270.844 353.976 270.631 354.018C270.418 354.061 270.223 354.165 270.069 354.319C269.916 354.472 269.811 354.668 269.769 354.881C269.726 355.094 269.748 355.315 269.831 355.515C269.914 355.716 270.055 355.888 270.236 356.008C270.416 356.129 270.628 356.193 270.846 356.193C271.137 356.193 271.416 356.078 271.622 355.872C271.828 355.666 271.944 355.387 271.944 355.095Z" fill="#263238"/>
<path d="M267.76 354.524C267.961 354.395 268.113 354.204 268.195 353.979C268.278 353.755 268.284 353.511 268.215 353.282C268.145 353.054 268.003 352.854 267.81 352.714C267.617 352.574 267.384 352.5 267.145 352.504C266.945 352.634 266.792 352.825 266.71 353.049C266.627 353.273 266.621 353.518 266.69 353.746C266.76 353.975 266.902 354.174 267.095 354.315C267.288 354.455 267.521 354.529 267.76 354.524Z" fill="#263238"/>
<path d="M274.359 354.524C274.529 354.521 274.696 354.479 274.846 354.401C274.997 354.322 275.128 354.21 275.228 354.072C275.328 353.935 275.394 353.776 275.422 353.609C275.451 353.441 275.44 353.269 275.39 353.107C275.341 352.944 275.254 352.795 275.137 352.672C275.021 352.549 274.877 352.454 274.717 352.396C274.558 352.337 274.387 352.316 274.218 352.335C274.049 352.354 273.887 352.412 273.744 352.504C273.574 352.507 273.407 352.549 273.257 352.628C273.106 352.706 272.976 352.819 272.876 352.956C272.776 353.093 272.709 353.252 272.681 353.42C272.653 353.587 272.664 353.759 272.713 353.922C272.763 354.084 272.849 354.233 272.966 354.356C273.083 354.48 273.226 354.574 273.386 354.633C273.545 354.691 273.716 354.712 273.885 354.693C274.054 354.674 274.216 354.616 274.359 354.524Z" fill="#263238"/>
<path d="M314.041 392.603C300.064 389.452 269.803 388.321 269.803 388.321C262.512 388.551 242.221 389.419 228.243 392.614C225.597 393.215 223.295 394.835 221.835 397.123C220.376 399.411 219.877 402.182 220.448 404.835L233.393 465.4C234.029 468.337 235.65 470.968 237.986 472.857C240.323 474.747 243.235 475.78 246.24 475.787H296.144C299.148 475.78 302.061 474.747 304.397 472.857C306.734 470.968 308.354 468.337 308.99 465.4L321.925 404.835C322.493 402.168 321.982 399.385 320.505 397.093C319.028 394.801 316.704 393.187 314.041 392.603Z" fill="white" stroke="#263238" stroke-linecap="round" stroke-linejoin="round"/>
<path d="M307.672 391.439C292.509 389.177 269.835 388.321 269.835 388.321C258.734 388.639 247.657 389.555 236.654 391.066L251.323 475.787H291.191L307.672 391.439Z" fill="#92E3A9" stroke="#263238" stroke-linecap="round" stroke-linejoin="round"/>
<path d="M282.924 406.734H258.636C253.676 406.734 249.654 410.755 249.654 415.716V427.574C249.654 432.535 253.676 436.556 258.636 436.556H282.924C287.884 436.556 291.905 432.535 291.905 427.574V415.716C291.905 410.755 287.884 406.734 282.924 406.734Z" fill="white" stroke="#263238" stroke-linecap="round" stroke-linejoin="round"/>
<path d="M263.687 419.021H256.846V425.861H263.687V419.021Z" fill="white" stroke="#263238" stroke-linecap="round" stroke-linejoin="round"/>
<path d="M274.195 419.021H267.354V425.861H274.195V419.021Z" fill="white" stroke="#263238" stroke-linecap="round" stroke-linejoin="round"/>
<path d="M284.713 419.021H277.873V425.861H284.713V419.021Z" fill="white" stroke="#263238" stroke-linecap="round" stroke-linejoin="round"/>
</svg>
