<svg width="245" height="245" viewBox="0 0 245 245" fill="none" xmlns="http://www.w3.org/2000/svg">
<rect x="0.5" y="0.5" width="244" height="244" rx="122" fill="#4A90E2"/>
<rect x="0.5" y="0.5" width="244" height="244" rx="122" stroke="#80A0C1"/>
<path d="M152.693 145.04L154.513 159.787C154.98 163.66 150.827 166.366 147.513 164.36L127.96 152.74C125.813 152.74 123.713 152.6 121.66 152.32C125.113 148.26 127.167 143.126 127.167 137.573C127.167 124.32 115.687 113.587 101.5 113.587C96.0868 113.587 91.0935 115.127 86.9401 117.833C86.8001 116.667 86.7534 115.5 86.7534 114.287C86.7534 93.0532 105.187 75.8333 127.96 75.8333C150.733 75.8333 169.167 93.0532 169.167 114.287C169.167 126.887 162.68 138.04 152.693 145.04Z" stroke="#C3DCFA" stroke-width="6.5" stroke-linecap="round" stroke-linejoin="round"/>
<path d="M127.167 137.573C127.167 143.127 125.114 148.26 121.66 152.32C117.04 157.92 109.713 161.513 101.5 161.513L89.3202 168.747C87.2668 170.007 84.6535 168.28 84.9335 165.9L86.1001 156.707C79.8468 152.367 75.8335 145.413 75.8335 137.573C75.8335 129.36 80.2202 122.127 86.9402 117.833C91.0935 115.127 96.0868 113.587 101.5 113.587C115.687 113.587 127.167 124.32 127.167 137.573Z" stroke="#C3DCFA" stroke-width="6.5" stroke-linecap="round" stroke-linejoin="round"/>
</svg>
