<svg width="245" height="245" viewBox="0 0 245 245" fill="none" xmlns="http://www.w3.org/2000/svg">
<rect x="0.5" y="0.5" width="244" height="244" rx="122" fill="#F4C2C2"/>
<rect x="0.5" y="0.5" width="244" height="244" rx="122" stroke="#D09A9A"/>
<path d="M169.027 152.04C169.027 153.72 168.653 155.447 167.86 157.127C167.067 158.807 166.04 160.393 164.687 161.887C162.4 164.407 159.88 166.227 157.033 167.393C154.233 168.56 151.2 169.167 147.933 169.167C143.173 169.167 138.087 168.047 132.72 165.76C127.353 163.473 121.987 160.393 116.667 156.52C111.3 152.6 106.213 148.26 101.36 143.453C96.5535 138.6 92.2135 133.513 88.3402 128.193C84.5135 122.873 81.4335 117.553 79.1935 112.28C76.9535 106.96 75.8335 101.873 75.8335 97.0199C75.8335 93.8466 76.3935 90.8133 77.5135 88.0133C78.6335 85.1666 80.4068 82.5533 82.8802 80.2199C85.8668 77.2799 89.1335 75.8333 92.5868 75.8333C93.8935 75.8333 95.2002 76.1133 96.3668 76.6733C97.5802 77.2333 98.6535 78.0733 99.4935 79.2866L110.32 94.5466C111.16 95.7133 111.767 96.7866 112.187 97.8133C112.607 98.7933 112.84 99.7733 112.84 100.66C112.84 101.78 112.513 102.9 111.86 103.973C111.253 105.047 110.367 106.167 109.247 107.287L105.7 110.973C105.187 111.487 104.953 112.093 104.953 112.84C104.953 113.213 105 113.54 105.093 113.913C105.233 114.287 105.373 114.567 105.467 114.847C106.307 116.387 107.753 118.393 109.807 120.82C111.907 123.247 114.147 125.72 116.573 128.193C119.093 130.667 121.52 132.953 123.993 135.053C126.42 137.107 128.427 138.507 130.013 139.347C130.247 139.44 130.527 139.58 130.853 139.72C131.227 139.86 131.6 139.907 132.02 139.907C132.813 139.907 133.42 139.627 133.933 139.113L137.48 135.613C138.647 134.447 139.767 133.56 140.84 133C141.913 132.347 142.987 132.02 144.153 132.02C145.04 132.02 145.973 132.207 147 132.627C148.027 133.047 149.1 133.653 150.267 134.447L165.713 145.413C166.927 146.253 167.767 147.233 168.28 148.4C168.747 149.567 169.027 150.733 169.027 152.04Z" stroke="#650C0C" stroke-width="6.5" stroke-miterlimit="10"/>
<path d="M152.833 108.5C152.833 105.7 150.64 101.407 147.373 97.9065C144.387 94.6865 140.42 92.1665 136.5 92.1665" stroke="#650C0C" stroke-width="6.5" stroke-linecap="round" stroke-linejoin="round"/>
<path d="M169.167 108.5C169.167 90.4399 154.56 75.8333 136.5 75.8333" stroke="#650C0C" stroke-width="6.5" stroke-linecap="round" stroke-linejoin="round"/>
</svg>
