<svg width="1070" height="131" viewBox="0 0 1070 131" fill="none" xmlns="http://www.w3.org/2000/svg">
<path d="M0.75 0.75H1022C1048.1 0.75 1069.25 21.9045 1069.25 48V130.25H48C21.9046 130.25 0.75 109.095 0.75 83V0.75Z" fill="#66BB6A"/>
<path d="M0.75 0.75H1022C1048.1 0.75 1069.25 21.9045 1069.25 48V130.25H48C21.9046 130.25 0.75 109.095 0.75 83V0.75Z" stroke="#35794F" stroke-width="1.5"/>
<path d="M224.751 54.26L218.159 76.5H214.031L209.359 59.668L204.399 76.5L200.303 76.532L193.999 54.26H197.871L202.479 72.372L207.471 54.26H211.567L216.207 72.276L220.847 54.26H224.751ZM235.408 76.788C233.744 76.788 232.24 76.4147 230.896 75.668C229.552 74.9 228.496 73.8333 227.728 72.468C226.96 71.0813 226.576 69.4813 226.576 67.668C226.576 65.876 226.97 64.2867 227.76 62.9C228.549 61.5133 229.626 60.4467 230.992 59.7C232.357 58.9533 233.882 58.58 235.568 58.58C237.253 58.58 238.778 58.9533 240.144 59.7C241.509 60.4467 242.586 61.5133 243.376 62.9C244.165 64.2867 244.56 65.876 244.56 67.668C244.56 69.46 244.154 71.0493 243.344 72.436C242.533 73.8227 241.424 74.9 240.016 75.668C238.629 76.4147 237.093 76.788 235.408 76.788ZM235.408 73.62C236.346 73.62 237.221 73.396 238.032 72.948C238.864 72.5 239.536 71.828 240.048 70.932C240.56 70.036 240.816 68.948 240.816 67.668C240.816 66.388 240.57 65.3107 240.08 64.436C239.589 63.54 238.938 62.868 238.128 62.42C237.317 61.972 236.442 61.748 235.504 61.748C234.565 61.748 233.69 61.972 232.88 62.42C232.09 62.868 231.461 63.54 230.992 64.436C230.522 65.3107 230.288 66.388 230.288 67.668C230.288 69.5667 230.768 71.0387 231.728 72.084C232.709 73.108 233.936 73.62 235.408 73.62ZM264.134 58.868V76.5H260.486V74.42C259.91 75.1453 259.153 75.7213 258.214 76.148C257.297 76.5533 256.315 76.756 255.27 76.756C253.883 76.756 252.635 76.468 251.526 75.892C250.438 75.316 249.574 74.4627 248.934 73.332C248.315 72.2013 248.006 70.836 248.006 69.236V58.868H251.622V68.692C251.622 70.2707 252.017 71.4867 252.806 72.34C253.595 73.172 254.673 73.588 256.038 73.588C257.403 73.588 258.481 73.172 259.27 72.34C260.081 71.4867 260.486 70.2707 260.486 68.692V58.868H264.134ZM272.595 52.82V76.5H268.947V52.82H272.595ZM276.169 67.604C276.169 65.8333 276.531 64.2653 277.257 62.9C278.003 61.5347 279.006 60.4787 280.265 59.732C281.545 58.964 282.963 58.58 284.521 58.58C285.673 58.58 286.803 58.836 287.913 59.348C289.043 59.8387 289.939 60.5 290.601 61.332V52.82H294.281V76.5H290.601V73.844C290.003 74.6973 289.171 75.4013 288.105 75.956C287.059 76.5107 285.854 76.788 284.489 76.788C282.953 76.788 281.545 76.404 280.265 75.636C279.006 74.8467 278.003 73.7587 277.257 72.372C276.531 70.964 276.169 69.3747 276.169 67.604ZM290.601 67.668C290.601 66.452 290.345 65.396 289.833 64.5C289.342 63.604 288.691 62.9213 287.881 62.452C287.07 61.9827 286.195 61.748 285.257 61.748C284.318 61.748 283.443 61.9827 282.633 62.452C281.822 62.9 281.161 63.572 280.649 64.468C280.158 65.3427 279.913 66.388 279.913 67.604C279.913 68.82 280.158 69.8867 280.649 70.804C281.161 71.7213 281.822 72.4253 282.633 72.916C283.465 73.3853 284.339 73.62 285.257 73.62C286.195 73.62 287.07 73.3853 287.881 72.916C288.691 72.4467 289.342 71.764 289.833 70.868C290.345 69.9507 290.601 68.884 290.601 67.668ZM323.257 58.868L312.441 84.788H308.665L312.249 76.212L305.305 58.868H309.369L314.329 72.308L319.481 58.868H323.257ZM333.658 76.788C331.994 76.788 330.49 76.4147 329.146 75.668C327.802 74.9 326.746 73.8333 325.978 72.468C325.21 71.0813 324.826 69.4813 324.826 67.668C324.826 65.876 325.22 64.2867 326.01 62.9C326.799 61.5133 327.876 60.4467 329.242 59.7C330.607 58.9533 332.132 58.58 333.818 58.58C335.503 58.58 337.028 58.9533 338.394 59.7C339.759 60.4467 340.836 61.5133 341.626 62.9C342.415 64.2867 342.81 65.876 342.81 67.668C342.81 69.46 342.404 71.0493 341.594 72.436C340.783 73.8227 339.674 74.9 338.266 75.668C336.879 76.4147 335.343 76.788 333.658 76.788ZM333.658 73.62C334.596 73.62 335.471 73.396 336.282 72.948C337.114 72.5 337.786 71.828 338.298 70.932C338.81 70.036 339.066 68.948 339.066 67.668C339.066 66.388 338.82 65.3107 338.33 64.436C337.839 63.54 337.188 62.868 336.378 62.42C335.567 61.972 334.692 61.748 333.754 61.748C332.815 61.748 331.94 61.972 331.13 62.42C330.34 62.868 329.711 63.54 329.242 64.436C328.772 65.3107 328.538 66.388 328.538 67.668C328.538 69.5667 329.018 71.0387 329.978 72.084C330.959 73.108 332.186 73.62 333.658 73.62ZM362.384 58.868V76.5H358.736V74.42C358.16 75.1453 357.403 75.7213 356.464 76.148C355.547 76.5533 354.565 76.756 353.52 76.756C352.133 76.756 350.885 76.468 349.776 75.892C348.688 75.316 347.824 74.4627 347.184 73.332C346.565 72.2013 346.256 70.836 346.256 69.236V58.868H349.872V68.692C349.872 70.2707 350.267 71.4867 351.056 72.34C351.845 73.172 352.923 73.588 354.288 73.588C355.653 73.588 356.731 73.172 357.52 72.34C358.331 71.4867 358.736 70.2707 358.736 68.692V58.868H362.384ZM379.158 52.82V76.5H375.51V52.82H379.158ZM385.803 56.532C385.142 56.532 384.587 56.308 384.139 55.86C383.691 55.412 383.467 54.8573 383.467 54.196C383.467 53.5347 383.691 52.98 384.139 52.532C384.587 52.084 385.142 51.86 385.803 51.86C386.443 51.86 386.987 52.084 387.435 52.532C387.883 52.98 388.107 53.5347 388.107 54.196C388.107 54.8573 387.883 55.412 387.435 55.86C386.987 56.308 386.443 56.532 385.803 56.532ZM387.595 58.868V76.5H383.947V58.868H387.595ZM399.361 67.7L407.489 76.5H402.561L396.033 68.916V76.5H392.385V52.82H396.033V66.58L402.433 58.868H407.489L399.361 67.7ZM426.263 67.252C426.263 67.9133 426.221 68.5107 426.135 69.044H412.663C412.77 70.452 413.293 71.5827 414.231 72.436C415.17 73.2893 416.322 73.716 417.687 73.716C419.65 73.716 421.037 72.8947 421.847 71.252H425.783C425.25 72.8733 424.279 74.2067 422.871 75.252C421.485 76.276 419.757 76.788 417.687 76.788C416.002 76.788 414.487 76.4147 413.143 75.668C411.821 74.9 410.775 73.8333 410.007 72.468C409.261 71.0813 408.887 69.4813 408.887 67.668C408.887 65.8547 409.25 64.2653 409.975 62.9C410.722 61.5133 411.757 60.4467 413.079 59.7C414.423 58.9533 415.959 58.58 417.687 58.58C419.351 58.58 420.834 58.9427 422.135 59.668C423.437 60.3933 424.45 61.4173 425.175 62.74C425.901 64.0413 426.263 65.5453 426.263 67.252ZM422.455 66.1C422.434 64.756 421.954 63.6787 421.015 62.868C420.077 62.0573 418.914 61.652 417.527 61.652C416.269 61.652 415.191 62.0573 414.295 62.868C413.399 63.6573 412.866 64.7347 412.695 66.1H422.455ZM442.422 61.844V71.604C442.422 72.2653 442.571 72.7453 442.87 73.044C443.19 73.3213 443.723 73.46 444.47 73.46H446.71V76.5H443.83C442.187 76.5 440.929 76.116 440.054 75.348C439.179 74.58 438.742 73.332 438.742 71.604V61.844H436.662V58.868H438.742V54.484H442.422V58.868H446.71V61.844H442.422ZM457.72 76.788C456.056 76.788 454.552 76.4147 453.208 75.668C451.864 74.9 450.808 73.8333 450.04 72.468C449.272 71.0813 448.888 69.4813 448.888 67.668C448.888 65.876 449.283 64.2867 450.072 62.9C450.861 61.5133 451.939 60.4467 453.304 59.7C454.669 58.9533 456.195 58.58 457.88 58.58C459.565 58.58 461.091 58.9533 462.456 59.7C463.821 60.4467 464.899 61.5133 465.688 62.9C466.477 64.2867 466.872 65.876 466.872 67.668C466.872 69.46 466.467 71.0493 465.656 72.436C464.845 73.8227 463.736 74.9 462.328 75.668C460.941 76.4147 459.405 76.788 457.72 76.788ZM457.72 73.62C458.659 73.62 459.533 73.396 460.344 72.948C461.176 72.5 461.848 71.828 462.36 70.932C462.872 70.036 463.128 68.948 463.128 67.668C463.128 66.388 462.883 65.3107 462.392 64.436C461.901 63.54 461.251 62.868 460.44 62.42C459.629 61.972 458.755 61.748 457.816 61.748C456.877 61.748 456.003 61.972 455.192 62.42C454.403 62.868 453.773 63.54 453.304 64.436C452.835 65.3107 452.6 66.388 452.6 67.668C452.6 69.5667 453.08 71.0387 454.04 72.084C455.021 73.108 456.248 73.62 457.72 73.62ZM483.047 61.844V71.604C483.047 72.2653 483.196 72.7453 483.495 73.044C483.815 73.3213 484.348 73.46 485.095 73.46H487.335V76.5H484.455C482.812 76.5 481.554 76.116 480.679 75.348C479.804 74.58 479.367 73.332 479.367 71.604V61.844H477.287V58.868H479.367V54.484H483.047V58.868H487.335V61.844H483.047ZM494.345 61.428C494.878 60.532 495.582 59.8387 496.457 59.348C497.353 58.836 498.409 58.58 499.625 58.58V62.356H498.697C497.268 62.356 496.18 62.7187 495.433 63.444C494.708 64.1693 494.345 65.428 494.345 67.22V76.5H490.697V58.868H494.345V61.428ZM518.85 58.868L508.034 84.788H504.258L507.842 76.212L500.898 58.868H504.962L509.922 72.308L515.074 58.868H518.85ZM528.7 67.604C528.7 65.8333 529.063 64.2653 529.788 62.9C530.535 61.5347 531.537 60.4787 532.796 59.732C534.076 58.964 535.484 58.58 537.02 58.58C538.407 58.58 539.612 58.8573 540.636 59.412C541.681 59.9453 542.513 60.6173 543.132 61.428V58.868H546.812V76.5H543.132V73.876C542.513 74.708 541.671 75.4013 540.604 75.956C539.537 76.5107 538.321 76.788 536.956 76.788C535.441 76.788 534.055 76.404 532.796 75.636C531.537 74.8467 530.535 73.7587 529.788 72.372C529.063 70.964 528.7 69.3747 528.7 67.604ZM543.132 67.668C543.132 66.452 542.876 65.396 542.364 64.5C541.873 63.604 541.223 62.9213 540.412 62.452C539.601 61.9827 538.727 61.748 537.788 61.748C536.849 61.748 535.975 61.9827 535.164 62.452C534.353 62.9 533.692 63.572 533.18 64.468C532.689 65.3427 532.444 66.388 532.444 67.604C532.444 68.82 532.689 69.8867 533.18 70.804C533.692 71.7213 534.353 72.4253 535.164 72.916C535.996 73.3853 536.871 73.62 537.788 73.62C538.727 73.62 539.601 73.3853 540.412 72.916C541.223 72.4467 541.873 71.764 542.364 70.868C542.876 69.9507 543.132 68.884 543.132 67.668ZM563.564 61.428C564.097 60.532 564.801 59.8387 565.676 59.348C566.572 58.836 567.628 58.58 568.844 58.58V62.356H567.916C566.487 62.356 565.399 62.7187 564.652 63.444C563.927 64.1693 563.564 65.428 563.564 67.22V76.5H559.916V58.868H563.564V61.428ZM588.357 67.252C588.357 67.9133 588.314 68.5107 588.229 69.044H574.757C574.864 70.452 575.386 71.5827 576.325 72.436C577.264 73.2893 578.416 73.716 579.781 73.716C581.744 73.716 583.13 72.8947 583.941 71.252H587.877C587.344 72.8733 586.373 74.2067 584.965 75.252C583.578 76.276 581.85 76.788 579.781 76.788C578.096 76.788 576.581 76.4147 575.237 75.668C573.914 74.9 572.869 73.8333 572.101 72.468C571.354 71.0813 570.981 69.4813 570.981 67.668C570.981 65.8547 571.344 64.2653 572.069 62.9C572.816 61.5133 573.85 60.4467 575.173 59.7C576.517 58.9533 578.053 58.58 579.781 58.58C581.445 58.58 582.928 58.9427 584.229 59.668C585.53 60.3933 586.544 61.4173 587.269 62.74C587.994 64.0413 588.357 65.5453 588.357 67.252ZM584.549 66.1C584.528 64.756 584.048 63.6787 583.109 62.868C582.17 62.0573 581.008 61.652 579.621 61.652C578.362 61.652 577.285 62.0573 576.389 62.868C575.493 63.6573 574.96 64.7347 574.789 66.1H584.549ZM595.595 52.82V76.5H591.947V52.82H595.595ZM599.169 67.604C599.169 65.8333 599.531 64.2653 600.257 62.9C601.003 61.5347 602.006 60.4787 603.265 59.732C604.545 58.964 605.953 58.58 607.489 58.58C608.875 58.58 610.081 58.8573 611.105 59.412C612.15 59.9453 612.982 60.6173 613.601 61.428V58.868H617.281V76.5H613.601V73.876C612.982 74.708 612.139 75.4013 611.073 75.956C610.006 76.5107 608.79 76.788 607.425 76.788C605.91 76.788 604.523 76.404 603.265 75.636C602.006 74.8467 601.003 73.7587 600.257 72.372C599.531 70.964 599.169 69.3747 599.169 67.604ZM613.601 67.668C613.601 66.452 613.345 65.396 612.833 64.5C612.342 63.604 611.691 62.9213 610.881 62.452C610.07 61.9827 609.195 61.748 608.257 61.748C607.318 61.748 606.443 61.9827 605.633 62.452C604.822 62.9 604.161 63.572 603.649 64.468C603.158 65.3427 602.913 66.388 602.913 67.604C602.913 68.82 603.158 69.8867 603.649 70.804C604.161 71.7213 604.822 72.4253 605.633 72.916C606.465 73.3853 607.339 73.62 608.257 73.62C609.195 73.62 610.07 73.3853 610.881 72.916C611.691 72.4467 612.342 71.764 612.833 70.868C613.345 69.9507 613.601 68.884 613.601 67.668ZM629.624 67.572L635.32 76.5H631.192L627.384 70.516L623.8 76.5H619.992L625.688 67.828L619.992 58.868H624.12L627.928 64.852L631.512 58.868H635.32L629.624 67.572ZM636.825 67.604C636.825 65.8333 637.188 64.2653 637.913 62.9C638.66 61.5347 639.662 60.4787 640.921 59.732C642.201 58.964 643.609 58.58 645.145 58.58C646.532 58.58 647.737 58.8573 648.761 59.412C649.806 59.9453 650.638 60.6173 651.257 61.428V58.868H654.937V76.5H651.257V73.876C650.638 74.708 649.796 75.4013 648.729 75.956C647.662 76.5107 646.446 76.788 645.081 76.788C643.566 76.788 642.18 76.404 640.921 75.636C639.662 74.8467 638.66 73.7587 637.913 72.372C637.188 70.964 636.825 69.3747 636.825 67.604ZM651.257 67.668C651.257 66.452 651.001 65.396 650.489 64.5C649.998 63.604 649.348 62.9213 648.537 62.452C647.726 61.9827 646.852 61.748 645.913 61.748C644.974 61.748 644.1 61.9827 643.289 62.452C642.478 62.9 641.817 63.572 641.305 64.468C640.814 65.3427 640.569 66.388 640.569 67.604C640.569 68.82 640.814 69.8867 641.305 70.804C641.817 71.7213 642.478 72.4253 643.289 72.916C644.121 73.3853 644.996 73.62 645.913 73.62C646.852 73.62 647.726 73.3853 648.537 72.916C649.348 72.4467 649.998 71.764 650.489 70.868C651.001 69.9507 651.257 68.884 651.257 67.668ZM663.984 61.844V71.604C663.984 72.2653 664.134 72.7453 664.432 73.044C664.752 73.3213 665.286 73.46 666.032 73.46H668.272V76.5H665.392C663.75 76.5 662.491 76.116 661.616 75.348C660.742 74.58 660.304 73.332 660.304 71.604V61.844H658.224V58.868H660.304V54.484H663.984V58.868H668.272V61.844H663.984ZM673.491 56.532C672.829 56.532 672.275 56.308 671.827 55.86C671.379 55.412 671.155 54.8573 671.155 54.196C671.155 53.5347 671.379 52.98 671.827 52.532C672.275 52.084 672.829 51.86 673.491 51.86C674.131 51.86 674.675 52.084 675.123 52.532C675.571 52.98 675.795 53.5347 675.795 54.196C675.795 54.8573 675.571 55.412 675.123 55.86C674.675 56.308 674.131 56.532 673.491 56.532ZM675.283 58.868V76.5H671.635V58.868H675.283ZM687.72 76.788C686.056 76.788 684.552 76.4147 683.208 75.668C681.864 74.9 680.808 73.8333 680.04 72.468C679.272 71.0813 678.888 69.4813 678.888 67.668C678.888 65.876 679.283 64.2867 680.072 62.9C680.861 61.5133 681.939 60.4467 683.304 59.7C684.669 58.9533 686.195 58.58 687.88 58.58C689.565 58.58 691.091 58.9533 692.456 59.7C693.821 60.4467 694.899 61.5133 695.688 62.9C696.477 64.2867 696.872 65.876 696.872 67.668C696.872 69.46 696.467 71.0493 695.656 72.436C694.845 73.8227 693.736 74.9 692.328 75.668C690.941 76.4147 689.405 76.788 687.72 76.788ZM687.72 73.62C688.659 73.62 689.533 73.396 690.344 72.948C691.176 72.5 691.848 71.828 692.36 70.932C692.872 70.036 693.128 68.948 693.128 67.668C693.128 66.388 692.883 65.3107 692.392 64.436C691.901 63.54 691.251 62.868 690.44 62.42C689.629 61.972 688.755 61.748 687.816 61.748C686.877 61.748 686.003 61.972 685.192 62.42C684.403 62.868 683.773 63.54 683.304 64.436C682.835 65.3107 682.6 66.388 682.6 67.668C682.6 69.5667 683.08 71.0387 684.04 72.084C685.021 73.108 686.248 73.62 687.72 73.62ZM709.374 58.58C710.761 58.58 711.998 58.868 713.086 59.444C714.196 60.02 715.06 60.8733 715.678 62.004C716.297 63.1347 716.606 64.5 716.606 66.1V76.5H712.99V66.644C712.99 65.0653 712.596 63.86 711.806 63.028C711.017 62.1747 709.94 61.748 708.574 61.748C707.209 61.748 706.121 62.1747 705.31 63.028C704.521 63.86 704.126 65.0653 704.126 66.644V76.5H700.478V58.868H704.126V60.884C704.724 60.1587 705.481 59.5933 706.398 59.188C707.337 58.7827 708.329 58.58 709.374 58.58ZM745.732 67.252C745.732 67.9133 745.689 68.5107 745.604 69.044H732.132C732.239 70.452 732.761 71.5827 733.7 72.436C734.639 73.2893 735.791 73.716 737.156 73.716C739.119 73.716 740.505 72.8947 741.316 71.252H745.252C744.719 72.8733 743.748 74.2067 742.34 75.252C740.953 76.276 739.225 76.788 737.156 76.788C735.471 76.788 733.956 76.4147 732.612 75.668C731.289 74.9 730.244 73.8333 729.476 72.468C728.729 71.0813 728.356 69.4813 728.356 67.668C728.356 65.8547 728.719 64.2653 729.444 62.9C730.191 61.5133 731.225 60.4467 732.548 59.7C733.892 58.9533 735.428 58.58 737.156 58.58C738.82 58.58 740.303 58.9427 741.604 59.668C742.905 60.3933 743.919 61.4173 744.644 62.74C745.369 64.0413 745.732 65.5453 745.732 67.252ZM741.924 66.1C741.903 64.756 741.423 63.6787 740.484 62.868C739.545 62.0573 738.383 61.652 736.996 61.652C735.737 61.652 734.66 62.0573 733.764 62.868C732.868 63.6573 732.335 64.7347 732.164 66.1H741.924ZM756.874 67.572L762.57 76.5H758.442L754.634 70.516L751.05 76.5H747.242L752.938 67.828L747.242 58.868H751.37L755.178 64.852L758.762 58.868H762.57L756.874 67.572ZM781.451 67.252C781.451 67.9133 781.408 68.5107 781.323 69.044H767.851C767.958 70.452 768.48 71.5827 769.419 72.436C770.358 73.2893 771.51 73.716 772.875 73.716C774.838 73.716 776.224 72.8947 777.035 71.252H780.971C780.438 72.8733 779.467 74.2067 778.059 75.252C776.672 76.276 774.944 76.788 772.875 76.788C771.19 76.788 769.675 76.4147 768.331 75.668C767.008 74.9 765.963 73.8333 765.195 72.468C764.448 71.0813 764.075 69.4813 764.075 67.668C764.075 65.8547 764.438 64.2653 765.163 62.9C765.91 61.5133 766.944 60.4467 768.267 59.7C769.611 58.9533 771.147 58.58 772.875 58.58C774.539 58.58 776.022 58.9427 777.323 59.668C778.624 60.3933 779.638 61.4173 780.363 62.74C781.088 64.0413 781.451 65.5453 781.451 67.252ZM777.643 66.1C777.622 64.756 777.142 63.6787 776.203 62.868C775.264 62.0573 774.102 61.652 772.715 61.652C771.456 61.652 770.379 62.0573 769.483 62.868C768.587 63.6573 768.054 64.7347 767.883 66.1H777.643ZM788.689 61.428C789.222 60.532 789.926 59.8387 790.801 59.348C791.697 58.836 792.753 58.58 793.969 58.58V62.356H793.041C791.612 62.356 790.524 62.7187 789.777 63.444C789.052 64.1693 788.689 65.428 788.689 67.22V76.5H785.041V58.868H788.689V61.428ZM796.106 67.668C796.106 65.8547 796.469 64.2653 797.194 62.9C797.941 61.5133 798.965 60.4467 800.266 59.7C801.567 58.9533 803.061 58.58 804.746 58.58C806.879 58.58 808.639 59.092 810.026 60.116C811.434 61.1187 812.383 62.5587 812.874 64.436H808.938C808.618 63.5613 808.106 62.8787 807.402 62.388C806.698 61.8973 805.813 61.652 804.746 61.652C803.253 61.652 802.058 62.1853 801.162 63.252C800.287 64.2973 799.85 65.7693 799.85 67.668C799.85 69.5667 800.287 71.0493 801.162 72.116C802.058 73.1827 803.253 73.716 804.746 73.716C806.858 73.716 808.255 72.788 808.938 70.932H812.874C812.362 72.724 811.402 74.1533 809.994 75.22C808.586 76.2653 806.837 76.788 804.746 76.788C803.061 76.788 801.567 76.4147 800.266 75.668C798.965 74.9 797.941 73.8333 797.194 72.468C796.469 71.0813 796.106 69.4813 796.106 67.668ZM818.366 56.532C817.704 56.532 817.15 56.308 816.702 55.86C816.254 55.412 816.03 54.8573 816.03 54.196C816.03 53.5347 816.254 52.98 816.702 52.532C817.15 52.084 817.704 51.86 818.366 51.86C819.006 51.86 819.55 52.084 819.998 52.532C820.446 52.98 820.67 53.5347 820.67 54.196C820.67 54.8573 820.446 55.412 819.998 55.86C819.55 56.308 819.006 56.532 818.366 56.532ZM820.158 58.868V76.5H816.51V58.868H820.158ZM831.347 76.788C829.96 76.788 828.712 76.5427 827.603 76.052C826.515 75.54 825.651 74.8573 825.011 74.004C824.371 73.1293 824.03 72.1587 823.987 71.092H827.763C827.827 71.8387 828.179 72.468 828.819 72.98C829.48 73.4707 830.302 73.716 831.283 73.716C832.307 73.716 833.096 73.524 833.651 73.14C834.227 72.7347 834.515 72.2227 834.515 71.604C834.515 70.9427 834.195 70.452 833.555 70.132C832.936 69.812 831.944 69.46 830.579 69.076C829.256 68.7133 828.179 68.3613 827.347 68.02C826.515 67.6787 825.79 67.156 825.171 66.452C824.574 65.748 824.275 64.82 824.275 63.668C824.275 62.7293 824.552 61.876 825.107 61.108C825.662 60.3187 826.451 59.7 827.475 59.252C828.52 58.804 829.715 58.58 831.059 58.58C833.064 58.58 834.675 59.092 835.891 60.116C837.128 61.1187 837.79 62.4947 837.875 64.244H834.227C834.163 63.4547 833.843 62.8253 833.267 62.356C832.691 61.8867 831.912 61.652 830.931 61.652C829.971 61.652 829.235 61.8333 828.723 62.196C828.211 62.5587 827.955 63.0387 827.955 63.636C827.955 64.1053 828.126 64.5 828.467 64.82C828.808 65.14 829.224 65.396 829.715 65.588C830.206 65.7587 830.931 65.9827 831.891 66.26C833.171 66.6013 834.216 66.9533 835.027 67.316C835.859 67.6573 836.574 68.1693 837.171 68.852C837.768 69.5347 838.078 70.4413 838.099 71.572C838.099 72.5747 837.822 73.4707 837.267 74.26C836.712 75.0493 835.923 75.668 834.899 76.116C833.896 76.564 832.712 76.788 831.347 76.788ZM858.201 67.252C858.201 67.9133 858.158 68.5107 858.073 69.044H844.601C844.708 70.452 845.23 71.5827 846.169 72.436C847.108 73.2893 848.26 73.716 849.625 73.716C851.588 73.716 852.974 72.8947 853.785 71.252H857.721C857.188 72.8733 856.217 74.2067 854.809 75.252C853.422 76.276 851.694 76.788 849.625 76.788C847.94 76.788 846.425 76.4147 845.081 75.668C843.758 74.9 842.713 73.8333 841.945 72.468C841.198 71.0813 840.825 69.4813 840.825 67.668C840.825 65.8547 841.188 64.2653 841.913 62.9C842.66 61.5133 843.694 60.4467 845.017 59.7C846.361 58.9533 847.897 58.58 849.625 58.58C851.289 58.58 852.772 58.9427 854.073 59.668C855.374 60.3933 856.388 61.4173 857.113 62.74C857.838 64.0413 858.201 65.5453 858.201 67.252ZM854.393 66.1C854.372 64.756 853.892 63.6787 852.953 62.868C852.014 62.0573 850.852 61.652 849.465 61.652C848.206 61.652 847.129 62.0573 846.233 62.868C845.337 63.6573 844.804 64.7347 844.633 66.1H854.393ZM867.775 53.94C869.951 53.94 871.69 54.5373 872.991 55.732C874.314 56.9267 874.975 58.5587 874.975 60.628C874.975 62.7827 874.292 64.404 872.927 65.492C871.562 66.58 869.748 67.124 867.487 67.124L867.359 69.652H864.191L864.031 64.628H865.087C867.156 64.628 868.735 64.3507 869.823 63.796C870.932 63.2413 871.487 62.1853 871.487 60.628C871.487 59.4973 871.156 58.612 870.495 57.972C869.855 57.332 868.959 57.012 867.807 57.012C866.655 57.012 865.748 57.3213 865.087 57.94C864.426 58.5587 864.095 59.4227 864.095 60.532H860.671C860.671 59.252 860.959 58.1107 861.535 57.108C862.111 56.1053 862.932 55.3267 863.999 54.772C865.087 54.2173 866.346 53.94 867.775 53.94ZM865.727 76.724C865.066 76.724 864.511 76.5 864.063 76.052C863.615 75.604 863.391 75.0493 863.391 74.388C863.391 73.7267 863.615 73.172 864.063 72.724C864.511 72.276 865.066 72.052 865.727 72.052C866.367 72.052 866.911 72.276 867.359 72.724C867.807 73.172 868.031 73.7267 868.031 74.388C868.031 75.0493 867.807 75.604 867.359 76.052C866.911 76.5 866.367 76.724 865.727 76.724Z" fill="white"/>
</svg>
