<svg width="1070" height="131" viewBox="0 0 1070 131" fill="none" xmlns="http://www.w3.org/2000/svg">
<path d="M0.75 0.75H1022C1048.1 0.75 1069.25 21.9045 1069.25 48V130.25H48C21.9046 130.25 0.75 109.095 0.75 83V0.75Z" fill="#B8E2C8"/>
<path d="M0.75 0.75H1022C1048.1 0.75 1069.25 21.9045 1069.25 48V130.25H48C21.9046 130.25 0.75 109.095 0.75 83V0.75Z" stroke="#35794F" stroke-width="1.5"/>
<path d="M191.768 54.26V57.236H185.848V76.5H182.2V57.236H176.248V54.26H191.768ZM194.247 67.604C194.247 65.8333 194.609 64.2653 195.335 62.9C196.081 61.5347 197.084 60.4787 198.343 59.732C199.623 58.964 201.031 58.58 202.567 58.58C203.953 58.58 205.159 58.8573 206.183 59.412C207.228 59.9453 208.06 60.6173 208.679 61.428V58.868H212.359V76.5H208.679V73.876C208.06 74.708 207.217 75.4013 206.151 75.956C205.084 76.5107 203.868 76.788 202.503 76.788C200.988 76.788 199.601 76.404 198.343 75.636C197.084 74.8467 196.081 73.7587 195.335 72.372C194.609 70.964 194.247 69.3747 194.247 67.604ZM208.679 67.668C208.679 66.452 208.423 65.396 207.911 64.5C207.42 63.604 206.769 62.9213 205.959 62.452C205.148 61.9827 204.273 61.748 203.335 61.748C202.396 61.748 201.521 61.9827 200.711 62.452C199.9 62.9 199.239 63.572 198.727 64.468C198.236 65.3427 197.991 66.388 197.991 67.604C197.991 68.82 198.236 69.8867 198.727 70.804C199.239 71.7213 199.9 72.4253 200.711 72.916C201.543 73.3853 202.417 73.62 203.335 73.62C204.273 73.62 205.148 73.3853 205.959 72.916C206.769 72.4467 207.42 71.764 207.911 70.868C208.423 69.9507 208.679 68.884 208.679 67.668ZM224.126 67.7L232.254 76.5H227.326L220.798 68.916V76.5H217.15V52.82H220.798V66.58L227.198 58.868H232.254L224.126 67.7ZM251.029 67.252C251.029 67.9133 250.986 68.5107 250.901 69.044H237.429C237.536 70.452 238.058 71.5827 238.997 72.436C239.936 73.2893 241.088 73.716 242.453 73.716C244.416 73.716 245.802 72.8947 246.613 71.252H250.549C250.016 72.8733 249.045 74.2067 247.637 75.252C246.25 76.276 244.522 76.788 242.453 76.788C240.768 76.788 239.253 76.4147 237.909 75.668C236.586 74.9 235.541 73.8333 234.773 72.468C234.026 71.0813 233.653 69.4813 233.653 67.668C233.653 65.8547 234.016 64.2653 234.741 62.9C235.488 61.5133 236.522 60.4467 237.845 59.7C239.189 58.9533 240.725 58.58 242.453 58.58C244.117 58.58 245.6 58.9427 246.901 59.668C248.202 60.3933 249.216 61.4173 249.941 62.74C250.666 64.0413 251.029 65.5453 251.029 67.252ZM247.221 66.1C247.2 64.756 246.72 63.6787 245.781 62.868C244.842 62.0573 243.68 61.652 242.293 61.652C241.034 61.652 239.957 62.0573 239.061 62.868C238.165 63.6573 237.632 64.7347 237.461 66.1H247.221ZM261.715 67.604C261.715 65.8333 262.078 64.2653 262.803 62.9C263.55 61.5347 264.553 60.4787 265.811 59.732C267.091 58.964 268.499 58.58 270.035 58.58C271.422 58.58 272.627 58.8573 273.651 59.412C274.697 59.9453 275.529 60.6173 276.147 61.428V58.868H279.827V76.5H276.147V73.876C275.529 74.708 274.686 75.4013 273.619 75.956C272.553 76.5107 271.337 76.788 269.971 76.788C268.457 76.788 267.07 76.404 265.811 75.636C264.553 74.8467 263.55 73.7587 262.803 72.372C262.078 70.964 261.715 69.3747 261.715 67.604ZM276.147 67.668C276.147 66.452 275.891 65.396 275.379 64.5C274.889 63.604 274.238 62.9213 273.427 62.452C272.617 61.9827 271.742 61.748 270.803 61.748C269.865 61.748 268.99 61.9827 268.179 62.452C267.369 62.9 266.707 63.572 266.195 64.468C265.705 65.3427 265.459 66.388 265.459 67.604C265.459 68.82 265.705 69.8867 266.195 70.804C266.707 71.7213 267.369 72.4253 268.179 72.916C269.011 73.3853 269.886 73.62 270.803 73.62C271.742 73.62 272.617 73.3853 273.427 72.916C274.238 72.4467 274.889 71.764 275.379 70.868C275.891 69.9507 276.147 68.884 276.147 67.668ZM291.715 67.604C291.715 65.8333 292.078 64.2653 292.803 62.9C293.55 61.5347 294.553 60.4787 295.811 59.732C297.091 58.964 298.51 58.58 300.067 58.58C301.219 58.58 302.35 58.836 303.459 59.348C304.59 59.8387 305.486 60.5 306.147 61.332V52.82H309.827V76.5H306.147V73.844C305.55 74.6973 304.718 75.4013 303.651 75.956C302.606 76.5107 301.401 76.788 300.035 76.788C298.499 76.788 297.091 76.404 295.811 75.636C294.553 74.8467 293.55 73.7587 292.803 72.372C292.078 70.964 291.715 69.3747 291.715 67.604ZM306.147 67.668C306.147 66.452 305.891 65.396 305.379 64.5C304.889 63.604 304.238 62.9213 303.427 62.452C302.617 61.9827 301.742 61.748 300.803 61.748C299.865 61.748 298.99 61.9827 298.179 62.452C297.369 62.9 296.707 63.572 296.195 64.468C295.705 65.3427 295.459 66.388 295.459 67.604C295.459 68.82 295.705 69.8867 296.195 70.804C296.707 71.7213 297.369 72.4253 298.179 72.916C299.011 73.3853 299.886 73.62 300.803 73.62C301.742 73.62 302.617 73.3853 303.427 72.916C304.238 72.4467 304.889 71.764 305.379 70.868C305.891 69.9507 306.147 68.884 306.147 67.668ZM330.779 67.252C330.779 67.9133 330.736 68.5107 330.651 69.044H317.179C317.286 70.452 317.808 71.5827 318.747 72.436C319.686 73.2893 320.838 73.716 322.203 73.716C324.166 73.716 325.552 72.8947 326.363 71.252H330.299C329.766 72.8733 328.795 74.2067 327.387 75.252C326 76.276 324.272 76.788 322.203 76.788C320.518 76.788 319.003 76.4147 317.659 75.668C316.336 74.9 315.291 73.8333 314.523 72.468C313.776 71.0813 313.403 69.4813 313.403 67.668C313.403 65.8547 313.766 64.2653 314.491 62.9C315.238 61.5133 316.272 60.4467 317.595 59.7C318.939 58.9533 320.475 58.58 322.203 58.58C323.867 58.58 325.35 58.9427 326.651 59.668C327.952 60.3933 328.966 61.4173 329.691 62.74C330.416 64.0413 330.779 65.5453 330.779 67.252ZM326.971 66.1C326.95 64.756 326.47 63.6787 325.531 62.868C324.592 62.0573 323.43 61.652 322.043 61.652C320.784 61.652 319.707 62.0573 318.811 62.868C317.915 63.6573 317.382 64.7347 317.211 66.1H326.971ZM350.529 67.252C350.529 67.9133 350.486 68.5107 350.401 69.044H336.929C337.036 70.452 337.558 71.5827 338.497 72.436C339.436 73.2893 340.588 73.716 341.953 73.716C343.916 73.716 345.302 72.8947 346.113 71.252H350.049C349.516 72.8733 348.545 74.2067 347.137 75.252C345.75 76.276 344.022 76.788 341.953 76.788C340.268 76.788 338.753 76.4147 337.409 75.668C336.086 74.9 335.041 73.8333 334.273 72.468C333.526 71.0813 333.153 69.4813 333.153 67.668C333.153 65.8547 333.516 64.2653 334.241 62.9C334.988 61.5133 336.022 60.4467 337.345 59.7C338.689 58.9533 340.225 58.58 341.953 58.58C343.617 58.58 345.1 58.9427 346.401 59.668C347.702 60.3933 348.716 61.4173 349.441 62.74C350.166 64.0413 350.529 65.5453 350.529 67.252ZM346.721 66.1C346.7 64.756 346.22 63.6787 345.281 62.868C344.342 62.0573 343.18 61.652 341.793 61.652C340.534 61.652 339.457 62.0573 338.561 62.868C337.665 63.6573 337.132 64.7347 336.961 66.1H346.721ZM357.767 61.46C358.386 60.6493 359.228 59.9667 360.295 59.412C361.362 58.8573 362.567 58.58 363.911 58.58C365.447 58.58 366.844 58.964 368.103 59.732C369.383 60.4787 370.386 61.5347 371.111 62.9C371.836 64.2653 372.199 65.8333 372.199 67.604C372.199 69.3747 371.836 70.964 371.111 72.372C370.386 73.7587 369.383 74.8467 368.103 75.636C366.844 76.404 365.447 76.788 363.911 76.788C362.567 76.788 361.372 76.5213 360.327 75.988C359.282 75.4333 358.428 74.7507 357.767 73.94V84.884H354.119V58.868H357.767V61.46ZM368.487 67.604C368.487 66.388 368.231 65.3427 367.719 64.468C367.228 63.572 366.567 62.9 365.735 62.452C364.924 61.9827 364.05 61.748 363.111 61.748C362.194 61.748 361.319 61.9827 360.487 62.452C359.676 62.9213 359.015 63.604 358.503 64.5C358.012 65.396 357.767 66.452 357.767 67.668C357.767 68.884 358.012 69.9507 358.503 70.868C359.015 71.764 359.676 72.4467 360.487 72.916C361.319 73.3853 362.194 73.62 363.111 73.62C364.05 73.62 364.924 73.3853 365.735 72.916C366.567 72.4253 367.228 71.7213 367.719 70.804C368.231 69.8867 368.487 68.82 368.487 67.604ZM387.767 61.492C388.386 60.6387 389.228 59.9453 390.295 59.412C391.383 58.8573 392.588 58.58 393.911 58.58C395.468 58.58 396.876 58.9533 398.135 59.7C399.394 60.4467 400.386 61.5133 401.111 62.9C401.836 64.2653 402.199 65.8333 402.199 67.604C402.199 69.3747 401.836 70.964 401.111 72.372C400.386 73.7587 399.383 74.8467 398.103 75.636C396.844 76.404 395.447 76.788 393.911 76.788C392.546 76.788 391.33 76.5213 390.263 75.988C389.218 75.4547 388.386 74.772 387.767 73.94V76.5H384.119V52.82H387.767V61.492ZM398.487 67.604C398.487 66.388 398.231 65.3427 397.719 64.468C397.228 63.572 396.567 62.9 395.735 62.452C394.924 61.9827 394.05 61.748 393.111 61.748C392.194 61.748 391.319 61.9827 390.487 62.452C389.676 62.9213 389.015 63.604 388.503 64.5C388.012 65.396 387.767 66.452 387.767 67.668C387.767 68.884 388.012 69.9507 388.503 70.868C389.015 71.764 389.676 72.4467 390.487 72.916C391.319 73.3853 392.194 73.62 393.111 73.62C394.05 73.62 394.924 73.3853 395.735 72.916C396.567 72.4253 397.228 71.7213 397.719 70.804C398.231 69.8867 398.487 68.82 398.487 67.604ZM409.454 61.428C409.988 60.532 410.692 59.8387 411.566 59.348C412.462 58.836 413.518 58.58 414.734 58.58V62.356H413.806C412.377 62.356 411.289 62.7187 410.542 63.444C409.817 64.1693 409.454 65.428 409.454 67.22V76.5H405.806V58.868H409.454V61.428ZM434.248 67.252C434.248 67.9133 434.205 68.5107 434.12 69.044H420.648C420.754 70.452 421.277 71.5827 422.216 72.436C423.154 73.2893 424.306 73.716 425.672 73.716C427.634 73.716 429.021 72.8947 429.832 71.252H433.768C433.234 72.8733 432.264 74.2067 430.856 75.252C429.469 76.276 427.741 76.788 425.672 76.788C423.986 76.788 422.472 76.4147 421.128 75.668C419.805 74.9 418.76 73.8333 417.992 72.468C417.245 71.0813 416.872 69.4813 416.872 67.668C416.872 65.8547 417.234 64.2653 417.96 62.9C418.706 61.5133 419.741 60.4467 421.064 59.7C422.408 58.9533 423.944 58.58 425.672 58.58C427.336 58.58 428.818 58.9427 430.12 59.668C431.421 60.3933 432.434 61.4173 433.16 62.74C433.885 64.0413 434.248 65.5453 434.248 67.252ZM430.44 66.1C430.418 64.756 429.938 63.6787 429 62.868C428.061 62.0573 426.898 61.652 425.512 61.652C424.253 61.652 423.176 62.0573 422.28 62.868C421.384 63.6573 420.85 64.7347 420.68 66.1H430.44ZM436.622 67.604C436.622 65.8333 436.984 64.2653 437.71 62.9C438.456 61.5347 439.459 60.4787 440.718 59.732C441.998 58.964 443.406 58.58 444.942 58.58C446.328 58.58 447.534 58.8573 448.558 59.412C449.603 59.9453 450.435 60.6173 451.054 61.428V58.868H454.734V76.5H451.054V73.876C450.435 74.708 449.592 75.4013 448.526 75.956C447.459 76.5107 446.243 76.788 444.878 76.788C443.363 76.788 441.976 76.404 440.718 75.636C439.459 74.8467 438.456 73.7587 437.71 72.372C436.984 70.964 436.622 69.3747 436.622 67.604ZM451.054 67.668C451.054 66.452 450.798 65.396 450.286 64.5C449.795 63.604 449.144 62.9213 448.334 62.452C447.523 61.9827 446.648 61.748 445.71 61.748C444.771 61.748 443.896 61.9827 443.086 62.452C442.275 62.9 441.614 63.572 441.102 64.468C440.611 65.3427 440.366 66.388 440.366 67.604C440.366 68.82 440.611 69.8867 441.102 70.804C441.614 71.7213 442.275 72.4253 443.086 72.916C443.918 73.3853 444.792 73.62 445.71 73.62C446.648 73.62 447.523 73.3853 448.334 72.916C449.144 72.4467 449.795 71.764 450.286 70.868C450.798 69.9507 451.054 68.884 451.054 67.668ZM463.781 61.844V71.604C463.781 72.2653 463.931 72.7453 464.229 73.044C464.549 73.3213 465.083 73.46 465.829 73.46H468.069V76.5H465.189C463.547 76.5 462.288 76.116 461.413 75.348C460.539 74.58 460.101 73.332 460.101 71.604V61.844H458.021V58.868H460.101V54.484H463.781V58.868H468.069V61.844H463.781ZM480.551 58.58C481.895 58.58 483.09 58.868 484.135 59.444C485.202 60.02 486.034 60.8733 486.631 62.004C487.25 63.1347 487.559 64.5 487.559 66.1V76.5H483.943V66.644C483.943 65.0653 483.549 63.86 482.759 63.028C481.97 62.1747 480.893 61.748 479.527 61.748C478.162 61.748 477.074 62.1747 476.263 63.028C475.474 63.86 475.079 65.0653 475.079 66.644V76.5H471.431V52.82H475.079V60.916C475.698 60.1693 476.477 59.5933 477.415 59.188C478.375 58.7827 479.421 58.58 480.551 58.58ZM493.685 76.724C493.023 76.724 492.469 76.5 492.021 76.052C491.573 75.604 491.349 75.0493 491.349 74.388C491.349 73.7267 491.573 73.172 492.021 72.724C492.469 72.276 493.023 72.052 493.685 72.052C494.325 72.052 494.869 72.276 495.317 72.724C495.765 73.172 495.989 73.7267 495.989 74.388C495.989 75.0493 495.765 75.604 495.317 76.052C494.869 76.5 494.325 76.724 493.685 76.724ZM501.403 76.724C500.742 76.724 500.187 76.5 499.739 76.052C499.291 75.604 499.067 75.0493 499.067 74.388C499.067 73.7267 499.291 73.172 499.739 72.724C500.187 72.276 500.742 72.052 501.403 72.052C502.043 72.052 502.587 72.276 503.035 72.724C503.483 73.172 503.707 73.7267 503.707 74.388C503.707 75.0493 503.483 75.604 503.035 76.052C502.587 76.5 502.043 76.724 501.403 76.724ZM509.122 76.724C508.461 76.724 507.906 76.5 507.458 76.052C507.01 75.604 506.786 75.0493 506.786 74.388C506.786 73.7267 507.01 73.172 507.458 72.724C507.906 72.276 508.461 72.052 509.122 72.052C509.762 72.052 510.306 72.276 510.754 72.724C511.202 73.172 511.426 73.7267 511.426 74.388C511.426 75.0493 511.202 75.604 510.754 76.052C510.306 76.5 509.762 76.724 509.122 76.724ZM527.329 57.204V63.732H535.009V66.708H527.329V73.524H535.969V76.5H523.681V54.228H535.969V57.204H527.329ZM547.279 73.236L552.271 58.868H556.143L549.423 76.5H545.071L538.383 58.868H542.287L547.279 73.236ZM575.06 67.252C575.06 67.9133 575.018 68.5107 574.932 69.044H561.46C561.567 70.452 562.09 71.5827 563.028 72.436C563.967 73.2893 565.119 73.716 566.484 73.716C568.447 73.716 569.834 72.8947 570.644 71.252H574.58C574.047 72.8733 573.076 74.2067 571.668 75.252C570.282 76.276 568.554 76.788 566.484 76.788C564.799 76.788 563.284 76.4147 561.94 75.668C560.618 74.9 559.572 73.8333 558.804 72.468C558.058 71.0813 557.684 69.4813 557.684 67.668C557.684 65.8547 558.047 64.2653 558.772 62.9C559.519 61.5133 560.554 60.4467 561.876 59.7C563.22 58.9533 564.756 58.58 566.484 58.58C568.148 58.58 569.631 58.9427 570.932 59.668C572.234 60.3933 573.247 61.4173 573.972 62.74C574.698 64.0413 575.06 65.5453 575.06 67.252ZM571.252 66.1C571.231 64.756 570.751 63.6787 569.812 62.868C568.874 62.0573 567.711 61.652 566.324 61.652C565.066 61.652 563.988 62.0573 563.092 62.868C562.196 63.6573 561.663 64.7347 561.492 66.1H571.252ZM582.298 61.428C582.832 60.532 583.536 59.8387 584.41 59.348C585.306 58.836 586.362 58.58 587.578 58.58V62.356H586.65C585.221 62.356 584.133 62.7187 583.386 63.444C582.661 64.1693 582.298 65.428 582.298 67.22V76.5H578.65V58.868H582.298V61.428ZM606.803 58.868L595.987 84.788H592.211L595.795 76.212L588.851 58.868H592.915L597.875 72.308L603.027 58.868H606.803ZM613.812 61.844V71.604C613.812 72.2653 613.962 72.7453 614.26 73.044C614.58 73.3213 615.114 73.46 615.86 73.46H618.1V76.5H615.22C613.578 76.5 612.319 76.116 611.444 75.348C610.57 74.58 610.132 73.332 610.132 71.604V61.844H608.052V58.868H610.132V54.484H613.812V58.868H618.1V61.844H613.812ZM630.583 58.58C631.927 58.58 633.121 58.868 634.167 59.444C635.233 60.02 636.065 60.8733 636.663 62.004C637.281 63.1347 637.591 64.5 637.591 66.1V76.5H633.975V66.644C633.975 65.0653 633.58 63.86 632.791 63.028C632.001 62.1747 630.924 61.748 629.559 61.748C628.193 61.748 627.105 62.1747 626.295 63.028C625.505 63.86 625.111 65.0653 625.111 66.644V76.5H621.463V52.82H625.111V60.916C625.729 60.1693 626.508 59.5933 627.447 59.188C628.407 58.7827 629.452 58.58 630.583 58.58ZM644.1 56.532C643.439 56.532 642.884 56.308 642.436 55.86C641.988 55.412 641.764 54.8573 641.764 54.196C641.764 53.5347 641.988 52.98 642.436 52.532C642.884 52.084 643.439 51.86 644.1 51.86C644.74 51.86 645.284 52.084 645.732 52.532C646.18 52.98 646.404 53.5347 646.404 54.196C646.404 54.8573 646.18 55.412 645.732 55.86C645.284 56.308 644.74 56.532 644.1 56.532ZM645.892 58.868V76.5H642.244V58.868H645.892ZM659.577 58.58C660.964 58.58 662.201 58.868 663.289 59.444C664.399 60.02 665.263 60.8733 665.881 62.004C666.5 63.1347 666.809 64.5 666.809 66.1V76.5H663.193V66.644C663.193 65.0653 662.799 63.86 662.009 63.028C661.22 62.1747 660.143 61.748 658.777 61.748C657.412 61.748 656.324 62.1747 655.513 63.028C654.724 63.86 654.329 65.0653 654.329 66.644V76.5H650.681V58.868H654.329V60.884C654.927 60.1587 655.684 59.5933 656.601 59.188C657.54 58.7827 658.532 58.58 659.577 58.58ZM678.567 58.58C679.932 58.58 681.137 58.8573 682.183 59.412C683.249 59.9453 684.081 60.6173 684.679 61.428V58.868H688.359V76.788C688.359 78.4093 688.017 79.8493 687.335 81.108C686.652 82.388 685.66 83.3907 684.359 84.116C683.079 84.8413 681.543 85.204 679.751 85.204C677.361 85.204 675.377 84.6387 673.799 83.508C672.22 82.3987 671.324 80.884 671.111 78.964H674.727C675.004 79.8813 675.591 80.6173 676.487 81.172C677.404 81.748 678.492 82.036 679.751 82.036C681.223 82.036 682.407 81.588 683.303 80.692C684.22 79.796 684.679 78.4947 684.679 76.788V73.844C684.06 74.676 683.217 75.38 682.151 75.956C681.105 76.5107 679.911 76.788 678.567 76.788C677.031 76.788 675.623 76.404 674.343 75.636C673.084 74.8467 672.081 73.7587 671.335 72.372C670.609 70.964 670.247 69.3747 670.247 67.604C670.247 65.8333 670.609 64.2653 671.335 62.9C672.081 61.5347 673.084 60.4787 674.343 59.732C675.623 58.964 677.031 58.58 678.567 58.58ZM684.679 67.668C684.679 66.452 684.423 65.396 683.911 64.5C683.42 63.604 682.769 62.9213 681.959 62.452C681.148 61.9827 680.273 61.748 679.335 61.748C678.396 61.748 677.521 61.9827 676.711 62.452C675.9 62.9 675.239 63.572 674.727 64.468C674.236 65.3427 673.991 66.388 673.991 67.604C673.991 68.82 674.236 69.8867 674.727 70.804C675.239 71.7213 675.9 72.4253 676.711 72.916C677.543 73.3853 678.417 73.62 679.335 73.62C680.273 73.62 681.148 73.3853 681.959 72.916C682.769 72.4467 683.42 71.764 683.911 70.868C684.423 69.9507 684.679 68.884 684.679 67.668ZM725.143 58.868L719.671 76.5H715.831L712.279 63.476L708.727 76.5H704.887L699.383 58.868H703.095L706.775 73.044L710.519 58.868H714.327L717.911 72.98L721.559 58.868H725.143ZM729.725 56.532C729.064 56.532 728.509 56.308 728.061 55.86C727.613 55.412 727.389 54.8573 727.389 54.196C727.389 53.5347 727.613 52.98 728.061 52.532C728.509 52.084 729.064 51.86 729.725 51.86C730.365 51.86 730.909 52.084 731.357 52.532C731.805 52.98 732.029 53.5347 732.029 54.196C732.029 54.8573 731.805 55.412 731.357 55.86C730.909 56.308 730.365 56.532 729.725 56.532ZM731.517 58.868V76.5H727.869V58.868H731.517ZM739.954 52.82V76.5H736.306V52.82H739.954ZM748.392 52.82V76.5H744.744V52.82H748.392ZM765.142 61.492C765.761 60.6387 766.603 59.9453 767.67 59.412C768.758 58.8573 769.963 58.58 771.286 58.58C772.843 58.58 774.251 58.9533 775.51 59.7C776.769 60.4467 777.761 61.5133 778.486 62.9C779.211 64.2653 779.574 65.8333 779.574 67.604C779.574 69.3747 779.211 70.964 778.486 72.372C777.761 73.7587 776.758 74.8467 775.478 75.636C774.219 76.404 772.822 76.788 771.286 76.788C769.921 76.788 768.705 76.5213 767.638 75.988C766.593 75.4547 765.761 74.772 765.142 73.94V76.5H761.494V52.82H765.142V61.492ZM775.862 67.604C775.862 66.388 775.606 65.3427 775.094 64.468C774.603 63.572 773.942 62.9 773.11 62.452C772.299 61.9827 771.425 61.748 770.486 61.748C769.569 61.748 768.694 61.9827 767.862 62.452C767.051 62.9213 766.39 63.604 765.878 64.5C765.387 65.396 765.142 66.452 765.142 67.668C765.142 68.884 765.387 69.9507 765.878 70.868C766.39 71.764 767.051 72.4467 767.862 72.916C768.694 73.3853 769.569 73.62 770.486 73.62C771.425 73.62 772.299 73.3853 773.11 72.916C773.942 72.4253 774.603 71.7213 775.094 70.804C775.606 69.8867 775.862 68.82 775.862 67.604ZM799.341 67.252C799.341 67.9133 799.299 68.5107 799.213 69.044H785.741C785.848 70.452 786.371 71.5827 787.309 72.436C788.248 73.2893 789.4 73.716 790.765 73.716C792.728 73.716 794.115 72.8947 794.925 71.252H798.861C798.328 72.8733 797.357 74.2067 795.949 75.252C794.563 76.276 792.835 76.788 790.765 76.788C789.08 76.788 787.565 76.4147 786.221 75.668C784.899 74.9 783.853 73.8333 783.085 72.468C782.339 71.0813 781.965 69.4813 781.965 67.668C781.965 65.8547 782.328 64.2653 783.053 62.9C783.8 61.5133 784.835 60.4467 786.157 59.7C787.501 58.9533 789.037 58.58 790.765 58.58C792.429 58.58 793.912 58.9427 795.213 59.668C796.515 60.3933 797.528 61.4173 798.253 62.74C798.979 64.0413 799.341 65.5453 799.341 67.252ZM795.533 66.1C795.512 64.756 795.032 63.6787 794.093 62.868C793.155 62.0573 791.992 61.652 790.605 61.652C789.347 61.652 788.269 62.0573 787.373 62.868C786.477 63.6573 785.944 64.7347 785.773 66.1H795.533ZM818.892 76.788C817.228 76.788 815.724 76.4147 814.38 75.668C813.036 74.9 811.98 73.8333 811.212 72.468C810.444 71.0813 810.06 69.4813 810.06 67.668C810.06 65.876 810.455 64.2867 811.244 62.9C812.033 61.5133 813.111 60.4467 814.476 59.7C815.841 58.9533 817.367 58.58 819.052 58.58C820.737 58.58 822.263 58.9533 823.628 59.7C824.993 60.4467 826.071 61.5133 826.86 62.9C827.649 64.2867 828.044 65.876 828.044 67.668C828.044 69.46 827.639 71.0493 826.828 72.436C826.017 73.8227 824.908 74.9 823.5 75.668C822.113 76.4147 820.577 76.788 818.892 76.788ZM818.892 73.62C819.831 73.62 820.705 73.396 821.516 72.948C822.348 72.5 823.02 71.828 823.532 70.932C824.044 70.036 824.3 68.948 824.3 67.668C824.3 66.388 824.055 65.3107 823.564 64.436C823.073 63.54 822.423 62.868 821.612 62.42C820.801 61.972 819.927 61.748 818.988 61.748C818.049 61.748 817.175 61.972 816.364 62.42C815.575 62.868 814.945 63.54 814.476 64.436C814.007 65.3107 813.772 66.388 813.772 67.668C813.772 69.5667 814.252 71.0387 815.212 72.084C816.193 73.108 817.42 73.62 818.892 73.62ZM838.626 67.7L846.754 76.5H841.826L835.298 68.916V76.5H831.65V52.82H835.298V66.58L841.698 58.868H846.754L838.626 67.7ZM848.153 67.604C848.153 65.8333 848.516 64.2653 849.241 62.9C849.988 61.5347 850.99 60.4787 852.249 59.732C853.529 58.964 854.937 58.58 856.473 58.58C857.86 58.58 859.065 58.8573 860.089 59.412C861.134 59.9453 861.966 60.6173 862.585 61.428V58.868H866.265V76.5H862.585V73.876C861.966 74.708 861.124 75.4013 860.057 75.956C858.99 76.5107 857.774 76.788 856.409 76.788C854.894 76.788 853.508 76.404 852.249 75.636C850.99 74.8467 849.988 73.7587 849.241 72.372C848.516 70.964 848.153 69.3747 848.153 67.604ZM862.585 67.668C862.585 66.452 862.329 65.396 861.817 64.5C861.326 63.604 860.676 62.9213 859.865 62.452C859.054 61.9827 858.18 61.748 857.241 61.748C856.302 61.748 855.428 61.9827 854.617 62.452C853.806 62.9 853.145 63.572 852.633 64.468C852.142 65.3427 851.897 66.388 851.897 67.604C851.897 68.82 852.142 69.8867 852.633 70.804C853.145 71.7213 853.806 72.4253 854.617 72.916C855.449 73.3853 856.324 73.62 857.241 73.62C858.18 73.62 859.054 73.3853 859.865 72.916C860.676 72.4467 861.326 71.764 861.817 70.868C862.329 69.9507 862.585 68.884 862.585 67.668ZM886.928 58.868L876.112 84.788H872.336L875.92 76.212L868.976 58.868H873.04L878 72.308L883.152 58.868H886.928ZM891.153 76.724C890.492 76.724 889.937 76.5 889.489 76.052C889.041 75.604 888.817 75.0493 888.817 74.388C888.817 73.7267 889.041 73.172 889.489 72.724C889.937 72.276 890.492 72.052 891.153 72.052C891.793 72.052 892.337 72.276 892.785 72.724C893.233 73.172 893.457 73.7267 893.457 74.388C893.457 75.0493 893.233 75.604 892.785 76.052C892.337 76.5 891.793 76.724 891.153 76.724Z" fill="black"/>
</svg>
