<svg width="1070" height="132" viewBox="0 0 1070 132" fill="none" xmlns="http://www.w3.org/2000/svg">
<path d="M0.75 1.25H1022C1048.1 1.25 1069.25 22.4045 1069.25 48.5V130.75H48C21.9046 130.75 0.75 109.595 0.75 83.5V1.25Z" fill="#66BB6A"/>
<path d="M0.75 1.25H1022C1048.1 1.25 1069.25 22.4045 1069.25 48.5V130.75H48C21.9046 130.75 0.75 109.595 0.75 83.5V1.25Z" stroke="#35794F" stroke-width="1.5"/>
<path d="M191.408 54.76V77H187.76V54.76H191.408ZM198.181 51.496L197.797 58.056H195.301L194.885 51.496H198.181ZM223.041 59.08C224.428 59.08 225.665 59.368 226.753 59.944C227.862 60.52 228.726 61.3733 229.345 62.504C229.985 63.6347 230.305 65 230.305 66.6V77H226.689V67.144C226.689 65.5653 226.294 64.36 225.505 63.528C224.716 62.6747 223.638 62.248 222.273 62.248C220.908 62.248 219.82 62.6747 219.009 63.528C218.22 64.36 217.825 65.5653 217.825 67.144V77H214.209V67.144C214.209 65.5653 213.814 64.36 213.025 63.528C212.236 62.6747 211.158 62.248 209.793 62.248C208.428 62.248 207.34 62.6747 206.529 63.528C205.74 64.36 205.345 65.5653 205.345 67.144V77H201.697V59.368H205.345V61.384C205.942 60.6587 206.7 60.0933 207.617 59.688C208.534 59.2827 209.516 59.08 210.561 59.08C211.969 59.08 213.228 59.3787 214.337 59.976C215.446 60.5733 216.3 61.4373 216.897 62.568C217.43 61.5013 218.262 60.6587 219.393 60.04C220.524 59.4 221.74 59.08 223.041 59.08ZM252.38 59.08C253.724 59.08 254.918 59.368 255.964 59.944C257.03 60.52 257.862 61.3733 258.46 62.504C259.078 63.6347 259.388 65 259.388 66.6V77H255.772V67.144C255.772 65.5653 255.377 64.36 254.588 63.528C253.798 62.6747 252.721 62.248 251.356 62.248C249.99 62.248 248.902 62.6747 248.092 63.528C247.302 64.36 246.908 65.5653 246.908 67.144V77H243.26V53.32H246.908V61.416C247.526 60.6693 248.305 60.0933 249.244 59.688C250.204 59.2827 251.249 59.08 252.38 59.08ZM280.201 67.752C280.201 68.4133 280.158 69.0107 280.073 69.544H266.601C266.708 70.952 267.23 72.0827 268.169 72.936C269.108 73.7893 270.26 74.216 271.625 74.216C273.588 74.216 274.974 73.3947 275.785 71.752H279.721C279.188 73.3733 278.217 74.7067 276.809 75.752C275.422 76.776 273.694 77.288 271.625 77.288C269.94 77.288 268.425 76.9147 267.081 76.168C265.758 75.4 264.713 74.3333 263.945 72.968C263.198 71.5813 262.825 69.9813 262.825 68.168C262.825 66.3547 263.188 64.7653 263.913 63.4C264.66 62.0133 265.694 60.9467 267.017 60.2C268.361 59.4533 269.897 59.08 271.625 59.08C273.289 59.08 274.772 59.4427 276.073 60.168C277.374 60.8933 278.388 61.9173 279.113 63.24C279.838 64.5413 280.201 66.0453 280.201 67.752ZM276.393 66.6C276.372 65.256 275.892 64.1787 274.953 63.368C274.014 62.5573 272.852 62.152 271.465 62.152C270.206 62.152 269.129 62.5573 268.233 63.368C267.337 64.1573 266.804 65.2347 266.633 66.6H276.393ZM287.439 61.928C287.972 61.032 288.676 60.3387 289.551 59.848C290.447 59.336 291.503 59.08 292.719 59.08V62.856H291.791C290.362 62.856 289.274 63.2187 288.527 63.944C287.802 64.6693 287.439 65.928 287.439 67.72V77H283.791V59.368H287.439V61.928ZM312.232 67.752C312.232 68.4133 312.189 69.0107 312.104 69.544H298.632C298.739 70.952 299.261 72.0827 300.2 72.936C301.139 73.7893 302.291 74.216 303.656 74.216C305.619 74.216 307.005 73.3947 307.816 71.752H311.752C311.219 73.3733 310.248 74.7067 308.84 75.752C307.453 76.776 305.725 77.288 303.656 77.288C301.971 77.288 300.456 76.9147 299.112 76.168C297.789 75.4 296.744 74.3333 295.976 72.968C295.229 71.5813 294.856 69.9813 294.856 68.168C294.856 66.3547 295.219 64.7653 295.944 63.4C296.691 62.0133 297.725 60.9467 299.048 60.2C300.392 59.4533 301.928 59.08 303.656 59.08C305.32 59.08 306.803 59.4427 308.104 60.168C309.405 60.8933 310.419 61.9173 311.144 63.24C311.869 64.5413 312.232 66.0453 312.232 67.752ZM308.424 66.6C308.403 65.256 307.923 64.1787 306.984 63.368C306.045 62.5573 304.883 62.152 303.496 62.152C302.237 62.152 301.16 62.5573 300.264 63.368C299.368 64.1573 298.835 65.2347 298.664 66.6H308.424ZM328.391 62.344V72.104C328.391 72.7653 328.54 73.2453 328.839 73.544C329.159 73.8213 329.692 73.96 330.439 73.96H332.679V77H329.799C328.156 77 326.897 76.616 326.023 75.848C325.148 75.08 324.711 73.832 324.711 72.104V62.344H322.631V59.368H324.711V54.984H328.391V59.368H332.679V62.344H328.391ZM343.689 77.288C342.025 77.288 340.521 76.9147 339.177 76.168C337.833 75.4 336.777 74.3333 336.009 72.968C335.241 71.5813 334.857 69.9813 334.857 68.168C334.857 66.376 335.252 64.7867 336.041 63.4C336.83 62.0133 337.908 60.9467 339.273 60.2C340.638 59.4533 342.164 59.08 343.849 59.08C345.534 59.08 347.06 59.4533 348.425 60.2C349.79 60.9467 350.868 62.0133 351.657 63.4C352.446 64.7867 352.841 66.376 352.841 68.168C352.841 69.96 352.436 71.5493 351.625 72.936C350.814 74.3227 349.705 75.4 348.297 76.168C346.91 76.9147 345.374 77.288 343.689 77.288ZM343.689 74.12C344.628 74.12 345.502 73.896 346.313 73.448C347.145 73 347.817 72.328 348.329 71.432C348.841 70.536 349.097 69.448 349.097 68.168C349.097 66.888 348.852 65.8107 348.361 64.936C347.87 64.04 347.22 63.368 346.409 62.92C345.598 62.472 344.724 62.248 343.785 62.248C342.846 62.248 341.972 62.472 341.161 62.92C340.372 63.368 339.742 64.04 339.273 64.936C338.804 65.8107 338.569 66.888 338.569 68.168C338.569 70.0667 339.049 71.5387 340.009 72.584C340.99 73.608 342.217 74.12 343.689 74.12ZM373.88 59.08C375.224 59.08 376.418 59.368 377.464 59.944C378.53 60.52 379.362 61.3733 379.96 62.504C380.578 63.6347 380.888 65 380.888 66.6V77H377.272V67.144C377.272 65.5653 376.877 64.36 376.088 63.528C375.298 62.6747 374.221 62.248 372.856 62.248C371.49 62.248 370.402 62.6747 369.592 63.528C368.802 64.36 368.408 65.5653 368.408 67.144V77H364.76V53.32H368.408V61.416C369.026 60.6693 369.805 60.0933 370.744 59.688C371.704 59.2827 372.749 59.08 373.88 59.08ZM401.701 67.752C401.701 68.4133 401.658 69.0107 401.573 69.544H388.101C388.208 70.952 388.73 72.0827 389.669 72.936C390.608 73.7893 391.76 74.216 393.125 74.216C395.088 74.216 396.474 73.3947 397.285 71.752H401.221C400.688 73.3733 399.717 74.7067 398.309 75.752C396.922 76.776 395.194 77.288 393.125 77.288C391.44 77.288 389.925 76.9147 388.581 76.168C387.258 75.4 386.213 74.3333 385.445 72.968C384.698 71.5813 384.325 69.9813 384.325 68.168C384.325 66.3547 384.688 64.7653 385.413 63.4C386.16 62.0133 387.194 60.9467 388.517 60.2C389.861 59.4533 391.397 59.08 393.125 59.08C394.789 59.08 396.272 59.4427 397.573 60.168C398.874 60.8933 399.888 61.9173 400.613 63.24C401.338 64.5413 401.701 66.0453 401.701 67.752ZM397.893 66.6C397.872 65.256 397.392 64.1787 396.453 63.368C395.514 62.5573 394.352 62.152 392.965 62.152C391.706 62.152 390.629 62.5573 389.733 63.368C388.837 64.1573 388.304 65.2347 388.133 66.6H397.893ZM408.939 53.32V77H405.291V53.32H408.939ZM417.376 61.96C417.995 61.1493 418.838 60.4667 419.904 59.912C420.971 59.3573 422.176 59.08 423.52 59.08C425.056 59.08 426.454 59.464 427.712 60.232C428.992 60.9787 429.995 62.0347 430.72 63.4C431.446 64.7653 431.808 66.3333 431.808 68.104C431.808 69.8747 431.446 71.464 430.72 72.872C429.995 74.2587 428.992 75.3467 427.712 76.136C426.454 76.904 425.056 77.288 423.52 77.288C422.176 77.288 420.982 77.0213 419.936 76.488C418.891 75.9333 418.038 75.2507 417.376 74.44V85.384H413.728V59.368H417.376V61.96ZM428.096 68.104C428.096 66.888 427.84 65.8427 427.328 64.968C426.838 64.072 426.176 63.4 425.344 62.952C424.534 62.4827 423.659 62.248 422.72 62.248C421.803 62.248 420.928 62.4827 420.096 62.952C419.286 63.4213 418.624 64.104 418.112 65C417.622 65.896 417.376 66.952 417.376 68.168C417.376 69.384 417.622 70.4507 418.112 71.368C418.624 72.264 419.286 72.9467 420.096 73.416C420.928 73.8853 421.803 74.12 422.72 74.12C423.659 74.12 424.534 73.8853 425.344 73.416C426.176 72.9253 426.838 72.2213 427.328 71.304C427.84 70.3867 428.096 69.32 428.096 68.104ZM436.888 77.224C436.227 77.224 435.672 77 435.224 76.552C434.776 76.104 434.552 75.5493 434.552 74.888C434.552 74.2267 434.776 73.672 435.224 73.224C435.672 72.776 436.227 72.552 436.888 72.552C437.528 72.552 438.072 72.776 438.52 73.224C438.968 73.672 439.192 74.2267 439.192 74.888C439.192 75.5493 438.968 76.104 438.52 76.552C438.072 77 437.528 77.224 436.888 77.224ZM458.775 77.224C457.282 77.224 455.938 76.968 454.743 76.456C453.548 75.9227 452.61 75.176 451.927 74.216C451.244 73.256 450.903 72.136 450.903 70.856H454.807C454.892 71.816 455.266 72.6053 455.927 73.224C456.61 73.8427 457.559 74.152 458.775 74.152C460.034 74.152 461.015 73.8533 461.719 73.256C462.423 72.6373 462.775 71.848 462.775 70.888C462.775 70.1413 462.551 69.5333 462.103 69.064C461.676 68.5947 461.132 68.232 460.471 67.976C459.831 67.72 458.935 67.4427 457.783 67.144C456.332 66.76 455.148 66.376 454.231 65.992C453.335 65.5867 452.567 64.968 451.927 64.136C451.287 63.304 450.967 62.1947 450.967 60.808C450.967 59.528 451.287 58.408 451.927 57.448C452.567 56.488 453.463 55.752 454.615 55.24C455.767 54.728 457.1 54.472 458.615 54.472C460.77 54.472 462.53 55.016 463.895 56.104C465.282 57.1707 466.05 58.6427 466.199 60.52H462.167C462.103 59.7093 461.719 59.016 461.015 58.44C460.311 57.864 459.383 57.576 458.231 57.576C457.186 57.576 456.332 57.8427 455.671 58.376C455.01 58.9093 454.679 59.6773 454.679 60.68C454.679 61.3627 454.882 61.928 455.287 62.376C455.714 62.8027 456.247 63.144 456.887 63.4C457.527 63.656 458.402 63.9333 459.511 64.232C460.983 64.6373 462.178 65.0427 463.095 65.448C464.034 65.8533 464.823 66.4827 465.463 67.336C466.124 68.168 466.455 69.288 466.455 70.696C466.455 71.8267 466.146 72.8933 465.527 73.896C464.93 74.8987 464.044 75.7093 462.871 76.328C461.719 76.9253 460.354 77.224 458.775 77.224ZM479.88 59.08C481.224 59.08 482.418 59.368 483.464 59.944C484.53 60.52 485.362 61.3733 485.96 62.504C486.578 63.6347 486.888 65 486.888 66.6V77H483.272V67.144C483.272 65.5653 482.877 64.36 482.088 63.528C481.298 62.6747 480.221 62.248 478.856 62.248C477.49 62.248 476.402 62.6747 475.592 63.528C474.802 64.36 474.408 65.5653 474.408 67.144V77H470.76V53.32H474.408V61.416C475.026 60.6693 475.805 60.0933 476.744 59.688C477.704 59.2827 478.749 59.08 479.88 59.08ZM490.325 68.104C490.325 66.3333 490.688 64.7653 491.413 63.4C492.16 62.0347 493.162 60.9787 494.421 60.232C495.701 59.464 497.109 59.08 498.645 59.08C500.032 59.08 501.237 59.3573 502.261 59.912C503.306 60.4453 504.138 61.1173 504.757 61.928V59.368H508.437V77H504.757V74.376C504.138 75.208 503.296 75.9013 502.229 76.456C501.162 77.0107 499.946 77.288 498.581 77.288C497.066 77.288 495.68 76.904 494.421 76.136C493.162 75.3467 492.16 74.2587 491.413 72.872C490.688 71.464 490.325 69.8747 490.325 68.104ZM504.757 68.168C504.757 66.952 504.501 65.896 503.989 65C503.498 64.104 502.848 63.4213 502.037 62.952C501.226 62.4827 500.352 62.248 499.413 62.248C498.474 62.248 497.6 62.4827 496.789 62.952C495.978 63.4 495.317 64.072 494.805 64.968C494.314 65.8427 494.069 66.888 494.069 68.104C494.069 69.32 494.314 70.3867 494.805 71.304C495.317 72.2213 495.978 72.9253 496.789 73.416C497.621 73.8853 498.496 74.12 499.413 74.12C500.352 74.12 501.226 73.8853 502.037 73.416C502.848 72.9467 503.498 72.264 503.989 71.368C504.501 70.4507 504.757 69.384 504.757 68.168ZM516.876 61.928C517.41 61.032 518.114 60.3387 518.988 59.848C519.884 59.336 520.94 59.08 522.156 59.08V62.856H521.228C519.799 62.856 518.711 63.2187 517.964 63.944C517.239 64.6693 516.876 65.928 516.876 67.72V77H513.228V59.368H516.876V61.928ZM541.67 67.752C541.67 68.4133 541.627 69.0107 541.542 69.544H528.07C528.176 70.952 528.699 72.0827 529.638 72.936C530.576 73.7893 531.728 74.216 533.094 74.216C535.056 74.216 536.443 73.3947 537.254 71.752H541.19C540.656 73.3733 539.686 74.7067 538.278 75.752C536.891 76.776 535.163 77.288 533.094 77.288C531.408 77.288 529.894 76.9147 528.55 76.168C527.227 75.4 526.182 74.3333 525.414 72.968C524.667 71.5813 524.294 69.9813 524.294 68.168C524.294 66.3547 524.656 64.7653 525.382 63.4C526.128 62.0133 527.163 60.9467 528.486 60.2C529.83 59.4533 531.366 59.08 533.094 59.08C534.758 59.08 536.24 59.4427 537.542 60.168C538.843 60.8933 539.856 61.9173 540.582 63.24C541.307 64.5413 541.67 66.0453 541.67 67.752ZM537.862 66.6C537.84 65.256 537.36 64.1787 536.422 63.368C535.483 62.5573 534.32 62.152 532.934 62.152C531.675 62.152 530.598 62.5573 529.702 63.368C528.806 64.1573 528.272 65.2347 528.102 66.6H537.862ZM577.252 59.368L571.78 77H567.94L564.388 63.976L560.836 77H556.996L551.492 59.368H555.204L558.884 73.544L562.628 59.368H566.436L570.02 73.48L573.668 59.368H577.252ZM589.098 59.08C590.442 59.08 591.637 59.368 592.682 59.944C593.749 60.52 594.581 61.3733 595.178 62.504C595.797 63.6347 596.106 65 596.106 66.6V77H592.49V67.144C592.49 65.5653 592.096 64.36 591.306 63.528C590.517 62.6747 589.44 62.248 588.074 62.248C586.709 62.248 585.621 62.6747 584.81 63.528C584.021 64.36 583.626 65.5653 583.626 67.144V77H579.978V53.32H583.626V61.416C584.245 60.6693 585.024 60.0933 585.962 59.688C586.922 59.2827 587.968 59.08 589.098 59.08ZM599.544 68.104C599.544 66.3333 599.906 64.7653 600.632 63.4C601.378 62.0347 602.381 60.9787 603.64 60.232C604.92 59.464 606.328 59.08 607.864 59.08C609.25 59.08 610.456 59.3573 611.48 59.912C612.525 60.4453 613.357 61.1173 613.976 61.928V59.368H617.656V77H613.976V74.376C613.357 75.208 612.514 75.9013 611.448 76.456C610.381 77.0107 609.165 77.288 607.8 77.288C606.285 77.288 604.898 76.904 603.64 76.136C602.381 75.3467 601.378 74.2587 600.632 72.872C599.906 71.464 599.544 69.8747 599.544 68.104ZM613.976 68.168C613.976 66.952 613.72 65.896 613.208 65C612.717 64.104 612.066 63.4213 611.256 62.952C610.445 62.4827 609.57 62.248 608.632 62.248C607.693 62.248 606.818 62.4827 606.008 62.952C605.197 63.4 604.536 64.072 604.024 64.968C603.533 65.8427 603.288 66.888 603.288 68.104C603.288 69.32 603.533 70.3867 604.024 71.304C604.536 72.2213 605.197 72.9253 606.008 73.416C606.84 73.8853 607.714 74.12 608.632 74.12C609.57 74.12 610.445 73.8853 611.256 73.416C612.066 72.9467 612.717 72.264 613.208 71.368C613.72 70.4507 613.976 69.384 613.976 68.168ZM626.703 62.344V72.104C626.703 72.7653 626.852 73.2453 627.151 73.544C627.471 73.8213 628.004 73.96 628.751 73.96H630.991V77H628.111C626.468 77 625.21 76.616 624.335 75.848C623.46 75.08 623.023 73.832 623.023 72.104V62.344H620.943V59.368H623.023V54.984H626.703V59.368H630.991V62.344H626.703ZM636.337 51.496L635.953 58.056H633.457L633.041 51.496H636.337ZM646.253 77.288C644.867 77.288 643.619 77.0427 642.509 76.552C641.421 76.04 640.557 75.3573 639.917 74.504C639.277 73.6293 638.936 72.6587 638.893 71.592H642.669C642.733 72.3387 643.085 72.968 643.725 73.48C644.387 73.9707 645.208 74.216 646.189 74.216C647.213 74.216 648.003 74.024 648.557 73.64C649.133 73.2347 649.421 72.7227 649.421 72.104C649.421 71.4427 649.101 70.952 648.461 70.632C647.843 70.312 646.851 69.96 645.485 69.576C644.163 69.2133 643.085 68.8613 642.253 68.52C641.421 68.1787 640.696 67.656 640.077 66.952C639.48 66.248 639.181 65.32 639.181 64.168C639.181 63.2293 639.459 62.376 640.013 61.608C640.568 60.8187 641.357 60.2 642.381 59.752C643.427 59.304 644.621 59.08 645.965 59.08C647.971 59.08 649.581 59.592 650.797 60.616C652.035 61.6187 652.696 62.9947 652.781 64.744H649.133C649.069 63.9547 648.749 63.3253 648.173 62.856C647.597 62.3867 646.819 62.152 645.837 62.152C644.877 62.152 644.141 62.3333 643.629 62.696C643.117 63.0587 642.861 63.5387 642.861 64.136C642.861 64.6053 643.032 65 643.373 65.32C643.715 65.64 644.131 65.896 644.621 66.088C645.112 66.2587 645.837 66.4827 646.797 66.76C648.077 67.1013 649.123 67.4533 649.933 67.816C650.765 68.1573 651.48 68.6693 652.077 69.352C652.675 70.0347 652.984 70.9413 653.005 72.072C653.005 73.0747 652.728 73.9707 652.173 74.76C651.619 75.5493 650.829 76.168 649.805 76.616C648.803 77.064 647.619 77.288 646.253 77.288ZM672.908 77.288C671.244 77.288 669.74 76.9147 668.396 76.168C667.052 75.4 665.996 74.3333 665.228 72.968C664.46 71.5813 664.076 69.9813 664.076 68.168C664.076 66.376 664.47 64.7867 665.26 63.4C666.049 62.0133 667.126 60.9467 668.492 60.2C669.857 59.4533 671.382 59.08 673.068 59.08C674.753 59.08 676.278 59.4533 677.644 60.2C679.009 60.9467 680.086 62.0133 680.876 63.4C681.665 64.7867 682.06 66.376 682.06 68.168C682.06 69.96 681.654 71.5493 680.844 72.936C680.033 74.3227 678.924 75.4 677.516 76.168C676.129 76.9147 674.593 77.288 672.908 77.288ZM672.908 74.12C673.846 74.12 674.721 73.896 675.532 73.448C676.364 73 677.036 72.328 677.548 71.432C678.06 70.536 678.316 69.448 678.316 68.168C678.316 66.888 678.07 65.8107 677.58 64.936C677.089 64.04 676.438 63.368 675.628 62.92C674.817 62.472 673.942 62.248 673.004 62.248C672.065 62.248 671.19 62.472 670.38 62.92C669.59 63.368 668.961 64.04 668.492 64.936C668.022 65.8107 667.788 66.888 667.788 68.168C667.788 70.0667 668.268 71.5387 669.228 72.584C670.209 73.608 671.436 74.12 672.908 74.12ZM694.562 59.08C695.949 59.08 697.186 59.368 698.274 59.944C699.383 60.52 700.247 61.3733 700.866 62.504C701.485 63.6347 701.794 65 701.794 66.6V77H698.178V67.144C698.178 65.5653 697.783 64.36 696.994 63.528C696.205 62.6747 695.127 62.248 693.762 62.248C692.397 62.248 691.309 62.6747 690.498 63.528C689.709 64.36 689.314 65.5653 689.314 67.144V77H685.666V59.368H689.314V61.384C689.911 60.6587 690.669 60.0933 691.586 59.688C692.525 59.2827 693.517 59.08 694.562 59.08ZM730.632 59.368L719.816 85.288H716.04L719.624 76.712L712.68 59.368H716.744L721.704 72.808L726.856 59.368H730.632ZM741.033 77.288C739.369 77.288 737.865 76.9147 736.521 76.168C735.177 75.4 734.121 74.3333 733.353 72.968C732.585 71.5813 732.201 69.9813 732.201 68.168C732.201 66.376 732.595 64.7867 733.385 63.4C734.174 62.0133 735.251 60.9467 736.617 60.2C737.982 59.4533 739.507 59.08 741.193 59.08C742.878 59.08 744.403 59.4533 745.769 60.2C747.134 60.9467 748.211 62.0133 749.001 63.4C749.79 64.7867 750.185 66.376 750.185 68.168C750.185 69.96 749.779 71.5493 748.969 72.936C748.158 74.3227 747.049 75.4 745.641 76.168C744.254 76.9147 742.718 77.288 741.033 77.288ZM741.033 74.12C741.971 74.12 742.846 73.896 743.657 73.448C744.489 73 745.161 72.328 745.673 71.432C746.185 70.536 746.441 69.448 746.441 68.168C746.441 66.888 746.195 65.8107 745.705 64.936C745.214 64.04 744.563 63.368 743.753 62.92C742.942 62.472 742.067 62.248 741.129 62.248C740.19 62.248 739.315 62.472 738.505 62.92C737.715 63.368 737.086 64.04 736.617 64.936C736.147 65.8107 735.913 66.888 735.913 68.168C735.913 70.0667 736.393 71.5387 737.353 72.584C738.334 73.608 739.561 74.12 741.033 74.12ZM769.759 59.368V77H766.111V74.92C765.535 75.6453 764.778 76.2213 763.839 76.648C762.922 77.0533 761.94 77.256 760.895 77.256C759.508 77.256 758.26 76.968 757.151 76.392C756.063 75.816 755.199 74.9627 754.559 73.832C753.94 72.7013 753.631 71.336 753.631 69.736V59.368H757.247V69.192C757.247 70.7707 757.642 71.9867 758.431 72.84C759.22 73.672 760.298 74.088 761.663 74.088C763.028 74.088 764.106 73.672 764.895 72.84C765.706 71.9867 766.111 70.7707 766.111 69.192V59.368H769.759ZM778.22 61.928C778.753 61.032 779.457 60.3387 780.332 59.848C781.228 59.336 782.284 59.08 783.5 59.08V62.856H782.572C781.143 62.856 780.055 63.2187 779.308 63.944C778.583 64.6693 778.22 65.928 778.22 67.72V77H774.572V59.368H778.22V61.928ZM816.51 59.08C817.897 59.08 819.134 59.368 820.222 59.944C821.331 60.52 822.195 61.3733 822.814 62.504C823.454 63.6347 823.774 65 823.774 66.6V77H820.158V67.144C820.158 65.5653 819.763 64.36 818.974 63.528C818.185 62.6747 817.107 62.248 815.742 62.248C814.377 62.248 813.289 62.6747 812.478 63.528C811.689 64.36 811.294 65.5653 811.294 67.144V77H807.678V67.144C807.678 65.5653 807.283 64.36 806.494 63.528C805.705 62.6747 804.627 62.248 803.262 62.248C801.897 62.248 800.809 62.6747 799.998 63.528C799.209 64.36 798.814 65.5653 798.814 67.144V77H795.166V59.368H798.814V61.384C799.411 60.6587 800.169 60.0933 801.086 59.688C802.003 59.2827 802.985 59.08 804.03 59.08C805.438 59.08 806.697 59.3787 807.806 59.976C808.915 60.5733 809.769 61.4373 810.366 62.568C810.899 61.5013 811.731 60.6587 812.862 60.04C813.993 59.4 815.209 59.08 816.51 59.08ZM830.272 57.032C829.611 57.032 829.056 56.808 828.608 56.36C828.16 55.912 827.936 55.3573 827.936 54.696C827.936 54.0347 828.16 53.48 828.608 53.032C829.056 52.584 829.611 52.36 830.272 52.36C830.912 52.36 831.456 52.584 831.904 53.032C832.352 53.48 832.576 54.0347 832.576 54.696C832.576 55.3573 832.352 55.912 831.904 56.36C831.456 56.808 830.912 57.032 830.272 57.032ZM832.064 59.368V77H828.416V59.368H832.064ZM845.749 59.08C847.136 59.08 848.373 59.368 849.461 59.944C850.571 60.52 851.435 61.3733 852.053 62.504C852.672 63.6347 852.981 65 852.981 66.6V77H849.365V67.144C849.365 65.5653 848.971 64.36 848.181 63.528C847.392 62.6747 846.315 62.248 844.949 62.248C843.584 62.248 842.496 62.6747 841.685 63.528C840.896 64.36 840.501 65.5653 840.501 67.144V77H836.853V59.368H840.501V61.384C841.099 60.6587 841.856 60.0933 842.773 59.688C843.712 59.2827 844.704 59.08 845.749 59.08ZM856.419 68.104C856.419 66.3333 856.781 64.7653 857.507 63.4C858.253 62.0347 859.256 60.9787 860.515 60.232C861.795 59.464 863.213 59.08 864.771 59.08C865.923 59.08 867.053 59.336 868.163 59.848C869.293 60.3387 870.189 61 870.851 61.832V53.32H874.531V77H870.851V74.344C870.253 75.1973 869.421 75.9013 868.355 76.456C867.309 77.0107 866.104 77.288 864.739 77.288C863.203 77.288 861.795 76.904 860.515 76.136C859.256 75.3467 858.253 74.2587 857.507 72.872C856.781 71.464 856.419 69.8747 856.419 68.104ZM870.851 68.168C870.851 66.952 870.595 65.896 870.083 65C869.592 64.104 868.941 63.4213 868.131 62.952C867.32 62.4827 866.445 62.248 865.507 62.248C864.568 62.248 863.693 62.4827 862.883 62.952C862.072 63.4 861.411 64.072 860.899 64.968C860.408 65.8427 860.163 66.888 860.163 68.104C860.163 69.32 860.408 70.3867 860.899 71.304C861.411 72.2213 862.072 72.9253 862.883 73.416C863.715 73.8853 864.589 74.12 865.507 74.12C866.445 74.12 867.32 73.8853 868.131 73.416C868.941 72.9467 869.592 72.264 870.083 71.368C870.595 70.4507 870.851 69.384 870.851 68.168ZM880.794 77.224C880.133 77.224 879.578 77 879.13 76.552C878.682 76.104 878.458 75.5493 878.458 74.888C878.458 74.2267 878.682 73.672 879.13 73.224C879.578 72.776 880.133 72.552 880.794 72.552C881.434 72.552 881.978 72.776 882.426 73.224C882.874 73.672 883.098 74.2267 883.098 74.888C883.098 75.5493 882.874 76.104 882.426 76.552C881.978 77 881.434 77.224 880.794 77.224Z" fill="white"/>
</svg>
