<svg width="124" height="124" viewBox="0 0 124 124" fill="none" xmlns="http://www.w3.org/2000/svg">
<path d="M19.115 40.2412C19.115 40.2412 23.265 23.5968 48.389 13.1C73.513 2.60316 95.99 12.3251 101.114 24.6251C106.238 36.9251 100.868 43.5671 104.288 54.0713C107.707 64.5755 125.274 77.8792 118.184 94.0118C111.094 110.145 77.9188 114.752 51.0729 111.424C24.2269 108.095 3.25292 71.2224 19.115 40.2412Z" fill="#92E3A9"/>
<path opacity="0.7" d="M19.115 40.2412C19.115 40.2412 23.265 23.5968 48.389 13.1C73.513 2.60316 95.99 12.3251 101.114 24.6251C106.238 36.9251 100.868 43.5671 104.288 54.0713C107.707 64.5755 125.274 77.8792 118.184 94.0118C111.094 110.145 77.9188 114.752 51.0729 111.424C24.2269 108.095 3.25292 71.2224 19.115 40.2412Z" fill="white"/>
<path d="M60.9423 56.4822H64.7012V89.151H60.9423V56.4822Z" fill="#263238" stroke="#263238" stroke-linecap="round" stroke-linejoin="round"/>
<path d="M90.7476 68.3122V70.6099H75.7662V68.3122H90.7476Z" fill="#263238" stroke="#263238" stroke-linecap="round" stroke-linejoin="round"/>
<path d="M89.2077 60.3813H91.5054V69.5744H89.2077V60.3813Z" fill="#263238" stroke="#263238" stroke-linecap="round" stroke-linejoin="round"/>
<path d="M88.2505 69.6136C88.2505 69.89 88.305 70.1638 88.4108 70.4191C88.5167 70.6744 88.6718 70.9064 88.8674 71.1018C89.0629 71.2971 89.2951 71.452 89.5506 71.5575C89.806 71.6631 90.0798 71.7172 90.3562 71.7169C90.4251 71.7169 90.494 71.7169 90.5604 71.7169C90.9436 71.679 91.309 71.5368 91.617 71.3058C91.9249 71.0747 92.1637 70.7636 92.3072 70.4064C92.4507 70.0491 92.4936 69.6593 92.431 69.2794C92.3685 68.8995 92.203 68.544 91.9526 68.2516C91.7021 67.9592 91.3763 67.741 91.0105 67.6208C90.6447 67.5007 90.253 67.4831 89.8779 67.57C89.5028 67.6569 89.1587 67.845 88.8831 68.1138C88.6074 68.3826 88.4108 68.7218 88.3144 69.0946C88.2724 69.2644 88.2509 69.4387 88.2505 69.6136Z" fill="white" stroke="#263238" stroke-linecap="round" stroke-linejoin="round"/>
<path d="M88.0958 61.7983C88.0971 62.3562 88.3194 62.8908 88.7141 63.285C89.1088 63.6792 89.6437 63.901 90.2015 63.9016C90.2704 63.9016 90.3393 63.9016 90.4082 63.9016C90.7915 63.8649 91.1574 63.7237 91.4661 63.4935C91.7748 63.2633 92.0145 62.9528 92.159 62.5959C92.3036 62.2389 92.3475 61.8492 92.2859 61.469C92.2244 61.0889 92.0598 60.7329 91.8101 60.4398C91.5603 60.1466 91.2349 59.9276 90.8694 59.8065C90.5038 59.6854 90.1121 59.6669 89.7367 59.753C89.3613 59.839 89.0168 60.0263 88.7404 60.2946C88.4641 60.5628 88.2667 60.9017 88.1696 61.2743C88.1223 61.4451 88.0975 61.6212 88.0958 61.7983Z" fill="white" stroke="#263238" stroke-linecap="round" stroke-linejoin="round"/>
<path d="M84.325 56.0909L87.3877 57.74L86.7533 58.9183L83.6906 57.2692L84.325 56.0909Z" fill="#263238" stroke="#263238" stroke-linecap="round" stroke-linejoin="round"/>
<path d="M83.183 57.3974L84.691 58.2092L85.6553 56.4207L84.1448 55.6065C84.0263 55.5415 83.896 55.5009 83.7616 55.487C83.6271 55.4732 83.4913 55.4863 83.362 55.5258C83.2327 55.5652 83.1126 55.6301 83.0088 55.7166C82.905 55.8031 82.8195 55.9095 82.7574 56.0296C82.634 56.2677 82.6094 56.5449 82.6891 56.8009C82.7688 57.057 82.9462 57.2713 83.183 57.3974Z" fill="white" stroke="#263238" stroke-linecap="round" stroke-linejoin="round"/>
<path d="M89.7928 49.8132L89.901 56.0517L91.2368 56.0296L91.131 49.791L89.7928 49.8132Z" fill="#263238" stroke="#263238" stroke-linecap="round" stroke-linejoin="round"/>
<path d="M89.4312 49.4368L89.4583 51.1588L91.4902 51.1096L91.4632 49.3876C91.4609 49.2542 91.4324 49.1225 91.3793 49.0001C91.3261 48.8777 91.2494 48.7669 91.1535 48.6742C91.0575 48.5814 90.9442 48.5085 90.8201 48.4595C90.696 48.4106 90.5634 48.3865 90.43 48.3888C90.2952 48.3907 90.1621 48.4195 90.0386 48.4734C89.915 48.5274 89.8035 48.6054 89.7105 48.703C89.6175 48.8006 89.5449 48.9158 89.4969 49.0418C89.449 49.1678 89.4266 49.302 89.4312 49.4368Z" fill="white" stroke="#263238" stroke-linecap="round" stroke-linejoin="round"/>
<path d="M84.7941 52.0763L87.7289 57.5818L88.9097 56.9545L85.9773 51.449L84.7941 52.0763Z" fill="#263238" stroke="#263238" stroke-linecap="round" stroke-linejoin="round"/>
<path d="M84.3021 51.9066L85.1066 53.4195L86.8999 52.4675L86.0979 50.9521C85.9711 50.7149 85.7555 50.5376 85.4983 50.4588C85.2412 50.3799 84.9632 50.4061 84.7253 50.5314C84.487 50.6579 84.3087 50.8737 84.2293 51.1315C84.15 51.3893 84.1762 51.6681 84.3021 51.9066Z" fill="white" stroke="#263238" stroke-linecap="round" stroke-linejoin="round"/>
<path d="M94.536 52.0518L91.6283 57.572L92.8115 58.1968L95.7192 52.6766L94.536 52.0518Z" fill="#263238" stroke="#263238" stroke-linecap="round" stroke-linejoin="round"/>
<path d="M91.8076 56.0542C91.8507 55.7988 91.9686 55.562 92.1463 55.3737C92.3241 55.1854 92.5537 55.0541 92.8061 54.9963C93.0586 54.9386 93.3224 54.957 93.5644 55.0493C93.8063 55.1416 94.0155 55.3035 94.1653 55.5147C94.3152 55.7259 94.399 55.9768 94.4062 56.2356C94.4134 56.4945 94.3437 56.7496 94.2059 56.9688C94.068 57.188 93.8682 57.3614 93.6318 57.467C93.3954 57.5726 93.1329 57.6057 92.8777 57.5621C92.5359 57.5038 92.2313 57.3122 92.0307 57.0295C91.8301 56.7468 91.7498 56.396 91.8076 56.0542Z" fill="white" stroke="#263238" stroke-linecap="round" stroke-linejoin="round"/>
<path d="M90.5287 56.2263C89.8059 56.2263 89.22 55.6404 89.22 54.9176C89.22 54.1948 89.8059 53.6089 90.5287 53.6089C91.2515 53.6089 91.8374 54.1948 91.8374 54.9176C91.8374 55.6404 91.2515 56.2263 90.5287 56.2263Z" fill="white" stroke="#263238" stroke-linecap="round" stroke-linejoin="round"/>
<path d="M86.2581 55.6728C86.2188 55.4169 86.2562 55.1551 86.3656 54.9204C86.4751 54.6858 86.6517 54.4889 86.8731 54.3547C87.0945 54.2204 87.3508 54.1549 87.6094 54.1663C87.8681 54.1777 88.1175 54.2657 88.3262 54.4189C88.5349 54.5721 88.6935 54.7839 88.7818 55.0272C88.8702 55.2706 88.8843 55.5347 88.8225 55.7862C88.7607 56.0376 88.6257 56.265 88.4346 56.4397C88.2435 56.6144 88.0049 56.7285 87.7489 56.7675C87.5791 56.7937 87.4058 56.7862 87.2389 56.7454C87.0721 56.7045 86.9149 56.6311 86.7764 56.5294C86.6379 56.4278 86.5209 56.2998 86.432 56.1528C86.343 56.0058 86.284 55.8427 86.2581 55.6728Z" fill="white" stroke="#263238" stroke-linecap="round" stroke-linejoin="round"/>
<path d="M94.4006 51.5475L93.5986 53.0629L95.3944 54.0149L96.1964 52.4971C96.259 52.3792 96.2978 52.2502 96.3104 52.1173C96.323 51.9844 96.3093 51.8504 96.27 51.7229C96.2307 51.5953 96.1665 51.4768 96.0813 51.3741C95.9961 51.2714 95.8914 51.1865 95.7733 51.1244C95.535 50.9992 95.2568 50.9735 94.9996 51.0528C94.7424 51.132 94.527 51.3099 94.4006 51.5475Z" fill="white" stroke="#263238" stroke-linecap="round" stroke-linejoin="round"/>
<path d="M86.5091 58.5806C86.5091 59.5592 86.8979 60.4978 87.5899 61.1898C88.2819 61.8818 89.2205 62.2706 90.1991 62.2706C90.3221 62.2706 90.4451 62.2706 90.5607 62.2558C91.232 62.1893 91.8721 61.94 92.4116 61.5351C92.9511 61.1302 93.3693 60.5852 93.6208 59.9593C93.8722 59.3334 93.9473 58.6505 93.8378 57.985C93.7283 57.3194 93.4385 56.6965 92.9999 56.1841C92.5612 55.6717 91.9905 55.2893 91.3497 55.0786C90.709 54.8678 90.0227 54.8367 89.3655 54.9886C88.7083 55.1406 88.1053 55.4698 87.6221 55.9404C87.1389 56.411 86.794 57.0051 86.6247 57.6581C86.5484 57.9596 86.5096 58.2695 86.5091 58.5806Z" fill="white" stroke="#263238" stroke-linecap="round" stroke-linejoin="round"/>
<path d="M86.5088 58.5806C86.5088 59.5592 86.8976 60.4978 87.5896 61.1898C88.2816 61.8818 89.2201 62.2706 90.1988 62.2706C90.3218 62.2706 90.4448 62.2706 90.5604 62.2558C90.7018 61.7099 90.7161 61.1388 90.6023 60.5864C90.4886 60.034 90.2497 59.5151 89.904 59.0694C89.5584 58.6238 89.1152 58.2633 88.6085 58.0156C88.1018 57.768 87.5451 57.6398 86.9811 57.6409C86.8606 57.6409 86.7351 57.6409 86.6195 57.6581C86.5449 57.9599 86.5077 58.2697 86.5088 58.5806Z" fill="white" stroke="#263238" stroke-linecap="round" stroke-linejoin="round"/>
<path d="M67.9282 69.6801C67.3017 67.0025 68.9643 64.3241 71.6418 63.6975C74.3194 63.071 76.9978 64.7337 77.6244 67.4112C78.2509 70.0887 76.5882 72.7672 73.9107 73.3937C71.2332 74.0202 68.5547 72.3576 67.9282 69.6801Z" fill="white" stroke="#263238" stroke-linecap="round" stroke-linejoin="round"/>
<path d="M71.8513 70.7722C70.6212 70.2592 70.0399 68.8461 70.553 67.616C71.066 66.3859 72.4791 65.8046 73.7092 66.3176C74.9393 66.8307 75.5206 68.2438 75.0076 69.4739C74.4945 70.704 73.0814 71.2853 71.8513 70.7722Z" fill="#263238" stroke="#263238" stroke-linecap="round" stroke-linejoin="round"/>
<path d="M73.6334 89.611H51.5426L51.2253 88.1153C51.098 87.5179 51.2123 86.8943 51.5433 86.3809C51.8742 85.8674 52.3949 85.5058 52.9915 85.3749C56.1231 84.6714 62.9029 84.418 62.9029 84.418C64.5363 84.4696 69.0824 84.664 72.214 85.3774C72.8065 85.5126 73.322 85.8758 73.6488 86.3881C73.9757 86.9005 74.0877 87.521 73.9606 88.1153L73.6334 89.611Z" fill="white" stroke="#263238" stroke-linecap="round" stroke-linejoin="round"/>
<path d="M57.2716 84.7821C60.1006 84.5213 62.8952 84.418 62.8952 84.418C63.9234 84.4499 66.1079 84.541 68.3662 84.7821C67.7069 87.033 65.4733 88.691 62.8189 88.691C60.1646 88.691 57.9309 87.0256 57.2716 84.7821Z" fill="#92E3A9" stroke="#263238" stroke-linecap="round" stroke-linejoin="round"/>
<path d="M39.7462 79.0627L38.3721 77.2212L50.3791 68.2616L51.7532 70.1031L39.7462 79.0627Z" fill="#263238" stroke="#263238" stroke-linecap="round" stroke-linejoin="round"/>
<path d="M45.7214 84.499L43.8799 85.873L38.382 78.5052L40.2235 77.1311L45.7214 84.499Z" fill="#263238" stroke="#263238" stroke-linecap="round" stroke-linejoin="round"/>
<path d="M40.9694 76.5263C40.8037 76.3043 40.596 76.1171 40.3579 75.9754C40.1199 75.8337 39.8562 75.7403 39.5821 75.7005C39.3079 75.6608 39.0286 75.6754 38.7601 75.7437C38.4917 75.8119 38.2393 75.9324 38.0174 76.0983L37.8575 76.2287C37.573 76.4882 37.3651 76.8207 37.2564 77.1901C37.1477 77.5596 37.1424 77.9517 37.2411 78.3239C37.3397 78.6962 37.5386 79.0342 37.816 79.3013C38.0934 79.5684 38.4387 79.7543 38.8144 79.8389C39.19 79.9234 39.5817 79.9033 39.9468 79.7807C40.3118 79.6581 40.6363 79.4378 40.8848 79.1437C41.1334 78.8496 41.2966 78.493 41.3566 78.1126C41.4166 77.7322 41.3712 77.3427 41.2252 76.9864C41.1592 76.8231 41.0732 76.6686 40.9694 76.5263Z" fill="white" stroke="#263238" stroke-linecap="round" stroke-linejoin="round"/>
<path d="M45.7739 82.413C45.462 81.9498 44.9789 81.6295 44.4308 81.5224C43.8828 81.4154 43.3147 81.5305 42.8514 81.8423C42.7948 81.8792 42.7407 81.921 42.6866 81.9628C42.3896 82.208 42.1655 82.5298 42.0387 82.8935C41.9119 83.2571 41.8873 83.6486 41.9674 84.0252C42.0476 84.4019 42.2296 84.7494 42.4935 85.0298C42.7574 85.3103 43.0931 85.513 43.4642 85.616C43.8353 85.7189 44.2276 85.7181 44.5982 85.6136C44.9689 85.5092 45.3038 85.3051 45.5666 85.0235C45.8293 84.742 46.0098 84.3937 46.0885 84.0167C46.1671 83.6398 46.1408 83.2484 46.0125 82.8853C45.9529 82.7186 45.8728 82.5599 45.7739 82.413Z" fill="white" stroke="#263238" stroke-linecap="round" stroke-linejoin="round"/>
<path d="M52.097 85.0484L48.6353 85.3884L48.5044 84.0566L51.9662 83.7166L52.097 85.0484Z" fill="#263238" stroke="#263238" stroke-linecap="round" stroke-linejoin="round"/>
<path d="M52.3076 83.3356L50.6004 83.5029L50.7996 85.525L52.5069 85.3577C52.775 85.3316 53.0218 85.2 53.1929 84.992C53.3641 84.7839 53.4456 84.5164 53.4195 84.2482C53.3928 83.9799 53.2607 83.7331 53.0523 83.562C52.8438 83.3909 52.576 83.3095 52.3076 83.3356Z" fill="white" stroke="#263238" stroke-linecap="round" stroke-linejoin="round"/>
<path d="M48.888 84.1964C48.6177 83.7935 48.2705 83.4479 47.8663 83.1793C47.4622 82.9107 47.0091 82.7245 46.5329 82.6312C46.0567 82.538 45.5668 82.5396 45.0912 82.636C44.6157 82.7323 44.1638 82.9215 43.7614 83.1928C43.6605 83.2616 43.5646 83.333 43.4711 83.4092C42.951 83.839 42.5587 84.4032 42.3369 85.0404C42.115 85.6776 42.0721 86.3634 42.2129 87.0232C42.3536 87.6831 42.6725 88.2918 43.135 88.783C43.5975 89.2743 44.1858 89.6293 44.836 89.8096C45.4862 89.9898 46.1733 89.9883 46.8227 89.8053C47.4721 89.6223 48.0589 89.2647 48.5193 88.7715C48.9796 88.2782 49.296 87.6682 49.4338 87.0078C49.5717 86.3473 49.5259 85.6617 49.3013 85.0255C49.1995 84.7326 49.0606 84.454 48.888 84.1964Z" fill="white" stroke="#263238" stroke-linecap="round" stroke-linejoin="round"/>
<path d="M52.8633 88.0293L48.2877 84.6074L47.5521 85.589L52.1277 89.0084L52.8633 88.0293Z" fill="#263238" stroke="#263238" stroke-linecap="round" stroke-linejoin="round"/>
<path d="M53.3384 87.9777L52.0814 87.0256L50.9645 88.5016L52.2216 89.4438C52.419 89.5915 52.6669 89.6548 52.911 89.6198C53.155 89.5847 53.3751 89.4542 53.5229 89.2569C53.6647 89.0615 53.7247 88.8187 53.6902 88.5798C53.6558 88.341 53.5296 88.125 53.3384 87.9777Z" fill="white" stroke="#263238" stroke-linecap="round" stroke-linejoin="round"/>
<path d="M46.9545 85.6627C46.8963 85.4101 46.9145 85.1459 47.0068 84.9036C47.099 84.6613 47.2611 84.4519 47.4726 84.3019C47.684 84.1519 47.9352 84.0681 48.1944 84.061C48.4535 84.054 48.7089 84.1241 48.9282 84.2624C49.1474 84.4008 49.3207 84.6011 49.4259 84.838C49.5311 85.0749 49.5636 85.3378 49.5193 85.5932C49.4749 85.8486 49.3557 86.0851 49.1767 86.2727C48.9978 86.4602 48.7672 86.5904 48.5141 86.6467C48.1769 86.7218 47.8237 86.6604 47.5315 86.4761C47.2394 86.2918 47.0319 85.9994 46.9545 85.6627Z" fill="white" stroke="#263238" stroke-linecap="round" stroke-linejoin="round"/>
<path d="M44.5288 91.4683L43.8498 86.7747L42.8437 86.9173L43.5202 91.611L44.5288 91.4683Z" fill="#263238" stroke="#263238" stroke-linecap="round" stroke-linejoin="round"/>
<path d="M44.8365 91.7168L44.652 90.4253L43.1244 90.6442L43.3089 91.9333C43.3231 92.0338 43.3569 92.1305 43.4085 92.2179C43.46 92.3053 43.5283 92.3816 43.6094 92.4426C43.6905 92.5036 43.7829 92.548 43.8811 92.5733C43.9794 92.5986 44.0817 92.6043 44.1822 92.5901C44.3847 92.5609 44.5673 92.4525 44.69 92.2888C44.8126 92.125 44.8653 91.9193 44.8365 91.7168Z" fill="white" stroke="#263238" stroke-linecap="round" stroke-linejoin="round"/>
<path d="M42.4504 86.6098C42.5662 86.4293 42.7329 86.2872 42.9294 86.2014C43.126 86.1156 43.3435 86.09 43.5546 86.1278C43.7657 86.1656 43.9608 86.2651 44.1154 86.4137C44.2699 86.5624 44.377 86.7535 44.423 86.9629C44.469 87.1724 44.4519 87.3908 44.3739 87.5905C44.2958 87.7902 44.1603 87.9623 43.9845 88.0851C43.8087 88.2079 43.6005 88.2758 43.3861 88.2803C43.1717 88.2848 42.9608 88.2257 42.78 88.1104C42.5375 87.9549 42.3666 87.7096 42.3048 87.4282C42.243 87.1469 42.2953 86.8525 42.4504 86.6098Z" fill="white" stroke="#263238" stroke-linecap="round" stroke-linejoin="round"/>
<path d="M49.0576 90.8434L46.0072 86.012L44.9716 86.6614L48.0195 91.4953L49.0576 90.8434Z" fill="#263238" stroke="#263238" stroke-linecap="round" stroke-linejoin="round"/>
<path d="M49.518 90.9615L48.684 89.6331L47.1072 90.6171L47.9436 91.9479C48.0752 92.1561 48.2839 92.3038 48.524 92.3586C48.7642 92.4135 49.0163 92.3711 49.2252 92.2407C49.4333 92.1095 49.5809 91.9012 49.6357 91.6615C49.6906 91.4218 49.6483 91.17 49.518 90.9615Z" fill="white" stroke="#263238" stroke-linecap="round" stroke-linejoin="round"/>
<path d="M44.3815 86.5188C44.418 86.2627 44.5297 86.0231 44.7025 85.8305C44.8754 85.6379 45.1015 85.501 45.3523 85.4371C45.603 85.3733 45.8671 85.3853 46.111 85.4717C46.3549 85.5582 46.5676 85.7151 46.7222 85.9226C46.8768 86.1301 46.9663 86.3788 46.9793 86.6373C46.9923 86.8957 46.9283 87.1522 46.7953 87.3742C46.6624 87.5962 46.4665 87.7737 46.2325 87.8842C45.9985 87.9947 45.737 88.0332 45.4811 87.9948C45.1398 87.9443 44.8325 87.7606 44.6264 87.484C44.4203 87.2073 44.3322 86.8603 44.3815 86.5188Z" fill="white" stroke="#263238" stroke-linecap="round" stroke-linejoin="round"/>
<path d="M50.0323 72.8189C47.7201 71.3305 47.0522 68.2495 48.5406 65.9373C50.029 63.625 53.11 62.9572 55.4223 64.4456C57.7345 65.934 58.4023 69.015 56.9139 71.3272C55.4255 73.6395 52.3445 74.3073 50.0323 72.8189Z" fill="white" stroke="#263238" stroke-linecap="round" stroke-linejoin="round"/>
<path d="M50.5321 69.64C49.9765 68.4286 50.5081 66.996 51.7195 66.4404C52.931 65.8847 54.3635 66.4163 54.9192 67.6278C55.4748 68.8392 54.9432 70.2717 53.7318 70.8274C52.5203 71.3831 51.0878 70.8515 50.5321 69.64Z" fill="#263238" stroke="#263238" stroke-linecap="round" stroke-linejoin="round"/>
<path d="M62.8214 58.7652C58.4045 58.7652 54.8239 55.1846 54.8239 50.7677C54.8239 46.3508 58.4045 42.7703 62.8214 42.7703C67.2383 42.7703 70.8188 46.3508 70.8188 50.7677C70.8188 55.1846 67.2383 58.7652 62.8214 58.7652Z" fill="#92E3A9" stroke="#263238" stroke-linecap="round" stroke-linejoin="round"/>
<path d="M51.3874 56.0935C49.6699 53.9402 48.595 51.3458 48.2864 48.6087C47.9779 45.8717 48.4481 43.1031 49.6431 40.6215C50.838 38.1398 52.7092 36.0458 55.0414 34.5803C57.3736 33.1148 60.072 32.3374 62.8264 32.3374C65.5808 32.3374 68.2793 33.1148 70.6114 34.5803C72.9436 36.0458 74.8148 38.1398 76.0097 40.6215C77.2047 43.1031 77.675 45.8717 77.3664 48.6087C77.0578 51.3458 75.9829 53.9402 74.2654 56.0935H51.3874Z" fill="white" stroke="#263238" stroke-linecap="round" stroke-linejoin="round"/>
<path d="M53.8721 41.4468H72.1401C73.2514 41.4468 74.1523 42.3477 74.1523 43.4591V49.9338C74.1523 51.0451 73.2514 51.9461 72.1401 51.9461H53.8721C52.7608 51.9461 51.8598 51.0451 51.8598 49.9338V43.4591C51.8598 42.3477 52.7608 41.4468 53.8721 41.4468Z" fill="#92E3A9" stroke="#263238" stroke-linecap="round" stroke-linejoin="round"/>
<path d="M71.7417 46.2706C71.5001 45.5942 71.0598 45.0065 70.4784 44.5846C69.8971 44.1628 69.2018 43.9263 68.4838 43.9064C67.7658 43.8865 67.0585 44.0839 66.4546 44.4729C65.8507 44.8618 65.3785 45.4242 65.0997 46.0861" stroke="#263238" stroke-width="5" stroke-linecap="round" stroke-linejoin="round"/>
<path d="M60.7231 46.2706C60.4815 45.5942 60.0412 45.0065 59.4599 44.5846C58.8785 44.1628 58.1833 43.9263 57.4653 43.9064C56.7472 43.8865 56.0399 44.0839 55.4361 44.4729C54.8322 44.8618 54.3599 45.4242 54.0811 46.0861" stroke="#263238" stroke-width="5" stroke-linecap="round" stroke-linejoin="round"/>
<path d="M64.75 48.7036C64.6882 49.1914 64.4506 49.64 64.0818 49.9651C63.7129 50.2902 63.238 50.4696 62.7463 50.4696C62.2546 50.4696 61.7798 50.2902 61.4109 49.9651C61.042 49.64 60.8044 49.1914 60.7427 48.7036H64.75Z" fill="white" stroke="#263238" stroke-linecap="round" stroke-linejoin="round"/>
<path d="M43.8893 49.5351C44.2951 49.5351 44.6843 49.3738 44.9713 49.0869C45.2582 48.7999 45.4194 48.4108 45.4194 48.0049V44.524C45.4198 44.3229 45.3804 44.1237 45.3037 43.9377C45.2269 43.7518 45.1143 43.5828 44.9721 43.4405C44.83 43.2981 44.6612 43.1852 44.4754 43.1082C44.2896 43.0311 44.0905 42.9915 43.8893 42.9915C43.6882 42.9911 43.4889 43.0305 43.303 43.1072C43.1171 43.184 42.9481 43.2966 42.8058 43.4388C42.6634 43.5809 42.5505 43.7497 42.4734 43.9355C42.3964 44.1213 42.3567 44.3204 42.3567 44.5216V48.0025C42.3564 48.2038 42.3958 48.4033 42.4727 48.5894C42.5496 48.7754 42.6625 48.9445 42.8049 49.0869C42.9473 49.2293 43.1163 49.3422 43.3024 49.4191C43.4885 49.496 43.688 49.5354 43.8893 49.5351Z" fill="#263238" stroke="#263238" stroke-linecap="round" stroke-linejoin="round"/>
<path d="M82.172 49.5351C82.3732 49.5354 82.5724 49.496 82.7583 49.4193C82.9442 49.3425 83.1132 49.2299 83.2556 49.0878C83.3979 48.9456 83.5108 48.7769 83.5879 48.5911C83.6649 48.4053 83.7046 48.2061 83.7046 48.0049V44.524C83.7049 44.3227 83.6655 44.1232 83.5886 43.9372C83.5117 43.7511 83.3988 43.582 83.2564 43.4396C83.1141 43.2972 82.945 43.1844 82.7589 43.1075C82.5728 43.0306 82.3734 42.9911 82.172 42.9915C81.9711 42.9915 81.7721 43.031 81.5865 43.1079C81.4008 43.1848 81.2321 43.2975 81.09 43.4396C80.948 43.5817 80.8353 43.7504 80.7584 43.936C80.6815 44.1217 80.6419 44.3206 80.6419 44.5216V48.0025C80.6416 48.2036 80.6809 48.4029 80.7577 48.5888C80.8344 48.7747 80.9471 48.9437 81.0892 49.086C81.2313 49.2284 81.4001 49.3413 81.5859 49.4183C81.7717 49.4954 81.9709 49.5351 82.172 49.5351Z" fill="#263238" stroke="#263238" stroke-linecap="round" stroke-linejoin="round"/>
<path d="M77.2666 33.8281C78.62 35.828 79.3416 38.1882 79.3379 40.603V43.1318" stroke="#263238" stroke-width="14" stroke-linecap="round" stroke-linejoin="round"/>
<path d="M48.2189 33.8379C49.3265 32.1877 50.8233 30.8355 52.5771 29.9007C54.331 28.9658 56.288 28.4771 58.2754 28.4775H67.2175C69.2022 28.4762 71.1568 28.9628 72.9091 29.8945C74.6615 30.8262 76.1579 32.1745 77.2666 33.8207" stroke="#263238" stroke-width="7" stroke-linecap="round" stroke-linejoin="round"/>
<path d="M46.1578 43.1318V40.6029C46.154 38.1926 46.872 35.8364 48.2192 33.8379" stroke="#263238" stroke-width="14" stroke-linecap="round" stroke-linejoin="round"/>
<path d="M78.1177 40.4084H80.1693C81.3567 40.4084 82.3193 41.3711 82.3193 42.5585V49.6654C82.3193 50.8529 81.3567 51.8155 80.1693 51.8155H78.1177C76.9302 51.8155 75.9676 50.8529 75.9676 49.6654V42.5585C75.9676 41.3711 76.9302 40.4084 78.1177 40.4084Z" fill="white" stroke="#263238" stroke-linecap="round" stroke-linejoin="round"/>
<path d="M78.8188 40.4084H79.4658V51.8155H78.8188V40.4084Z" fill="#92E3A9" stroke="#263238" stroke-linecap="round" stroke-linejoin="round"/>
<path d="M45.7148 40.4084H47.7665C48.9539 40.4084 49.9165 41.3711 49.9165 42.5585V49.6654C49.9165 50.8529 48.9539 51.8155 47.7665 51.8155H45.7148C44.5274 51.8155 43.5648 50.8529 43.5648 49.6654V42.5585C43.5648 41.3711 44.5274 40.4084 45.7148 40.4084Z" fill="white" stroke="#263238" stroke-linecap="round" stroke-linejoin="round"/>
<path d="M46.416 40.4084H47.063V51.8155H46.416V40.4084Z" fill="#92E3A9" stroke="#263238" stroke-linecap="round" stroke-linejoin="round"/>
<path d="M62.7699 39.373C61.6493 39.3732 60.5464 39.0929 59.562 38.5575C58.5775 38.022 57.7428 37.2486 57.134 36.3078L55.7466 34.1602C57.9452 32.9461 60.4193 32.3184 62.9308 32.3378C65.4422 32.3572 67.9064 33.023 70.0859 34.2709L67.9974 36.8638C67.3691 37.6462 66.5733 38.2778 65.6686 38.7121C64.764 39.1463 63.7734 39.3722 62.7699 39.373Z" fill="#92E3A9" stroke="#263238" stroke-linecap="round" stroke-linejoin="round"/>
<path d="M62.423 53.0087C62.423 52.96 62.4375 52.9125 62.4645 52.872C62.4915 52.8316 62.5299 52.8 62.5749 52.7814C62.6199 52.7628 62.6693 52.7579 62.717 52.7674C62.7648 52.7769 62.8086 52.8003 62.843 52.8347C62.8774 52.8691 62.9008 52.913 62.9103 52.9607C62.9198 53.0084 62.9149 53.0579 62.8963 53.1028C62.8777 53.1478 62.8462 53.1862 62.8057 53.2132C62.7653 53.2403 62.7177 53.2547 62.669 53.2547C62.6038 53.2547 62.5412 53.2288 62.4951 53.1826C62.449 53.1365 62.423 53.0739 62.423 53.0087Z" fill="#263238"/>
<path d="M62.423 53.8351C62.423 53.7865 62.4375 53.7389 62.4645 53.6984C62.4915 53.658 62.5299 53.6265 62.5749 53.6078C62.6199 53.5892 62.6693 53.5843 62.717 53.5938C62.7648 53.6033 62.8086 53.6268 62.843 53.6612C62.8774 53.6956 62.9008 53.7394 62.9103 53.7871C62.9198 53.8348 62.9149 53.8843 62.8963 53.9292C62.8777 53.9742 62.8462 54.0126 62.8057 54.0397C62.7653 54.0667 62.7177 54.0811 62.669 54.0811C62.6038 54.0811 62.5412 54.0552 62.4951 54.0091C62.449 53.9629 62.423 53.9004 62.423 53.8351Z" fill="#263238"/>
<path d="M63.3605 53.7073C63.3156 53.6783 63.2813 53.6355 63.2629 53.5852C63.2445 53.535 63.243 53.4802 63.2586 53.429C63.2741 53.3778 63.306 53.3332 63.3492 53.3017C63.3925 53.2702 63.4448 53.2537 63.4983 53.2547C63.5432 53.2837 63.5774 53.3265 63.5958 53.3768C63.6142 53.427 63.6158 53.4818 63.6002 53.533C63.5846 53.5841 63.5528 53.6288 63.5095 53.6603C63.4663 53.6918 63.414 53.7083 63.3605 53.7073Z" fill="#263238"/>
<path d="M61.8818 53.7073C61.8438 53.7066 61.8064 53.6971 61.7726 53.6796C61.7388 53.662 61.7096 53.6368 61.6872 53.606C61.6648 53.5753 61.6499 53.5397 61.6436 53.5021C61.6373 53.4646 61.6397 53.4261 61.6508 53.3897C61.6619 53.3533 61.6813 53.3199 61.7074 53.2923C61.7336 53.2646 61.7658 53.2434 61.8016 53.2303C61.8373 53.2172 61.8756 53.2126 61.9134 53.2168C61.9513 53.2211 61.9876 53.234 62.0196 53.2547C62.0576 53.2553 62.095 53.2648 62.1288 53.2824C62.1626 53.3 62.1918 53.3251 62.2142 53.3559C62.2366 53.3867 62.2515 53.4223 62.2578 53.4598C62.2641 53.4973 62.2617 53.5358 62.2506 53.5722C62.2395 53.6087 62.2201 53.642 62.1939 53.6697C62.1678 53.6973 62.1356 53.7185 62.0998 53.7316C62.0641 53.7447 62.0258 53.7493 61.988 53.7451C61.9501 53.7409 61.9138 53.7279 61.8818 53.7073Z" fill="#263238"/>
<path d="M52.9916 62.2387C56.1232 61.5327 62.9029 61.2793 62.9029 61.2793C64.5364 61.331 69.0824 61.5253 72.214 62.2412C72.8069 62.3758 73.3227 62.7388 73.6497 63.2514C73.9767 63.764 74.0884 64.3847 73.9606 64.9791L71.0603 78.5485C70.9178 79.2064 70.5547 79.7959 70.0312 80.2192C69.5077 80.6425 68.8553 80.8741 68.1821 80.8757H57.0014C56.3282 80.8741 55.6757 80.6425 55.1523 80.2192C54.6288 79.7959 54.2657 79.2064 54.1232 78.5485L51.2253 64.9791C51.098 64.3817 51.2124 63.7581 51.5433 63.2447C51.8742 62.7312 52.3949 62.3696 52.9916 62.2387Z" fill="white" stroke="#263238" stroke-linecap="round" stroke-linejoin="round"/>
<path d="M54.4183 61.9779C57.8156 61.4712 62.8955 61.2793 62.8955 61.2793C65.3828 61.3505 67.8644 61.5558 70.3296 61.8943L67.043 80.8757H58.1108L54.4183 61.9779Z" fill="#92E3A9" stroke="#263238" stroke-linecap="round" stroke-linejoin="round"/>
<path d="M59.9632 65.4045H65.4047C66.5161 65.4045 67.417 66.3055 67.417 67.4168V70.0736C67.417 71.185 66.5161 72.0859 65.4047 72.0859H59.9632C58.8518 72.0859 57.9509 71.185 57.9509 70.0736V67.4168C57.9509 66.3055 58.8518 65.4045 59.9632 65.4045Z" fill="white" stroke="#263238" stroke-linecap="round" stroke-linejoin="round"/>
<path d="M64.2731 68.1572H65.8057V69.6898H64.2731V68.1572Z" fill="white" stroke="#263238" stroke-linecap="round" stroke-linejoin="round"/>
<path d="M61.9186 68.1572H63.4512V69.6898H61.9186V68.1572Z" fill="white" stroke="#263238" stroke-linecap="round" stroke-linejoin="round"/>
<path d="M59.5621 68.1572H61.0947V69.6898H59.5621V68.1572Z" fill="white" stroke="#263238" stroke-linecap="round" stroke-linejoin="round"/>
</svg>
