<svg width="284" height="160" viewBox="0 0 284 160" fill="none" xmlns="http://www.w3.org/2000/svg">
<path d="M24.4095 51.3535C24.4095 51.3535 29.8079 29.7023 62.4895 16.0479C95.1711 2.39354 124.41 15.0399 131.075 31.0399C137.741 47.0399 130.755 55.6799 135.203 69.3439C139.651 83.0079 162.502 100.314 153.28 121.299C144.058 142.285 100.902 148.278 65.9807 143.949C31.0591 139.619 3.77594 91.6543 24.4095 51.3535Z" fill="#92E3A9"/>
<path opacity="0.7" d="M24.4095 51.3535C24.4095 51.3535 29.8079 29.7023 62.4895 16.0479C95.1711 2.39354 124.41 15.0399 131.075 31.0399C137.741 47.0399 130.755 55.6799 135.203 69.3439C139.651 83.0079 162.502 100.314 153.28 121.299C144.058 142.285 100.902 148.278 65.9807 143.949C31.0591 139.619 3.77594 91.6543 24.4095 51.3535Z" fill="white"/>
<path d="M78.8184 72.4801H83.708V114.976H78.8184V72.4801Z" fill="#263238" stroke="#263238" stroke-linecap="round" stroke-linejoin="round"/>
<path d="M117.59 87.8689V90.8577H98.1018V87.8689H117.59Z" fill="#263238" stroke="#263238" stroke-linecap="round" stroke-linejoin="round"/>
<path d="M115.586 77.5521H118.575V89.5105H115.586V77.5521Z" fill="#263238" stroke="#263238" stroke-linecap="round" stroke-linejoin="round"/>
<path d="M114.342 89.5616C114.342 89.9212 114.413 90.2772 114.55 90.6094C114.688 90.9416 114.89 91.2433 115.144 91.4974C115.399 91.7515 115.701 91.953 116.033 92.0903C116.365 92.2276 116.722 92.298 117.081 92.2976C117.171 92.2976 117.26 92.2976 117.347 92.2976C117.845 92.2484 118.32 92.0634 118.721 91.7628C119.122 91.4622 119.432 91.0576 119.619 90.5928C119.806 90.1281 119.861 89.6211 119.78 89.1269C119.699 88.6327 119.483 88.1703 119.158 87.7899C118.832 87.4095 118.408 87.1257 117.932 86.9694C117.456 86.813 116.947 86.7902 116.459 86.9032C115.971 87.0163 115.523 87.2609 115.165 87.6106C114.806 87.9602 114.55 88.4015 114.425 88.8864C114.37 89.1074 114.343 89.334 114.342 89.5616Z" fill="white" stroke="#263238" stroke-linecap="round" stroke-linejoin="round"/>
<path d="M114.14 79.3953C114.142 80.121 114.431 80.8164 114.944 81.3292C115.458 81.842 116.154 82.1305 116.879 82.1313C116.969 82.1313 117.059 82.1313 117.148 82.1313C117.647 82.0835 118.123 81.8999 118.524 81.6004C118.926 81.3009 119.238 80.8971 119.426 80.4328C119.614 79.9685 119.671 79.4615 119.591 78.967C119.511 78.4725 119.297 78.0094 118.972 77.6281C118.647 77.2468 118.224 76.9619 117.748 76.8044C117.273 76.6468 116.763 76.6227 116.275 76.7347C115.786 76.8466 115.338 77.0903 114.979 77.4392C114.619 77.7881 114.362 78.229 114.236 78.7137C114.175 78.9358 114.142 79.1649 114.14 79.3953Z" fill="white" stroke="#263238" stroke-linecap="round" stroke-linejoin="round"/>
<path d="M109.236 71.9712L113.22 74.1163L112.394 75.6491L108.41 73.5039L109.236 71.9712Z" fill="#263238" stroke="#263238" stroke-linecap="round" stroke-linejoin="round"/>
<path d="M107.75 73.6705L109.711 74.7265L110.966 72.4001L109.001 71.3409C108.847 71.2564 108.677 71.2036 108.502 71.1855C108.328 71.1675 108.151 71.1846 107.983 71.2359C107.815 71.2872 107.658 71.3716 107.523 71.4842C107.388 71.5967 107.277 71.7351 107.196 71.8913C107.036 72.201 107.004 72.5616 107.107 72.8947C107.211 73.2278 107.442 73.5066 107.75 73.6705Z" fill="white" stroke="#263238" stroke-linecap="round" stroke-linejoin="round"/>
<path d="M116.348 63.8049L116.489 71.9201L118.227 71.8913L118.089 63.7761L116.348 63.8049Z" fill="#263238" stroke="#263238" stroke-linecap="round" stroke-linejoin="round"/>
<path d="M115.878 63.3153L115.913 65.5553L118.556 65.4913L118.521 63.2513C118.518 63.0777 118.481 62.9064 118.412 62.7472C118.343 62.588 118.243 62.4439 118.118 62.3233C117.993 62.2026 117.846 62.1078 117.684 62.0441C117.523 61.9804 117.351 61.9491 117.177 61.9521C117.002 61.9545 116.829 61.992 116.668 62.0621C116.507 62.1323 116.362 62.2338 116.241 62.3608C116.12 62.4877 116.026 62.6375 115.963 62.8014C115.901 62.9653 115.872 63.14 115.878 63.3153Z" fill="white" stroke="#263238" stroke-linecap="round" stroke-linejoin="round"/>
<path d="M109.846 66.7489L113.663 73.9105L115.199 73.0945L111.385 65.9329L109.846 66.7489Z" fill="#263238" stroke="#263238" stroke-linecap="round" stroke-linejoin="round"/>
<path d="M109.206 66.528L110.252 68.496L112.585 67.2576L111.542 65.2864C111.377 64.9779 111.096 64.7472 110.762 64.6447C110.427 64.5422 110.066 64.5762 109.756 64.7392C109.446 64.9037 109.214 65.1845 109.111 65.5198C109.008 65.8552 109.042 66.2178 109.206 66.528Z" fill="white" stroke="#263238" stroke-linecap="round" stroke-linejoin="round"/>
<path d="M122.518 66.7169L118.736 73.8977L120.275 74.7105L124.057 67.5297L122.518 66.7169Z" fill="#263238" stroke="#263238" stroke-linecap="round" stroke-linejoin="round"/>
<path d="M118.969 71.9233C119.025 71.5912 119.179 71.2831 119.41 71.0382C119.641 70.7932 119.94 70.6224 120.268 70.5473C120.596 70.4722 120.94 70.4961 121.254 70.6162C121.569 70.7362 121.841 70.9469 122.036 71.2216C122.231 71.4963 122.34 71.8226 122.349 72.1593C122.359 72.4961 122.268 72.828 122.089 73.1131C121.909 73.3983 121.65 73.6238 121.342 73.7612C121.034 73.8985 120.693 73.9416 120.361 73.8849C119.917 73.809 119.52 73.5598 119.259 73.192C118.998 72.8242 118.894 72.3679 118.969 71.9233Z" fill="white" stroke="#263238" stroke-linecap="round" stroke-linejoin="round"/>
<path d="M117.305 72.1472C116.365 72.1472 115.603 71.385 115.603 70.4448C115.603 69.5046 116.365 68.7424 117.305 68.7424C118.245 68.7424 119.007 69.5046 119.007 70.4448C119.007 71.385 118.245 72.1472 117.305 72.1472Z" fill="white" stroke="#263238" stroke-linecap="round" stroke-linejoin="round"/>
<path d="M111.75 71.4273C111.699 71.0944 111.747 70.7538 111.89 70.4486C112.032 70.1434 112.262 69.8872 112.55 69.7126C112.838 69.538 113.171 69.4527 113.508 69.4676C113.844 69.4825 114.169 69.5968 114.44 69.7962C114.711 69.9955 114.918 70.2709 115.033 70.5875C115.148 70.9041 115.166 71.2477 115.086 71.5747C115.005 71.9018 114.83 72.1977 114.581 72.4249C114.332 72.6521 114.022 72.8005 113.689 72.8513C113.468 72.8854 113.243 72.8756 113.026 72.8224C112.809 72.7693 112.604 72.6739 112.424 72.5416C112.244 72.4093 112.092 72.2428 111.976 72.0516C111.86 71.8604 111.783 71.6482 111.75 71.4273Z" fill="white" stroke="#263238" stroke-linecap="round" stroke-linejoin="round"/>
<path d="M122.342 66.0609L121.299 68.0321L123.635 69.2705L124.678 67.2961C124.759 67.1428 124.81 66.9749 124.826 66.8021C124.843 66.6293 124.825 66.4549 124.774 66.289C124.722 66.1231 124.639 65.9689 124.528 65.8353C124.417 65.7017 124.281 65.5913 124.127 65.5105C123.817 65.3477 123.456 65.3142 123.121 65.4173C122.786 65.5204 122.506 65.7518 122.342 66.0609Z" fill="white" stroke="#263238" stroke-linecap="round" stroke-linejoin="round"/>
<path d="M112.076 75.2097C112.076 76.4828 112.582 77.7037 113.482 78.6038C114.382 79.504 115.603 80.0097 116.876 80.0097C117.036 80.0097 117.196 80.0097 117.346 79.9905C118.22 79.904 119.052 79.5797 119.754 79.0531C120.456 78.5264 121 77.8174 121.327 77.0032C121.654 76.189 121.752 75.3008 121.609 74.435C121.467 73.5692 121.09 72.7589 120.519 72.0924C119.949 71.4258 119.206 70.9285 118.373 70.6543C117.539 70.3801 116.646 70.3397 115.792 70.5373C114.937 70.735 114.152 71.1632 113.524 71.7754C112.895 72.3876 112.446 73.1604 112.226 74.0097C112.127 74.402 112.077 74.8051 112.076 75.2097Z" fill="white" stroke="#263238" stroke-linecap="round" stroke-linejoin="round"/>
<path d="M112.076 75.2097C112.076 76.4828 112.582 77.7037 113.482 78.6038C114.382 79.504 115.603 80.0097 116.876 80.0097C117.036 80.0097 117.196 80.0097 117.347 79.9905C117.531 79.2803 117.549 78.5374 117.401 77.8189C117.253 77.1003 116.943 76.4253 116.493 75.8456C116.043 75.2659 115.467 74.7969 114.808 74.4748C114.149 74.1527 113.424 73.9859 112.691 73.9873C112.534 73.9873 112.371 73.9873 112.22 74.0097C112.123 74.4023 112.075 74.8053 112.076 75.2097Z" fill="white" stroke="#263238" stroke-linecap="round" stroke-linejoin="round"/>
<path d="M87.9065 89.6482C87.0915 86.1653 89.2544 82.6811 92.7373 81.8661C96.2203 81.0511 99.7044 83.2139 100.519 86.6968C101.334 90.1798 99.1716 93.664 95.6887 94.479C92.2057 95.294 88.7215 93.1312 87.9065 89.6482Z" fill="white" stroke="#263238" stroke-linecap="round" stroke-linejoin="round"/>
<path d="M93.0096 91.0689C91.4095 90.4015 90.6533 88.5633 91.3207 86.9632C91.9881 85.363 93.8263 84.6069 95.4264 85.2743C97.0266 85.9416 97.7827 87.7798 97.1153 89.38C96.4479 90.9801 94.6098 91.7363 93.0096 91.0689Z" fill="#263238" stroke="#263238" stroke-linecap="round" stroke-linejoin="round"/>
<path d="M95.3272 115.575H66.5912L66.1784 113.629C66.0129 112.852 66.1616 112.041 66.5921 111.373C67.0226 110.705 67.6998 110.234 68.476 110.064C72.5496 109.149 81.3688 108.819 81.3688 108.819C83.4936 108.887 89.4072 109.139 93.4808 110.067C94.2516 110.243 94.9221 110.716 95.3473 111.382C95.7725 112.049 95.9181 112.856 95.7528 113.629L95.3272 115.575Z" fill="white" stroke="#263238" stroke-linecap="round" stroke-linejoin="round"/>
<path d="M74.0441 109.293C77.7241 108.954 81.3593 108.819 81.3593 108.819C82.6969 108.861 85.5385 108.979 88.4761 109.293C87.6185 112.221 84.7129 114.378 81.2601 114.378C77.8073 114.378 74.9017 112.211 74.0441 109.293Z" fill="#92E3A9" stroke="#263238" stroke-linecap="round" stroke-linejoin="round"/>
<path d="M51.2464 101.853L49.459 99.4578L65.0779 87.8031L66.8653 90.1985L51.2464 101.853Z" fill="#263238" stroke="#263238" stroke-linecap="round" stroke-linejoin="round"/>
<path d="M59.0189 108.925L56.6235 110.712L49.4719 101.128L51.8673 99.3405L59.0189 108.925Z" fill="#263238" stroke="#263238" stroke-linecap="round" stroke-linejoin="round"/>
<path d="M52.8378 98.5537C52.6224 98.2648 52.3521 98.0213 52.0424 97.837C51.7328 97.6526 51.3899 97.5311 51.0332 97.4794C50.6766 97.4277 50.3133 97.4468 49.964 97.5356C49.6148 97.6244 49.2865 97.7811 48.9978 97.9968L48.7898 98.1664C48.4198 98.504 48.1493 98.9366 48.0079 99.4171C47.8666 99.8977 47.8597 100.408 47.988 100.892C48.1164 101.376 48.375 101.816 48.7358 102.163C49.0967 102.511 49.5459 102.753 50.0346 102.863C50.5233 102.973 51.0327 102.946 51.5076 102.787C51.9825 102.628 52.4045 102.341 52.7279 101.958C53.0512 101.576 53.2635 101.112 53.3415 100.617C53.4196 100.122 53.3605 99.6156 53.1706 99.152C53.0847 98.9397 52.9729 98.7387 52.8378 98.5537Z" fill="white" stroke="#263238" stroke-linecap="round" stroke-linejoin="round"/>
<path d="M59.0873 106.211C58.6816 105.609 58.0532 105.192 57.3403 105.053C56.6273 104.914 55.8883 105.063 55.2857 105.469C55.2121 105.517 55.1417 105.571 55.0713 105.626C54.685 105.945 54.3935 106.363 54.2285 106.836C54.0636 107.309 54.0315 107.819 54.1358 108.309C54.2401 108.799 54.4768 109.25 54.8201 109.615C55.1634 109.98 55.6001 110.244 56.0829 110.378C56.5656 110.512 57.0758 110.511 57.558 110.375C58.0402 110.239 58.4758 109.973 58.8176 109.607C59.1594 109.241 59.3942 108.788 59.4965 108.297C59.5988 107.807 59.5646 107.298 59.3977 106.826C59.3202 106.609 59.2159 106.402 59.0873 106.211Z" fill="white" stroke="#263238" stroke-linecap="round" stroke-linejoin="round"/>
<path d="M67.3127 109.639L62.8096 110.082L62.6394 108.349L67.1425 107.907L67.3127 109.639Z" fill="#263238" stroke="#263238" stroke-linecap="round" stroke-linejoin="round"/>
<path d="M67.5865 107.411L65.3657 107.629L65.6249 110.259L67.8457 110.042C68.1945 110.008 68.5155 109.837 68.7381 109.566C68.9607 109.295 69.0668 108.947 69.0329 108.598C68.9981 108.249 68.8263 107.928 68.5551 107.706C68.284 107.483 67.9356 107.377 67.5865 107.411Z" fill="white" stroke="#263238" stroke-linecap="round" stroke-linejoin="round"/>
<path d="M63.1384 108.531C62.7867 108.007 62.3351 107.558 61.8094 107.208C61.2837 106.859 60.6943 106.617 60.0748 106.495C59.4554 106.374 58.8181 106.376 58.1995 106.501C57.5808 106.627 56.993 106.873 56.4696 107.226C56.3384 107.315 56.2136 107.408 56.092 107.507C55.4155 108.066 54.9052 108.8 54.6166 109.629C54.328 110.458 54.2722 111.35 54.4553 112.208C54.6383 113.067 55.0532 113.859 55.6548 114.498C56.2564 115.137 57.0217 115.598 57.8674 115.833C58.7132 116.067 59.6071 116.065 60.4518 115.827C61.2965 115.589 62.0598 115.124 62.6587 114.483C63.2576 113.841 63.669 113.047 63.8484 112.188C64.0278 111.329 63.9681 110.437 63.676 109.61C63.5435 109.229 63.3629 108.866 63.1384 108.531Z" fill="white" stroke="#263238" stroke-linecap="round" stroke-linejoin="round"/>
<path d="M68.3096 113.517L62.3576 109.066L61.4008 110.342L67.3528 114.79L68.3096 113.517Z" fill="#263238" stroke="#263238" stroke-linecap="round" stroke-linejoin="round"/>
<path d="M68.9275 113.45L67.2923 112.211L65.8395 114.131L67.4747 115.357C67.7315 115.549 68.054 115.631 68.3715 115.586C68.6889 115.54 68.9752 115.37 69.1675 115.114C69.3519 114.86 69.4299 114.544 69.3851 114.233C69.3403 113.922 69.1761 113.641 68.9275 113.45Z" fill="white" stroke="#263238" stroke-linecap="round" stroke-linejoin="round"/>
<path d="M60.6234 110.439C60.5478 110.11 60.5715 109.766 60.6915 109.451C60.8115 109.136 61.0223 108.863 61.2974 108.668C61.5724 108.473 61.8992 108.364 62.2363 108.355C62.5734 108.346 62.9056 108.437 63.1908 108.617C63.4761 108.797 63.7014 109.058 63.8383 109.366C63.9752 109.674 64.0175 110.016 63.9598 110.348C63.9021 110.68 63.747 110.988 63.5142 111.232C63.2814 111.476 62.9814 111.645 62.6522 111.719C62.2136 111.816 61.7541 111.736 61.3741 111.497C60.994 111.257 60.7242 110.876 60.6234 110.439Z" fill="white" stroke="#263238" stroke-linecap="round" stroke-linejoin="round"/>
<path d="M57.4683 117.99L56.5851 111.885L55.2763 112.07L56.1563 118.176L57.4683 117.99Z" fill="#263238" stroke="#263238" stroke-linecap="round" stroke-linejoin="round"/>
<path d="M57.8684 118.314L57.6284 116.634L55.6412 116.918L55.8812 118.595C55.8996 118.726 55.9437 118.852 56.0108 118.965C56.0778 119.079 56.1667 119.178 56.2722 119.258C56.3777 119.337 56.4978 119.395 56.6256 119.428C56.7534 119.461 56.8865 119.468 57.0172 119.45C57.2806 119.412 57.5181 119.271 57.6777 119.058C57.8373 118.845 57.9059 118.577 57.8684 118.314Z" fill="white" stroke="#263238" stroke-linecap="round" stroke-linejoin="round"/>
<path d="M54.7644 111.67C54.9151 111.436 55.1319 111.251 55.3876 111.139C55.6432 111.028 55.9262 110.994 56.2008 111.044C56.4754 111.093 56.7292 111.222 56.9303 111.416C57.1313 111.609 57.2706 111.857 57.3304 112.13C57.3903 112.402 57.368 112.686 57.2665 112.946C57.165 113.206 56.9888 113.43 56.7601 113.59C56.5314 113.749 56.2605 113.838 55.9816 113.844C55.7028 113.849 55.4284 113.772 55.1932 113.622C54.8778 113.42 54.6554 113.101 54.575 112.735C54.4946 112.369 54.5628 111.986 54.7644 111.67Z" fill="white" stroke="#263238" stroke-linecap="round" stroke-linejoin="round"/>
<path d="M63.3594 117.178L59.3914 110.893L58.0442 111.738L62.009 118.026L63.3594 117.178Z" fill="#263238" stroke="#263238" stroke-linecap="round" stroke-linejoin="round"/>
<path d="M63.9579 117.331L62.8731 115.603L60.8219 116.883L61.9099 118.614C62.0811 118.885 62.3526 119.077 62.665 119.149C62.9774 119.22 63.3053 119.165 63.5771 118.995C63.8477 118.825 64.0397 118.554 64.1111 118.242C64.1825 117.93 64.1274 117.603 63.9579 117.331Z" fill="white" stroke="#263238" stroke-linecap="round" stroke-linejoin="round"/>
<path d="M57.2763 111.552C57.3237 111.219 57.4691 110.907 57.6939 110.657C57.9187 110.406 58.2129 110.228 58.5391 110.145C58.8653 110.062 59.2088 110.078 59.526 110.19C59.8433 110.302 60.12 110.507 60.3211 110.776C60.5222 111.046 60.6386 111.37 60.6556 111.706C60.6725 112.042 60.5892 112.376 60.4163 112.665C60.2433 112.953 59.9885 113.184 59.6841 113.328C59.3798 113.472 59.0396 113.522 58.7067 113.472C58.2628 113.406 57.8629 113.167 57.5948 112.808C57.3267 112.448 57.2122 111.996 57.2763 111.552Z" fill="white" stroke="#263238" stroke-linecap="round" stroke-linejoin="round"/>
<path d="M64.6271 93.731C61.6193 91.7948 60.7506 87.787 62.6868 84.7792C64.6229 81.7715 68.6307 80.9028 71.6385 82.8389C74.6462 84.7751 75.5149 88.7829 73.5788 91.7906C71.6427 94.7984 67.6348 95.6671 64.6271 93.731Z" fill="white" stroke="#263238" stroke-linecap="round" stroke-linejoin="round"/>
<path d="M65.277 89.5961C64.5542 88.0202 65.2457 86.1568 66.8216 85.434C68.3974 84.7111 70.2609 85.4027 70.9837 86.9785C71.7065 88.5544 71.015 90.4179 69.4391 91.1407C67.8633 91.8635 65.9998 91.172 65.277 89.5961Z" fill="#263238" stroke="#263238" stroke-linecap="round" stroke-linejoin="round"/>
<path d="M81.2633 75.4497C75.5178 75.4497 70.8601 70.792 70.8601 65.0465C70.8601 59.301 75.5178 54.6433 81.2633 54.6433C87.0088 54.6433 91.6665 59.301 91.6665 65.0465C91.6665 70.792 87.0088 75.4497 81.2633 75.4497Z" fill="#92E3A9" stroke="#263238" stroke-linecap="round" stroke-linejoin="round"/>
<path d="M66.3896 71.9745C64.1554 69.1734 62.7572 65.7986 62.3558 62.2382C61.9544 58.6778 62.5661 55.0765 64.1206 51.8483C65.675 48.6201 68.109 45.8962 71.1428 43.9899C74.1765 42.0836 77.6867 41.0723 81.2696 41.0723C84.8526 41.0723 88.3627 42.0836 91.3965 43.9899C94.4302 45.8962 96.8642 48.6201 98.4187 51.8483C99.9731 55.0765 100.585 58.6778 100.183 62.2382C99.782 65.7986 98.3838 69.1734 96.1496 71.9745H66.3896Z" fill="white" stroke="#263238" stroke-linecap="round" stroke-linejoin="round"/>
<path d="M69.6216 52.9216H93.3848C94.8305 52.9216 96.0024 54.0936 96.0024 55.5392V63.9616C96.0024 65.4073 94.8305 66.5792 93.3848 66.5792H69.6216C68.176 66.5792 67.004 65.4073 67.004 63.9616V55.5392C67.004 54.0936 68.176 52.9216 69.6216 52.9216Z" fill="#92E3A9" stroke="#263238" stroke-linecap="round" stroke-linejoin="round"/>
<path d="M92.8667 59.1969C92.5524 58.3169 91.9796 57.5525 91.2234 57.0037C90.4672 56.4549 89.5628 56.1474 88.6288 56.1214C87.6948 56.0955 86.7747 56.3523 85.9892 56.8583C85.2037 57.3642 84.5893 58.0957 84.2267 58.9569" stroke="#263238" stroke-width="5" stroke-linecap="round" stroke-linejoin="round"/>
<path d="M78.5337 59.1969C78.2194 58.3169 77.6466 57.5525 76.8904 57.0037C76.1342 56.4549 75.2298 56.1474 74.2958 56.1214C73.3618 56.0955 72.4417 56.3523 71.6562 56.8583C70.8707 57.3642 70.2563 58.0957 69.8937 58.9569" stroke="#263238" stroke-width="5" stroke-linecap="round" stroke-linejoin="round"/>
<path d="M83.772 62.3617C83.6916 62.9963 83.3826 63.5797 82.9027 64.0027C82.4229 64.4256 81.8052 64.659 81.1656 64.659C80.5259 64.659 79.9083 64.4256 79.4284 64.0027C78.9486 63.5797 78.6395 62.9963 78.5592 62.3617H83.772Z" fill="white" stroke="#263238" stroke-linecap="round" stroke-linejoin="round"/>
<path d="M56.6361 63.4433C57.1639 63.4433 57.6702 63.2336 58.0435 62.8603C58.4168 62.487 58.6265 61.9808 58.6265 61.4529V56.9249C58.6269 56.6632 58.5757 56.4041 58.4759 56.1622C58.376 55.9203 58.2295 55.7005 58.0446 55.5154C57.8598 55.3302 57.6402 55.1833 57.3985 55.0831C57.1568 54.9829 56.8977 54.9313 56.6361 54.9313C56.3744 54.9309 56.1152 54.982 55.8734 55.0819C55.6315 55.1817 55.4117 55.3283 55.2266 55.5131C55.0414 55.698 54.8945 55.9176 54.7943 56.1592C54.6941 56.4009 54.6425 56.66 54.6425 56.9217V61.4497C54.642 61.7116 54.6933 61.971 54.7934 62.2131C54.8934 62.4552 55.0402 62.6751 55.2254 62.8603C55.4106 63.0455 55.6306 63.1923 55.8726 63.2924C56.1147 63.3924 56.3741 63.4437 56.6361 63.4433Z" fill="#263238" stroke="#263238" stroke-linecap="round" stroke-linejoin="round"/>
<path d="M106.435 63.4433C106.696 63.4437 106.955 63.3925 107.197 63.2927C107.439 63.1928 107.659 63.0463 107.844 62.8614C108.029 62.6766 108.176 62.457 108.276 62.2153C108.377 61.9736 108.428 61.7145 108.428 61.4529V56.9249C108.429 56.663 108.377 56.4035 108.277 56.1615C108.177 55.9194 108.03 55.6995 107.845 55.5142C107.66 55.329 107.44 55.1822 107.198 55.0822C106.956 54.9821 106.697 54.9309 106.435 54.9313C106.173 54.9313 105.914 54.9828 105.673 55.0828C105.431 55.1828 105.212 55.3294 105.027 55.5143C104.842 55.6991 104.696 55.9185 104.596 56.16C104.496 56.4015 104.444 56.6603 104.444 56.9217V61.4497C104.444 61.7113 104.495 61.9705 104.595 62.2124C104.695 62.4542 104.841 62.674 105.026 62.8592C105.211 63.0443 105.43 63.1912 105.672 63.2915C105.914 63.3917 106.173 63.4433 106.435 63.4433Z" fill="#263238" stroke="#263238" stroke-linecap="round" stroke-linejoin="round"/>
<path d="M100.054 43.0112C101.814 45.6126 102.753 48.6829 102.748 51.824V55.1136" stroke="#263238" stroke-width="14" stroke-linecap="round" stroke-linejoin="round"/>
<path d="M62.2681 43.0241C63.7089 40.8775 65.6559 39.1185 67.9373 37.9025C70.2187 36.6864 72.7644 36.0506 75.3497 36.0513H86.9817C89.5634 36.0495 92.1059 36.6825 94.3854 37.8945C96.665 39.1065 98.6115 40.8604 100.054 43.0017" stroke="#263238" stroke-width="7" stroke-linecap="round" stroke-linejoin="round"/>
<path d="M59.5865 55.1137V51.824C59.5816 48.6888 60.5155 45.6238 62.2681 43.024" stroke="#263238" stroke-width="14" stroke-linecap="round" stroke-linejoin="round"/>
<path d="M101.161 51.5713H103.83C105.374 51.5713 106.626 52.8235 106.626 54.3681V63.6129C106.626 65.1575 105.374 66.4097 103.83 66.4097H101.161C99.6162 66.4097 98.3641 65.1575 98.3641 63.6129V54.3681C98.3641 52.8235 99.6162 51.5713 101.161 51.5713Z" fill="white" stroke="#263238" stroke-linecap="round" stroke-linejoin="round"/>
<path d="M102.073 51.5713H102.915V66.4097H102.073V51.5713Z" fill="#92E3A9" stroke="#263238" stroke-linecap="round" stroke-linejoin="round"/>
<path d="M59.0105 51.5713H61.6793C63.2239 51.5713 64.4761 52.8235 64.4761 54.3681V63.6129C64.4761 65.1575 63.2239 66.4097 61.6793 66.4097H59.0105C57.4658 66.4097 56.2137 65.1575 56.2137 63.6129V54.3681C56.2137 52.8235 57.4658 51.5713 59.0105 51.5713Z" fill="white" stroke="#263238" stroke-linecap="round" stroke-linejoin="round"/>
<path d="M59.9226 51.5713H60.7642V66.4097H59.9226V51.5713Z" fill="#92E3A9" stroke="#263238" stroke-linecap="round" stroke-linejoin="round"/>
<path d="M81.1961 50.2241C79.7384 50.2244 78.3038 49.8597 77.0232 49.1633C75.7426 48.4668 74.6568 47.4607 73.8649 46.2369L72.0601 43.4433C74.92 41.8639 78.1384 41.0475 81.4053 41.0727C84.6723 41.0979 87.8777 41.9639 90.7129 43.5873L87.9961 46.9601C87.1788 47.9779 86.1436 48.7995 84.9668 49.3644C83.79 49.9293 82.5015 50.2231 81.1961 50.2241Z" fill="#92E3A9" stroke="#263238" stroke-linecap="round" stroke-linejoin="round"/>
<path d="M80.7448 67.9617C80.7448 67.8984 80.7635 67.8366 80.7987 67.7839C80.8339 67.7313 80.8838 67.6903 80.9423 67.6661C81.0008 67.6419 81.0651 67.6355 81.1272 67.6479C81.1893 67.6602 81.2463 67.6907 81.291 67.7354C81.3358 67.7802 81.3663 67.8372 81.3786 67.8993C81.391 67.9614 81.3846 68.0257 81.3604 68.0842C81.3362 68.1427 81.2952 68.1926 81.2425 68.2278C81.1899 68.263 81.1281 68.2817 81.0648 68.2817C80.9799 68.2817 80.8985 68.248 80.8385 68.188C80.7785 68.128 80.7448 68.0466 80.7448 67.9617Z" fill="#263238"/>
<path d="M80.7448 69.0369C80.7448 68.9736 80.7635 68.9118 80.7987 68.8591C80.8339 68.8065 80.8838 68.7655 80.9423 68.7413C81.0008 68.7171 81.0651 68.7107 81.1272 68.7231C81.1893 68.7354 81.2463 68.7659 81.291 68.8106C81.3358 68.8554 81.3663 68.9124 81.3786 68.9745C81.391 69.0366 81.3846 69.1009 81.3604 69.1594C81.3362 69.2178 81.2952 69.2678 81.2425 69.303C81.1899 69.3382 81.1281 69.3569 81.0648 69.3569C80.9799 69.3569 80.8985 69.3232 80.8385 69.2632C80.7785 69.2032 80.7448 69.1218 80.7448 69.0369Z" fill="#263238"/>
<path d="M81.9644 68.8705C81.9059 68.8327 81.8614 68.777 81.8375 68.7117C81.8135 68.6463 81.8115 68.575 81.8318 68.5084C81.8521 68.4419 81.8935 68.3837 81.9497 68.3428C82.006 68.3019 82.074 68.2804 82.1436 68.2817C82.202 68.3194 82.2466 68.3751 82.2705 68.4405C82.2944 68.5058 82.2964 68.5771 82.2762 68.6437C82.2559 68.7102 82.2145 68.7684 82.1583 68.8093C82.102 68.8502 82.0339 68.8717 81.9644 68.8705Z" fill="#263238"/>
<path d="M80.0411 68.8704C79.9916 68.8695 79.943 68.8572 79.8991 68.8343C79.8551 68.8115 79.8171 68.7787 79.788 68.7387C79.7589 68.6987 79.7394 68.6524 79.7312 68.6036C79.723 68.5547 79.7262 68.5047 79.7406 68.4573C79.755 68.4099 79.7803 68.3665 79.8143 68.3306C79.8483 68.2946 79.8902 68.267 79.9367 68.25C79.9832 68.233 80.033 68.227 80.0822 68.2324C80.1314 68.2379 80.1787 68.2548 80.2203 68.2816C80.2698 68.2825 80.3185 68.2948 80.3624 68.3177C80.4063 68.3406 80.4443 68.3733 80.4734 68.4133C80.5026 68.4534 80.522 68.4996 80.5302 68.5485C80.5384 68.5973 80.5352 68.6474 80.5208 68.6947C80.5064 68.7421 80.4812 68.7855 80.4471 68.8215C80.4131 68.8574 80.3712 68.885 80.3247 68.902C80.2782 68.9191 80.2284 68.9251 80.1792 68.9196C80.13 68.9141 80.0827 68.8973 80.0411 68.8704Z" fill="#263238"/>
<path d="M68.4764 79.9681C72.55 79.0497 81.3692 78.7201 81.3692 78.7201C83.494 78.7873 89.4076 79.0401 93.4812 79.9713C94.2524 80.1465 94.9234 80.6187 95.3488 81.2854C95.7741 81.9522 95.9194 82.7597 95.7532 83.5329L91.9804 101.184C91.795 102.04 91.3227 102.807 90.6418 103.357C89.9608 103.908 89.1121 104.209 88.2364 104.211H73.6924C72.8167 104.209 71.968 103.908 71.287 103.357C70.6061 102.807 70.1338 102.04 69.9484 101.184L66.1788 83.5329C66.0133 82.7557 66.162 81.9446 66.5925 81.2767C67.0229 80.6088 67.7002 80.1383 68.4764 79.9681Z" fill="white" stroke="#263238" stroke-linecap="round" stroke-linejoin="round"/>
<path d="M70.3322 79.6289C74.7514 78.9697 81.3594 78.7201 81.3594 78.7201C84.5949 78.8128 87.823 79.0798 91.0298 79.5201L86.7546 104.211H75.1354L70.3322 79.6289Z" fill="#92E3A9" stroke="#263238" stroke-linecap="round" stroke-linejoin="round"/>
<path d="M77.5452 84.0864H84.6236C86.0693 84.0864 87.2412 85.2584 87.2412 86.704V90.16C87.2412 91.6057 86.0693 92.7776 84.6236 92.7776H77.5452C76.0996 92.7776 74.9276 91.6057 74.9276 90.16V86.704C74.9276 85.2584 76.0996 84.0864 77.5452 84.0864Z" fill="white" stroke="#263238" stroke-linecap="round" stroke-linejoin="round"/>
<path d="M83.1514 87.6672H85.145V89.6608H83.1514V87.6672Z" fill="white" stroke="#263238" stroke-linecap="round" stroke-linejoin="round"/>
<path d="M80.0889 87.6672H82.0825V89.6608H80.0889V87.6672Z" fill="white" stroke="#263238" stroke-linecap="round" stroke-linejoin="round"/>
<path d="M77.0235 87.6672H79.0171V89.6608H77.0235V87.6672Z" fill="white" stroke="#263238" stroke-linecap="round" stroke-linejoin="round"/>
<path d="M156.839 78.5727C154.375 78.5727 152.167 78.1727 150.215 77.3727C148.263 76.5727 146.695 75.3887 145.511 73.8207C144.359 72.2527 143.751 70.3647 143.687 68.1567H152.423C152.551 69.4047 152.983 70.3647 153.719 71.0367C154.455 71.6767 155.415 71.9967 156.599 71.9967C157.815 71.9967 158.775 71.7247 159.479 71.1807C160.183 70.6047 160.535 69.8207 160.535 68.8287C160.535 67.9967 160.247 67.3087 159.671 66.7647C159.127 66.2207 158.439 65.7727 157.607 65.4207C156.807 65.0687 155.655 64.6687 154.151 64.2207C151.975 63.5487 150.199 62.8767 148.823 62.2047C147.447 61.5327 146.263 60.5407 145.271 59.2287C144.279 57.9167 143.783 56.2047 143.783 54.0927C143.783 50.9567 144.919 48.5087 147.191 46.7487C149.463 44.9567 152.423 44.0607 156.071 44.0607C159.783 44.0607 162.775 44.9567 165.047 46.7487C167.319 48.5087 168.535 50.9727 168.695 54.1407H159.815C159.751 53.0527 159.351 52.2047 158.615 51.5967C157.879 50.9567 156.935 50.6367 155.783 50.6367C154.791 50.6367 153.991 50.9087 153.383 51.4527C152.775 51.9647 152.471 52.7167 152.471 53.7087C152.471 54.7967 152.983 55.6447 154.007 56.2527C155.031 56.8607 156.631 57.5167 158.807 58.2207C160.983 58.9567 162.743 59.6607 164.087 60.3327C165.463 61.0047 166.647 61.9807 167.639 63.2607C168.631 64.5407 169.127 66.1887 169.127 68.2047C169.127 70.1247 168.631 71.8687 167.639 73.4367C166.679 75.0047 165.271 76.2527 163.415 77.1807C161.559 78.1087 159.367 78.5727 156.839 78.5727ZM199.426 64.4127C199.426 65.1807 199.378 65.9807 199.282 66.8127H180.706C180.834 68.4767 181.362 69.7567 182.29 70.6527C183.25 71.5167 184.418 71.9487 185.794 71.9487C187.842 71.9487 189.266 71.0847 190.066 69.3567H198.802C198.354 71.1167 197.538 72.7007 196.354 74.1087C195.202 75.5167 193.746 76.6207 191.986 77.4207C190.226 78.2207 188.258 78.6207 186.082 78.6207C183.458 78.6207 181.122 78.0607 179.074 76.9407C177.026 75.8207 175.426 74.2207 174.274 72.1407C173.122 70.0607 172.546 67.6287 172.546 64.8447C172.546 62.0607 173.106 59.6287 174.226 57.5487C175.378 55.4687 176.978 53.8687 179.026 52.7487C181.074 51.6287 183.426 51.0687 186.082 51.0687C188.674 51.0687 190.978 51.6127 192.994 52.7007C195.01 53.7887 196.578 55.3407 197.698 57.3567C198.85 59.3727 199.426 61.7247 199.426 64.4127ZM191.026 62.2527C191.026 60.8447 190.546 59.7247 189.586 58.8927C188.626 58.0607 187.426 57.6447 185.986 57.6447C184.61 57.6447 183.442 58.0447 182.482 58.8447C181.554 59.6447 180.978 60.7807 180.754 62.2527H191.026ZM211.964 55.9167C212.924 54.4447 214.124 53.2927 215.564 52.4607C217.004 51.5967 218.604 51.1647 220.364 51.1647V59.8527H218.108C216.06 59.8527 214.524 60.3007 213.5 61.1967C212.476 62.0607 211.964 63.5967 211.964 65.8047V78.2367H203.756V51.4527H211.964V55.9167ZM249.536 64.4127C249.536 65.1807 249.488 65.9807 249.392 66.8127H230.816C230.944 68.4767 231.472 69.7567 232.4 70.6527C233.36 71.5167 234.528 71.9487 235.904 71.9487C237.952 71.9487 239.376 71.0847 240.176 69.3567H248.912C248.464 71.1167 247.648 72.7007 246.464 74.1087C245.312 75.5167 243.856 76.6207 242.096 77.4207C240.336 78.2207 238.368 78.6207 236.192 78.6207C233.568 78.6207 231.232 78.0607 229.184 76.9407C227.136 75.8207 225.536 74.2207 224.384 72.1407C223.232 70.0607 222.656 67.6287 222.656 64.8447C222.656 62.0607 223.216 59.6287 224.336 57.5487C225.488 55.4687 227.088 53.8687 229.136 52.7487C231.184 51.6287 233.536 51.0687 236.192 51.0687C238.784 51.0687 241.088 51.6127 243.104 52.7007C245.12 53.7887 246.688 55.3407 247.808 57.3567C248.96 59.3727 249.536 61.7247 249.536 64.4127ZM241.136 62.2527C241.136 60.8447 240.656 59.7247 239.696 58.8927C238.736 58.0607 237.536 57.6447 236.096 57.6447C234.72 57.6447 233.552 58.0447 232.592 58.8447C231.664 59.6447 231.088 60.7807 230.864 62.2527H241.136ZM270.186 51.1647C273.322 51.1647 275.818 52.1887 277.674 54.2367C279.562 56.2527 280.506 59.0367 280.506 62.5887V78.2367H272.346V63.6927C272.346 61.9007 271.882 60.5087 270.954 59.5167C270.026 58.5247 268.778 58.0287 267.21 58.0287C265.642 58.0287 264.394 58.5247 263.466 59.5167C262.538 60.5087 262.074 61.9007 262.074 63.6927V78.2367H253.866V51.4527H262.074V55.0047C262.906 53.8207 264.026 52.8927 265.434 52.2207C266.842 51.5167 268.426 51.1647 270.186 51.1647Z" fill="#1B4332"/>
</svg>
