<svg width="549" height="604" viewBox="0 0 549 604" fill="none" xmlns="http://www.w3.org/2000/svg">
<path d="M198.961 44.78C196.908 44.78 195.068 44.4467 193.441 43.78C191.815 43.1133 190.508 42.1267 189.521 40.82C188.561 39.5133 188.055 37.94 188.001 36.1H195.281C195.388 37.14 195.748 37.94 196.361 38.5C196.975 39.0333 197.775 39.3 198.761 39.3C199.775 39.3 200.575 39.0733 201.161 38.62C201.748 38.14 202.041 37.4867 202.041 36.66C202.041 35.9667 201.801 35.3933 201.321 34.94C200.868 34.4867 200.295 34.1133 199.601 33.82C198.935 33.5267 197.975 33.1933 196.721 32.82C194.908 32.26 193.428 31.7 192.281 31.14C191.135 30.58 190.148 29.7533 189.321 28.66C188.495 27.5667 188.081 26.14 188.081 24.38C188.081 21.7667 189.028 19.7267 190.921 18.26C192.815 16.7667 195.281 16.02 198.321 16.02C201.415 16.02 203.908 16.7667 205.801 18.26C207.695 19.7267 208.708 21.78 208.841 24.42H201.441C201.388 23.5133 201.055 22.8067 200.441 22.3C199.828 21.7667 199.041 21.5 198.081 21.5C197.255 21.5 196.588 21.7267 196.081 22.18C195.575 22.6067 195.321 23.2333 195.321 24.06C195.321 24.9667 195.748 25.6733 196.601 26.18C197.455 26.6867 198.788 27.2333 200.601 27.82C202.415 28.4333 203.881 29.02 205.001 29.58C206.148 30.14 207.135 30.9533 207.961 32.02C208.788 33.0867 209.201 34.46 209.201 36.14C209.201 37.74 208.788 39.1933 207.961 40.5C207.161 41.8067 205.988 42.8467 204.441 43.62C202.895 44.3933 201.068 44.78 198.961 44.78ZM234.451 32.98C234.451 33.62 234.411 34.2867 234.331 34.98H218.851C218.957 36.3667 219.397 37.4333 220.171 38.18C220.971 38.9 221.944 39.26 223.091 39.26C224.797 39.26 225.984 38.54 226.651 37.1H233.931C233.557 38.5667 232.877 39.8867 231.891 41.06C230.931 42.2333 229.717 43.1533 228.251 43.82C226.784 44.4867 225.144 44.82 223.331 44.82C221.144 44.82 219.197 44.3533 217.491 43.42C215.784 42.4867 214.451 41.1533 213.491 39.42C212.531 37.6867 212.051 35.66 212.051 33.34C212.051 31.02 212.517 28.9933 213.451 27.26C214.411 25.5267 215.744 24.1933 217.451 23.26C219.157 22.3267 221.117 21.86 223.331 21.86C225.491 21.86 227.411 22.3133 229.091 23.22C230.771 24.1267 232.077 25.42 233.011 27.1C233.971 28.78 234.451 30.74 234.451 32.98ZM227.451 31.18C227.451 30.0067 227.051 29.0733 226.251 28.38C225.451 27.6867 224.451 27.34 223.251 27.34C222.104 27.34 221.131 27.6733 220.331 28.34C219.557 29.0067 219.077 29.9533 218.891 31.18H227.451ZM244.899 25.9C245.699 24.6733 246.699 23.7133 247.899 23.02C249.099 22.3 250.432 21.94 251.899 21.94V29.18H250.019C248.312 29.18 247.032 29.5533 246.179 30.3C245.326 31.02 244.899 32.3 244.899 34.14V44.5H238.059V22.18H244.899V25.9ZM276.208 32.98C276.208 33.62 276.168 34.2867 276.088 34.98H260.608C260.715 36.3667 261.155 37.4333 261.928 38.18C262.728 38.9 263.702 39.26 264.848 39.26C266.555 39.26 267.742 38.54 268.408 37.1H275.688C275.315 38.5667 274.635 39.8867 273.648 41.06C272.688 42.2333 271.475 43.1533 270.008 43.82C268.542 44.4867 266.902 44.82 265.088 44.82C262.902 44.82 260.955 44.3533 259.248 43.42C257.542 42.4867 256.208 41.1533 255.248 39.42C254.288 37.6867 253.808 35.66 253.808 33.34C253.808 31.02 254.275 28.9933 255.208 27.26C256.168 25.5267 257.502 24.1933 259.208 23.26C260.915 22.3267 262.875 21.86 265.088 21.86C267.248 21.86 269.168 22.3133 270.848 23.22C272.528 24.1267 273.835 25.42 274.768 27.1C275.728 28.78 276.208 30.74 276.208 32.98ZM269.208 31.18C269.208 30.0067 268.808 29.0733 268.008 28.38C267.208 27.6867 266.208 27.34 265.008 27.34C263.862 27.34 262.888 27.6733 262.088 28.34C261.315 29.0067 260.835 29.9533 260.648 31.18H269.208ZM293.417 21.94C296.03 21.94 298.11 22.7933 299.657 24.5C301.23 26.18 302.017 28.5 302.017 31.46V44.5H295.217V32.38C295.217 30.8867 294.83 29.7267 294.057 28.9C293.284 28.0733 292.244 27.66 290.937 27.66C289.63 27.66 288.59 28.0733 287.817 28.9C287.044 29.7267 286.657 30.8867 286.657 32.38V44.5H279.817V22.18H286.657V25.14C287.35 24.1533 288.284 23.38 289.457 22.82C290.63 22.2333 291.95 21.94 293.417 21.94Z" fill="#A3B18A"/>
<path d="M465.244 230.918C465.244 230.918 446.721 156.627 334.582 109.776C222.444 62.9239 122.12 106.317 99.2482 161.217C76.3768 216.117 100.346 245.763 85.084 292.648C69.8218 339.532 -8.5864 398.912 23.058 470.919C54.7023 542.926 202.779 563.491 322.603 548.635C442.428 533.779 536.044 369.2 465.244 230.918Z" fill="#92E3A9"/>
<path opacity="0.7" d="M465.244 230.918C465.244 230.918 446.721 156.627 334.582 109.776C222.444 62.9239 122.12 106.317 99.2482 161.217C76.3768 216.117 100.346 245.763 85.084 292.648C69.8218 339.532 -8.5864 398.912 23.058 470.919C54.7023 542.926 202.779 563.491 322.603 548.635C442.428 533.779 536.044 369.2 465.244 230.918Z" fill="white"/>
<path d="M263.533 128.222H172.399C169.487 128.222 166.694 129.379 164.635 131.438C162.576 133.498 161.419 136.29 161.419 139.202V173.24C161.419 176.152 162.576 178.945 164.635 181.004C166.694 183.064 169.487 184.22 172.399 184.22H262.984L274.513 199.592V139.202C274.513 136.29 273.356 133.498 271.297 131.438C269.238 129.379 266.445 128.222 263.533 128.222Z" fill="#263238"/>
<path d="M181.26 165.697H177.966V144.835H181.26V153.762H184.971V144.835H188.265V165.697H184.971V156.77H181.26V165.697Z" fill="#92E3A9"/>
<path d="M190.691 144.868H193.985V165.73H190.691V144.868Z" fill="#92E3A9"/>
<path d="M200.002 144.868H210.115V147.844H206.689V165.697H203.395V147.844H199.98L200.002 144.868Z" fill="#92E3A9"/>
<path d="M214.815 165.697H211.521V144.835H214.815V153.762H218.515V144.835H221.809V165.697H218.515V156.77H214.793L214.815 165.697Z" fill="#92E3A9"/>
<path d="M227.519 153.641H232.009V156.617H227.519V162.722H233.173V165.697H224.247V144.835H233.173V147.811H227.519V153.641Z" fill="#92E3A9"/>
<path d="M242.034 165.697C241.765 164.873 241.665 164.003 241.737 163.139V159.845C241.737 157.912 241.09 157.199 239.541 157.199H238.443V165.675H235.149V144.813H240.09C243.483 144.813 244.944 146.394 244.944 149.601V151.237C244.944 153.378 244.252 154.783 242.748 155.464C244.384 156.156 244.944 157.726 244.944 159.856V163.073C244.884 163.931 245.008 164.792 245.306 165.598L242.034 165.697ZM238.465 147.844V154.245H239.75C240.969 154.245 241.715 153.707 241.715 152.049V149.985C241.715 148.503 241.21 147.789 240.047 147.789L238.465 147.844Z" fill="#92E3A9"/>
<path d="M250.434 153.641H254.925V156.617H250.434V162.722H256.078V165.697H247.151V144.835H256.078V147.811H250.434V153.641Z" fill="#92E3A9"/>
<path d="M258.526 161.085L258.109 153.553V144.868H261.403V153.553L260.986 161.085H258.526ZM261.315 162.546V165.697H258.164V162.546H261.315Z" fill="#92E3A9"/>
<path d="M278.553 353.598H261.776V499.412H278.553V353.598Z" fill="#263238" stroke="#263238" stroke-linecap="round" stroke-linejoin="round"/>
<path d="M145.52 406.401V416.656H212.388V406.401H145.52Z" fill="#263238" stroke="#263238" stroke-linecap="round" stroke-linejoin="round"/>
<path d="M152.394 371.001H142.138V412.033H152.394V371.001Z" fill="#263238" stroke="#263238" stroke-linecap="round" stroke-linejoin="round"/>
<path d="M156.665 412.209C156.665 413.443 156.422 414.665 155.949 415.804C155.477 416.944 154.784 417.979 153.911 418.851C153.038 419.723 152.002 420.414 150.862 420.886C149.722 421.357 148.5 421.598 147.266 421.597C146.958 421.597 146.651 421.597 146.355 421.597C144.644 421.428 143.013 420.793 141.639 419.762C140.264 418.731 139.198 417.342 138.558 415.747C137.917 414.153 137.726 412.413 138.005 410.717C138.284 409.022 139.023 407.435 140.141 406.13C141.259 404.825 142.713 403.851 144.346 403.314C145.978 402.778 147.727 402.7 149.401 403.087C151.075 403.475 152.611 404.315 153.841 405.515C155.071 406.714 155.949 408.228 156.379 409.892C156.567 410.65 156.663 411.428 156.665 412.209Z" fill="white" stroke="#263238" stroke-linecap="round" stroke-linejoin="round"/>
<path d="M157.356 377.326C157.351 379.816 156.358 382.202 154.597 383.961C152.835 385.721 150.448 386.711 147.958 386.714C147.65 386.714 147.343 386.714 147.035 386.714C145.324 386.55 143.691 385.92 142.313 384.892C140.935 383.864 139.866 382.479 139.22 380.885C138.575 379.292 138.379 377.553 138.654 375.856C138.929 374.159 139.663 372.57 140.778 371.262C141.893 369.954 143.345 368.976 144.977 368.436C146.608 367.895 148.357 367.812 150.032 368.196C151.708 368.58 153.246 369.417 154.479 370.614C155.712 371.811 156.594 373.324 157.027 374.987C157.238 375.749 157.349 376.535 157.356 377.326Z" fill="white" stroke="#263238" stroke-linecap="round" stroke-linejoin="round"/>
<path d="M174.185 351.852L160.515 359.212L163.347 364.471L177.017 357.111L174.185 351.852Z" fill="#263238" stroke="#263238" stroke-linecap="round" stroke-linejoin="round"/>
<path d="M179.283 357.682L172.553 361.306L168.249 353.323L174.99 349.689C175.519 349.399 176.101 349.218 176.701 349.156C177.301 349.094 177.907 349.153 178.484 349.329C179.061 349.505 179.597 349.794 180.061 350.181C180.524 350.567 180.906 351.042 181.183 351.578C181.734 352.64 181.844 353.877 181.488 355.02C181.132 356.163 180.34 357.12 179.283 357.682Z" fill="white" stroke="#263238" stroke-linecap="round" stroke-linejoin="round"/>
<path d="M149.78 323.831L149.297 351.676L143.335 351.578L143.807 323.732L149.78 323.831Z" fill="#263238" stroke="#263238" stroke-linecap="round" stroke-linejoin="round"/>
<path d="M151.394 322.151L151.274 329.837L142.204 329.618L142.325 321.932C142.335 321.336 142.462 320.748 142.699 320.202C142.936 319.656 143.279 319.161 143.707 318.747C144.135 318.333 144.641 318.008 145.195 317.789C145.749 317.571 146.341 317.464 146.936 317.474C147.538 317.482 148.132 317.61 148.684 317.851C149.235 318.092 149.733 318.44 150.148 318.876C150.563 319.312 150.887 319.826 151.101 320.388C151.315 320.95 151.415 321.55 151.394 322.151Z" fill="white" stroke="#263238" stroke-linecap="round" stroke-linejoin="round"/>
<path d="M172.091 333.933L158.992 358.506L153.722 355.706L166.81 331.133L172.091 333.933Z" fill="#263238" stroke="#263238" stroke-linecap="round" stroke-linejoin="round"/>
<path d="M174.287 333.175L170.697 339.928L162.692 335.679L166.272 328.915C166.838 327.856 167.8 327.065 168.948 326.713C170.096 326.361 171.336 326.478 172.399 327.037C173.462 327.602 174.258 328.565 174.612 329.716C174.966 330.866 174.849 332.111 174.287 333.175Z" fill="white" stroke="#263238" stroke-linecap="round" stroke-linejoin="round"/>
<path d="M128.61 333.823L141.589 358.462L136.307 361.251L123.329 336.612L128.61 333.823Z" fill="#263238" stroke="#263238" stroke-linecap="round" stroke-linejoin="round"/>
<path d="M140.788 351.687C140.595 350.548 140.069 349.491 139.276 348.65C138.482 347.81 137.457 347.224 136.331 346.966C135.204 346.708 134.026 346.79 132.946 347.202C131.866 347.614 130.933 348.337 130.264 349.28C129.595 350.222 129.221 351.342 129.189 352.497C129.157 353.653 129.468 354.792 130.083 355.77C130.698 356.748 131.59 357.522 132.645 357.994C133.701 358.465 134.872 358.613 136.011 358.418C137.537 358.158 138.896 357.303 139.792 356.041C140.687 354.779 141.045 353.213 140.788 351.687Z" fill="white" stroke="#263238" stroke-linecap="round" stroke-linejoin="round"/>
<path d="M146.497 352.456C149.723 352.456 152.338 349.841 152.338 346.615C152.338 343.389 149.723 340.773 146.497 340.773C143.271 340.773 140.656 343.389 140.656 346.615C140.656 349.841 143.271 352.456 146.497 352.456Z" fill="white" stroke="#263238" stroke-linecap="round" stroke-linejoin="round"/>
<path d="M165.558 349.985C165.734 348.843 165.567 347.675 165.078 346.627C164.59 345.58 163.801 344.701 162.813 344.102C161.825 343.503 160.681 343.21 159.527 343.261C158.372 343.312 157.259 343.705 156.327 344.389C155.396 345.073 154.688 346.018 154.294 347.104C153.9 348.19 153.836 349.369 154.112 350.491C154.388 351.614 154.991 352.629 155.844 353.409C156.697 354.188 157.762 354.697 158.904 354.872C159.662 354.989 160.436 354.955 161.18 354.773C161.925 354.59 162.627 354.263 163.245 353.809C163.863 353.355 164.385 352.784 164.782 352.128C165.179 351.472 165.443 350.744 165.558 349.985Z" fill="white" stroke="#263238" stroke-linecap="round" stroke-linejoin="round"/>
<path d="M129.215 331.572L132.794 338.336L124.779 342.585L121.199 335.81C120.92 335.284 120.747 334.708 120.69 334.115C120.634 333.522 120.695 332.924 120.871 332.355C121.046 331.785 121.332 331.256 121.713 330.798C122.093 330.34 122.56 329.961 123.088 329.683C124.151 329.125 125.393 329.01 126.541 329.364C127.689 329.718 128.65 330.512 129.215 331.572Z" fill="white" stroke="#263238" stroke-linecap="round" stroke-linejoin="round"/>
<path d="M164.438 362.964C164.438 367.332 162.703 371.521 159.614 374.61C156.525 377.699 152.336 379.434 147.968 379.434C147.419 379.434 146.87 379.434 146.354 379.368C143.358 379.071 140.501 377.958 138.093 376.151C135.685 374.344 133.818 371.911 132.696 369.118C131.574 366.324 131.239 363.276 131.727 360.305C132.216 357.335 133.509 354.555 135.467 352.268C137.425 349.98 139.973 348.274 142.832 347.333C145.692 346.392 148.756 346.253 151.689 346.932C154.622 347.61 157.313 349.079 159.47 351.18C161.627 353.28 163.167 355.932 163.922 358.846C164.263 360.192 164.436 361.575 164.438 362.964Z" fill="white" stroke="#263238" stroke-linecap="round" stroke-linejoin="round"/>
<path d="M164.439 362.964C164.439 367.332 162.703 371.521 159.615 374.61C156.526 377.699 152.337 379.434 147.969 379.434C147.42 379.434 146.871 379.434 146.354 379.368C145.723 376.931 145.659 374.382 146.167 371.916C146.675 369.451 147.741 367.135 149.284 365.146C150.827 363.156 152.805 361.547 155.067 360.442C157.328 359.337 159.813 358.765 162.33 358.769C162.868 358.769 163.428 358.769 163.944 358.846C164.278 360.193 164.443 361.576 164.439 362.964Z" fill="white" stroke="#263238" stroke-linecap="round" stroke-linejoin="round"/>
<path d="M247.371 412.506C250.168 400.555 242.747 388.6 230.796 385.803C218.845 383.007 206.89 390.428 204.093 402.379C201.297 414.33 208.718 426.285 220.669 429.081C232.62 431.878 244.575 424.457 247.371 412.506Z" fill="white" stroke="#263238" stroke-linecap="round" stroke-linejoin="round"/>
<path d="M229.861 417.381C235.351 415.091 237.946 408.783 235.656 403.293C233.366 397.802 227.059 395.208 221.568 397.498C216.078 399.788 213.483 406.095 215.773 411.586C218.063 417.076 224.371 419.671 229.861 417.381Z" fill="#263238" stroke="#263238" stroke-linecap="round" stroke-linejoin="round"/>
<path d="M221.908 501.466H320.508L321.925 494.79C322.493 492.123 321.982 489.34 320.505 487.048C319.028 484.756 316.704 483.142 314.041 482.558C300.063 479.418 269.803 478.287 269.803 478.287C262.512 478.517 242.221 479.385 228.243 482.569C225.599 483.173 223.298 484.793 221.839 487.08C220.38 489.367 219.88 492.137 220.447 494.79L221.908 501.466Z" fill="white" stroke="#263238" stroke-linecap="round" stroke-linejoin="round"/>
<path d="M294.936 479.912C282.309 478.748 269.836 478.287 269.836 478.287C265.246 478.429 255.496 478.836 245.416 479.912C248.359 489.958 258.328 497.359 270.176 497.359C282.023 497.359 291.993 489.926 294.936 479.912Z" fill="#92E3A9" stroke="#263238" stroke-linecap="round" stroke-linejoin="round"/>
<path d="M373.161 454.385L379.294 446.165L325.702 406.175L319.568 414.394L373.161 454.385Z" fill="#263238" stroke="#263238" stroke-linecap="round" stroke-linejoin="round"/>
<path d="M346.491 478.648L354.71 484.782L379.249 451.896L371.03 445.763L346.491 478.648Z" fill="#263238" stroke="#263238" stroke-linecap="round" stroke-linejoin="round"/>
<path d="M367.7 443.063C368.439 442.072 369.367 441.236 370.429 440.604C371.492 439.971 372.668 439.554 373.892 439.377C375.116 439.2 376.362 439.265 377.561 439.57C378.759 439.874 379.886 440.412 380.876 441.152L381.59 441.734C382.86 442.893 383.788 444.377 384.273 446.026C384.758 447.675 384.781 449.425 384.341 451.086C383.901 452.748 383.013 454.257 381.775 455.449C380.537 456.641 378.996 457.471 377.319 457.848C375.642 458.225 373.894 458.136 372.264 457.589C370.635 457.042 369.187 456.058 368.077 454.745C366.968 453.433 366.24 451.841 365.972 450.143C365.704 448.445 365.907 446.707 366.558 445.116C366.853 444.387 367.236 443.698 367.7 443.063Z" fill="white" stroke="#263238" stroke-linecap="round" stroke-linejoin="round"/>
<path d="M346.256 469.338C347.648 467.271 349.805 465.841 352.251 465.363C354.697 464.886 357.233 465.399 359.3 466.791C359.553 466.955 359.795 467.142 360.036 467.329C361.362 468.423 362.362 469.86 362.928 471.483C363.494 473.106 363.604 474.853 363.246 476.534C362.888 478.215 362.076 479.766 360.898 481.018C359.72 482.27 358.222 483.175 356.565 483.634C354.909 484.094 353.158 484.09 351.504 483.624C349.849 483.158 348.354 482.247 347.182 480.99C346.009 479.733 345.203 478.179 344.852 476.496C344.501 474.814 344.619 473.067 345.191 471.446C345.457 470.702 345.815 469.994 346.256 469.338Z" fill="white" stroke="#263238" stroke-linecap="round" stroke-linejoin="round"/>
<path d="M318.033 481.101L333.484 482.619L334.068 476.674L318.617 475.157L318.033 481.101Z" fill="#263238" stroke="#263238" stroke-linecap="round" stroke-linejoin="round"/>
<path d="M317.093 473.456L324.713 474.202L323.824 483.228L316.204 482.481C315.007 482.365 313.905 481.777 313.142 480.849C312.378 479.92 312.014 478.726 312.13 477.529C312.25 476.332 312.839 475.23 313.769 474.466C314.7 473.703 315.895 473.339 317.093 473.456Z" fill="white" stroke="#263238" stroke-linecap="round" stroke-linejoin="round"/>
<path d="M332.356 477.299C333.562 475.5 335.112 473.957 336.916 472.759C338.72 471.56 340.742 470.729 342.867 470.312C344.993 469.896 347.18 469.904 349.302 470.334C351.425 470.764 353.442 471.608 355.238 472.819C355.688 473.126 356.116 473.445 356.533 473.785C358.855 475.703 360.606 478.221 361.596 481.065C362.586 483.909 362.778 486.971 362.15 489.916C361.522 492.861 360.098 495.578 358.034 497.77C355.97 499.963 353.344 501.548 350.442 502.352C347.54 503.157 344.473 503.15 341.574 502.333C338.675 501.516 336.056 499.92 334.002 497.719C331.947 495.517 330.535 492.795 329.919 489.847C329.304 486.899 329.509 483.839 330.511 480.999C330.965 479.692 331.585 478.448 332.356 477.299Z" fill="white" stroke="#263238" stroke-linecap="round" stroke-linejoin="round"/>
<path d="M314.612 494.405L335.035 479.132L338.318 483.513L317.895 498.776L314.612 494.405Z" fill="#263238" stroke="#263238" stroke-linecap="round" stroke-linejoin="round"/>
<path d="M312.493 494.175L318.104 489.926L323.089 496.514L317.478 500.719C316.597 501.378 315.49 501.661 314.401 501.504C313.312 501.348 312.329 500.765 311.669 499.884C311.037 499.013 310.769 497.929 310.923 496.863C311.077 495.796 311.64 494.832 312.493 494.175Z" fill="white" stroke="#263238" stroke-linecap="round" stroke-linejoin="round"/>
<path d="M340.986 483.843C341.245 482.715 341.164 481.536 340.752 480.454C340.34 479.373 339.617 478.438 338.673 477.769C337.729 477.099 336.608 476.725 335.451 476.694C334.295 476.662 333.155 476.975 332.176 477.592C331.198 478.21 330.424 479.104 329.955 480.162C329.485 481.219 329.34 482.392 329.538 483.532C329.736 484.672 330.268 485.728 331.067 486.565C331.865 487.402 332.895 487.983 334.024 488.235C335.529 488.57 337.106 488.296 338.41 487.473C339.714 486.65 340.64 485.345 340.986 483.843Z" fill="white" stroke="#263238" stroke-linecap="round" stroke-linejoin="round"/>
<path d="M351.812 509.755L354.843 488.806L359.333 489.442L356.314 510.392L351.812 509.755Z" fill="#263238" stroke="#263238" stroke-linecap="round" stroke-linejoin="round"/>
<path d="M350.44 510.864L351.263 505.1L358.082 506.077L357.258 511.831C357.195 512.279 357.044 512.711 356.814 513.101C356.583 513.491 356.279 513.832 355.917 514.104C355.555 514.376 355.143 514.575 354.704 514.688C354.265 514.801 353.809 514.826 353.36 514.762C352.457 514.632 351.641 514.148 351.094 513.417C350.546 512.687 350.311 511.769 350.44 510.864Z" fill="white" stroke="#263238" stroke-linecap="round" stroke-linejoin="round"/>
<path d="M361.09 488.07C360.573 487.265 359.829 486.63 358.952 486.247C358.075 485.865 357.104 485.75 356.162 485.919C355.22 486.088 354.349 486.532 353.659 487.195C352.969 487.859 352.491 488.712 352.286 489.646C352.08 490.581 352.157 491.556 352.505 492.447C352.853 493.339 353.458 494.107 354.243 494.655C355.027 495.203 355.957 495.506 356.914 495.526C357.871 495.546 358.812 495.282 359.619 494.768C360.701 494.074 361.464 492.979 361.74 491.723C362.016 490.467 361.782 489.154 361.09 488.07Z" fill="white" stroke="#263238" stroke-linecap="round" stroke-linejoin="round"/>
<path d="M331.598 506.967L345.213 485.402L349.835 488.301L336.231 509.876L331.598 506.967Z" fill="#263238" stroke="#263238" stroke-linecap="round" stroke-linejoin="round"/>
<path d="M329.545 507.494L333.267 501.564L340.305 505.956L336.572 511.897C335.984 512.826 335.053 513.485 333.981 513.73C332.909 513.975 331.784 513.785 330.851 513.203C329.923 512.618 329.264 511.688 329.019 510.618C328.774 509.548 328.963 508.425 329.545 507.494Z" fill="white" stroke="#263238" stroke-linecap="round" stroke-linejoin="round"/>
<path d="M352.471 487.664C352.308 486.52 351.809 485.451 351.038 484.591C350.266 483.732 349.257 483.121 348.138 482.836C347.019 482.551 345.84 482.604 344.751 482.99C343.663 483.376 342.713 484.076 342.023 485.002C341.333 485.929 340.934 487.039 340.876 488.192C340.817 489.346 341.103 490.491 341.697 491.481C342.29 492.472 343.164 493.265 344.209 493.758C345.253 494.251 346.42 494.423 347.563 494.252C349.086 494.026 350.458 493.206 351.378 491.972C352.298 490.737 352.691 489.188 352.471 487.664Z" fill="white" stroke="#263238" stroke-linecap="round" stroke-linejoin="round"/>
<path d="M327.248 426.515C337.568 419.872 340.549 406.12 333.906 395.8C327.262 385.479 313.51 382.498 303.19 389.142C292.87 395.785 289.889 409.537 296.532 419.857C303.176 430.178 316.927 433.158 327.248 426.515Z" fill="white" stroke="#263238" stroke-linecap="round" stroke-linejoin="round"/>
<path d="M325.019 412.327C327.499 406.92 325.126 400.526 319.719 398.046C314.312 395.566 307.918 397.938 305.438 403.346C302.957 408.753 305.33 415.147 310.737 417.627C316.145 420.107 322.539 417.734 325.019 412.327Z" fill="#263238" stroke="#263238" stroke-linecap="round" stroke-linejoin="round"/>
<path d="M270.165 363.787C289.879 363.787 305.861 347.806 305.861 328.091C305.861 308.377 289.879 292.395 270.165 292.395C250.45 292.395 234.469 308.377 234.469 328.091C234.469 347.806 250.45 363.787 270.165 363.787Z" fill="#92E3A9" stroke="#263238" stroke-linecap="round" stroke-linejoin="round"/>
<path d="M321.2 351.863C328.866 342.252 333.664 330.672 335.041 318.456C336.418 306.239 334.319 293.882 328.986 282.805C323.652 271.728 315.3 262.382 304.891 255.841C294.481 249.3 282.437 245.83 270.143 245.83C257.849 245.83 245.805 249.3 235.395 255.841C224.986 262.382 216.634 271.728 211.3 282.805C205.967 293.882 203.868 306.239 205.245 318.456C206.622 330.672 211.42 342.252 219.086 351.863H321.2Z" fill="white" stroke="#263238" stroke-linecap="round" stroke-linejoin="round"/>
<path d="M310.11 286.488H228.572C223.612 286.488 219.591 290.509 219.591 295.47V324.369C219.591 329.33 223.612 333.351 228.572 333.351H310.11C315.07 333.351 319.092 329.33 319.092 324.369V295.47C319.092 290.509 315.07 286.488 310.11 286.488Z" fill="#92E3A9" stroke="#263238" stroke-linecap="round" stroke-linejoin="round"/>
<path d="M230.351 308.02C231.429 305.001 233.395 302.378 235.99 300.495C238.584 298.612 241.688 297.556 244.892 297.467C248.097 297.378 251.254 298.26 253.95 299.996C256.645 301.732 258.753 304.242 259.997 307.196" stroke="#263238" stroke-width="5" stroke-linecap="round" stroke-linejoin="round"/>
<path d="M279.531 308.02C280.609 305.001 282.574 302.378 285.169 300.495C287.764 298.612 290.867 297.556 294.072 297.467C297.277 297.378 300.434 298.26 303.129 299.996C305.825 301.732 307.932 304.242 309.177 307.196" stroke="#263238" stroke-width="5" stroke-linecap="round" stroke-linejoin="round"/>
<path d="M261.557 318.879C261.832 321.057 262.893 323.059 264.539 324.51C266.186 325.961 268.305 326.762 270.5 326.762C272.695 326.762 274.814 325.961 276.46 324.51C278.107 323.059 279.167 321.057 279.443 318.879H261.557Z" fill="white" stroke="#263238" stroke-linecap="round" stroke-linejoin="round"/>
<path d="M354.667 322.59C352.856 322.59 351.119 321.871 349.838 320.59C348.557 319.309 347.837 317.572 347.837 315.761V300.224C347.836 299.326 348.012 298.437 348.354 297.607C348.697 296.777 349.2 296.023 349.834 295.388C350.468 294.752 351.222 294.248 352.051 293.904C352.88 293.561 353.769 293.384 354.667 293.384C355.565 293.382 356.454 293.558 357.284 293.9C358.114 294.243 358.868 294.746 359.503 295.38C360.139 296.014 360.643 296.768 360.987 297.597C361.33 298.426 361.508 299.315 361.508 300.213V315.75C361.509 316.649 361.333 317.539 360.99 318.369C360.646 319.2 360.143 319.955 359.507 320.59C358.872 321.226 358.117 321.729 357.286 322.073C356.456 322.416 355.566 322.592 354.667 322.59Z" fill="#263238" stroke="#263238" stroke-linecap="round" stroke-linejoin="round"/>
<path d="M183.796 322.59C182.898 322.592 182.009 322.416 181.179 322.074C180.349 321.731 179.595 321.228 178.96 320.594C178.324 319.96 177.82 319.206 177.476 318.377C177.133 317.548 176.956 316.659 176.956 315.761V300.224C176.954 299.325 177.13 298.435 177.473 297.605C177.817 296.774 178.32 296.019 178.956 295.384C179.591 294.748 180.346 294.245 181.177 293.901C182.007 293.558 182.897 293.382 183.796 293.384C184.693 293.384 185.581 293.56 186.41 293.903C187.238 294.247 187.991 294.75 188.625 295.384C189.26 296.018 189.763 296.771 190.106 297.6C190.449 298.428 190.626 299.316 190.626 300.213V315.75C190.627 316.648 190.452 317.537 190.109 318.367C189.766 319.197 189.264 319.951 188.629 320.586C187.995 321.221 187.242 321.726 186.412 322.069C185.583 322.413 184.694 322.59 183.796 322.59Z" fill="#263238" stroke="#263238" stroke-linecap="round" stroke-linejoin="round"/>
<path d="M205.69 252.483C199.649 261.409 196.428 271.944 196.445 282.722V294.009" stroke="#263238" stroke-width="14" stroke-linecap="round" stroke-linejoin="round"/>
<path d="M335.342 252.527C330.399 245.161 323.718 239.126 315.89 234.954C308.062 230.781 299.327 228.599 290.456 228.602H250.544C241.685 228.595 232.961 230.767 225.14 234.926C217.318 239.085 210.639 245.103 205.69 252.45" stroke="#263238" stroke-width="7" stroke-linecap="round" stroke-linejoin="round"/>
<path d="M344.544 294.009V282.722C344.56 271.964 341.356 261.447 335.342 252.527" stroke="#263238" stroke-width="14" stroke-linecap="round" stroke-linejoin="round"/>
<path d="M201.891 281.855H192.734C187.434 281.855 183.137 286.151 183.137 291.451V323.172C183.137 328.472 187.434 332.769 192.734 332.769H201.891C207.191 332.769 211.488 328.472 211.488 323.172V291.451C211.488 286.151 207.191 281.855 201.891 281.855Z" fill="white" stroke="#263238" stroke-linecap="round" stroke-linejoin="round"/>
<path d="M198.762 281.855H195.874V332.769H198.762V281.855Z" fill="#92E3A9" stroke="#263238" stroke-linecap="round" stroke-linejoin="round"/>
<path d="M346.519 281.855H337.362C332.062 281.855 327.766 286.151 327.766 291.451V323.172C327.766 328.472 332.062 332.769 337.362 332.769H346.519C351.819 332.769 356.116 328.472 356.116 323.172V291.451C356.116 286.151 351.819 281.855 346.519 281.855Z" fill="white" stroke="#263238" stroke-linecap="round" stroke-linejoin="round"/>
<path d="M343.39 281.855H340.502V332.769H343.39V281.855Z" fill="#92E3A9" stroke="#263238" stroke-linecap="round" stroke-linejoin="round"/>
<path d="M270.395 277.232C275.397 277.233 280.32 275.982 284.714 273.592C289.108 271.202 292.833 267.75 295.55 263.551L301.743 253.965C291.93 248.546 280.887 245.745 269.677 245.831C258.468 245.918 247.469 248.889 237.741 254.46L247.063 266.032C249.867 269.525 253.419 272.344 257.457 274.282C261.495 276.221 265.916 277.229 270.395 277.232Z" fill="#92E3A9" stroke="#263238" stroke-linecap="round" stroke-linejoin="round"/>
<path d="M271.944 338.094C271.944 337.877 271.879 337.665 271.759 337.484C271.638 337.304 271.466 337.163 271.266 337.08C271.065 336.997 270.844 336.975 270.631 337.017C270.418 337.06 270.223 337.164 270.069 337.318C269.916 337.471 269.811 337.667 269.769 337.88C269.726 338.093 269.748 338.314 269.831 338.514C269.914 338.715 270.055 338.886 270.236 339.007C270.416 339.128 270.628 339.192 270.846 339.192C271.137 339.192 271.416 339.076 271.622 338.87C271.828 338.665 271.944 338.385 271.944 338.094Z" fill="#263238"/>
<path d="M271.944 341.783C271.944 341.566 271.879 341.354 271.759 341.173C271.638 340.993 271.466 340.852 271.266 340.769C271.065 340.686 270.844 340.664 270.631 340.707C270.418 340.749 270.223 340.853 270.069 341.007C269.916 341.161 269.811 341.356 269.769 341.569C269.726 341.782 269.748 342.003 269.831 342.204C269.914 342.404 270.055 342.576 270.236 342.696C270.416 342.817 270.628 342.881 270.846 342.881C271.137 342.881 271.416 342.766 271.622 342.56C271.828 342.354 271.944 342.075 271.944 341.783Z" fill="#263238"/>
<path d="M267.76 341.213C267.961 341.083 268.113 340.892 268.195 340.668C268.278 340.443 268.284 340.199 268.215 339.97C268.145 339.742 268.003 339.542 267.81 339.402C267.617 339.262 267.384 339.188 267.145 339.192C266.945 339.322 266.792 339.513 266.71 339.737C266.627 339.961 266.621 340.206 266.69 340.434C266.76 340.663 266.902 340.862 267.095 341.003C267.288 341.143 267.521 341.217 267.76 341.213Z" fill="#263238"/>
<path d="M274.359 341.212C274.529 341.209 274.696 341.167 274.846 341.089C274.997 341.01 275.128 340.898 275.228 340.76C275.328 340.623 275.394 340.464 275.422 340.297C275.451 340.129 275.44 339.957 275.39 339.795C275.341 339.632 275.254 339.484 275.137 339.36C275.021 339.237 274.877 339.142 274.717 339.084C274.558 339.025 274.387 339.005 274.218 339.023C274.049 339.042 273.887 339.1 273.744 339.192C273.574 339.195 273.407 339.238 273.257 339.316C273.106 339.394 272.976 339.507 272.876 339.644C272.776 339.781 272.709 339.94 272.681 340.108C272.653 340.275 272.664 340.447 272.713 340.61C272.763 340.772 272.849 340.921 272.966 341.044C273.083 341.168 273.226 341.263 273.386 341.321C273.545 341.379 273.716 341.4 273.885 341.381C274.054 341.362 274.216 341.305 274.359 341.212Z" fill="#263238"/>
<path d="M314.041 379.291C300.064 376.14 269.803 375.009 269.803 375.009C262.512 375.239 242.221 376.107 228.243 379.302C225.597 379.903 223.295 381.523 221.835 383.811C220.376 386.099 219.877 388.87 220.448 391.523L233.393 452.089C234.029 455.025 235.65 457.656 237.986 459.545C240.323 461.435 243.235 462.469 246.24 462.476H296.144C299.148 462.469 302.061 461.435 304.397 459.545C306.734 457.656 308.354 455.025 308.99 452.089L321.925 391.523C322.493 388.856 321.982 386.073 320.505 383.781C319.028 381.489 316.704 379.875 314.041 379.291Z" fill="white" stroke="#263238" stroke-linecap="round" stroke-linejoin="round"/>
<path d="M307.672 378.127C292.509 375.865 269.835 375.009 269.835 375.009C258.734 375.327 247.657 376.243 236.654 377.754L251.323 462.476H291.191L307.672 378.127Z" fill="#92E3A9" stroke="#263238" stroke-linecap="round" stroke-linejoin="round"/>
<path d="M282.924 393.422H258.636C253.676 393.422 249.654 397.444 249.654 402.404V414.262C249.654 419.223 253.676 423.244 258.636 423.244H282.924C287.884 423.244 291.905 419.223 291.905 414.262V402.404C291.905 397.444 287.884 393.422 282.924 393.422Z" fill="white" stroke="#263238" stroke-linecap="round" stroke-linejoin="round"/>
<path d="M263.687 405.709H256.846V412.55H263.687V405.709Z" fill="white" stroke="#263238" stroke-linecap="round" stroke-linejoin="round"/>
<path d="M274.195 405.709H267.354V412.55H274.195V405.709Z" fill="white" stroke="#263238" stroke-linecap="round" stroke-linejoin="round"/>
<path d="M284.713 405.709H277.873V412.55H284.713V405.709Z" fill="white" stroke="#263238" stroke-linecap="round" stroke-linejoin="round"/>
</svg>
