<svg width="284" height="160" viewBox="0 0 284 160" fill="none" xmlns="http://www.w3.org/2000/svg">
<path d="M24.4095 51.3535C24.4095 51.3535 29.8079 29.7023 62.4895 16.0479C95.1711 2.39354 124.41 15.0399 131.075 31.0399C137.741 47.0399 130.755 55.6799 135.203 69.3439C139.651 83.0079 162.502 100.314 153.28 121.299C144.058 142.285 100.902 148.278 65.9807 143.949C31.0591 139.619 3.77594 91.6543 24.4095 51.3535Z" fill="#92E3A9"/>
<path opacity="0.7" d="M24.4095 51.3535C24.4095 51.3535 29.8079 29.7023 62.4895 16.0479C95.1711 2.39354 124.41 15.0399 131.075 31.0399C137.741 47.0399 130.755 55.6799 135.203 69.3439C139.651 83.0079 162.502 100.314 153.28 121.299C144.058 142.285 100.902 148.278 65.9807 143.949C31.0591 139.619 3.77594 91.6543 24.4095 51.3535Z" fill="white"/>
<path d="M78.8184 72.48H83.708V114.976H78.8184V72.48Z" fill="#263238" stroke="#263238" stroke-linecap="round" stroke-linejoin="round"/>
<path d="M117.59 87.8689V90.8577H98.1018V87.8689H117.59Z" fill="#263238" stroke="#263238" stroke-linecap="round" stroke-linejoin="round"/>
<path d="M115.586 77.552H118.575V89.5104H115.586V77.552Z" fill="#263238" stroke="#263238" stroke-linecap="round" stroke-linejoin="round"/>
<path d="M114.342 89.5616C114.342 89.9212 114.413 90.2772 114.55 90.6094C114.688 90.9416 114.89 91.2433 115.144 91.4974C115.399 91.7515 115.701 91.953 116.033 92.0903C116.365 92.2276 116.722 92.298 117.081 92.2976C117.171 92.2976 117.26 92.2976 117.347 92.2976C117.845 92.2484 118.32 92.0634 118.721 91.7628C119.122 91.4622 119.432 91.0576 119.619 90.5928C119.806 90.1281 119.861 89.6211 119.78 89.1269C119.699 88.6327 119.483 88.1703 119.158 87.7899C118.832 87.4095 118.408 87.1257 117.932 86.9694C117.456 86.813 116.947 86.7902 116.459 86.9032C115.971 87.0163 115.523 87.2609 115.165 87.6106C114.806 87.9602 114.55 88.4015 114.425 88.8864C114.37 89.1074 114.343 89.334 114.342 89.5616Z" fill="white" stroke="#263238" stroke-linecap="round" stroke-linejoin="round"/>
<path d="M114.14 79.3952C114.142 80.1209 114.431 80.8163 114.944 81.3291C115.458 81.8419 116.154 82.1303 116.879 82.1312C116.969 82.1312 117.059 82.1312 117.148 82.1312C117.647 82.0834 118.123 81.8998 118.524 81.6003C118.926 81.3008 119.238 80.897 119.426 80.4326C119.614 79.9683 119.671 79.4613 119.591 78.9668C119.511 78.4723 119.297 78.0092 118.972 77.628C118.647 77.2467 118.224 76.9618 117.748 76.8042C117.273 76.6467 116.763 76.6226 116.275 76.7345C115.786 76.8465 115.338 77.0902 114.979 77.4391C114.619 77.788 114.362 78.2288 114.236 78.7136C114.175 78.9357 114.142 79.1648 114.14 79.3952Z" fill="white" stroke="#263238" stroke-linecap="round" stroke-linejoin="round"/>
<path d="M109.236 71.9711L113.22 74.1162L112.394 75.6489L108.41 73.5038L109.236 71.9711Z" fill="#263238" stroke="#263238" stroke-linecap="round" stroke-linejoin="round"/>
<path d="M107.75 73.6704L109.711 74.7264L110.966 72.4L109.001 71.3408C108.847 71.2563 108.677 71.2034 108.502 71.1854C108.328 71.1674 108.151 71.1845 107.983 71.2358C107.815 71.2871 107.658 71.3715 107.523 71.484C107.388 71.5966 107.277 71.735 107.196 71.8912C107.036 72.2009 107.004 72.5614 107.107 72.8946C107.211 73.2277 107.442 73.5065 107.75 73.6704Z" fill="white" stroke="#263238" stroke-linecap="round" stroke-linejoin="round"/>
<path d="M116.348 63.8049L116.489 71.9201L118.227 71.8913L118.089 63.7761L116.348 63.8049Z" fill="#263238" stroke="#263238" stroke-linecap="round" stroke-linejoin="round"/>
<path d="M115.878 63.3153L115.913 65.5553L118.556 65.4913L118.521 63.2513C118.518 63.0777 118.481 62.9064 118.412 62.7472C118.343 62.588 118.243 62.4439 118.118 62.3233C117.993 62.2026 117.846 62.1078 117.684 62.0441C117.523 61.9804 117.351 61.9491 117.177 61.9521C117.002 61.9545 116.829 61.992 116.668 62.0621C116.507 62.1323 116.362 62.2338 116.241 62.3608C116.12 62.4877 116.026 62.6375 115.963 62.8014C115.901 62.9653 115.872 63.14 115.878 63.3153Z" fill="white" stroke="#263238" stroke-linecap="round" stroke-linejoin="round"/>
<path d="M109.846 66.7489L113.663 73.9105L115.199 73.0945L111.385 65.9329L109.846 66.7489Z" fill="#263238" stroke="#263238" stroke-linecap="round" stroke-linejoin="round"/>
<path d="M109.206 66.5282L110.252 68.4962L112.585 67.2578L111.542 65.2866C111.377 64.978 111.096 64.7473 110.762 64.6448C110.427 64.5423 110.066 64.5763 109.756 64.7394C109.446 64.9039 109.214 65.1846 109.111 65.5199C109.008 65.8553 109.042 66.2179 109.206 66.5282Z" fill="white" stroke="#263238" stroke-linecap="round" stroke-linejoin="round"/>
<path d="M122.518 66.7168L118.736 73.8976L120.275 74.7104L124.057 67.5296L122.518 66.7168Z" fill="#263238" stroke="#263238" stroke-linecap="round" stroke-linejoin="round"/>
<path d="M118.969 71.9233C119.025 71.5912 119.179 71.2831 119.41 71.0382C119.641 70.7932 119.94 70.6224 120.268 70.5473C120.596 70.4722 120.94 70.4961 121.254 70.6162C121.569 70.7362 121.841 70.9469 122.036 71.2216C122.231 71.4963 122.34 71.8226 122.349 72.1593C122.359 72.4961 122.268 72.828 122.089 73.1131C121.909 73.3983 121.65 73.6238 121.342 73.7612C121.034 73.8985 120.693 73.9416 120.361 73.8849C119.917 73.809 119.52 73.5598 119.259 73.192C118.998 72.8242 118.894 72.3679 118.969 71.9233Z" fill="white" stroke="#263238" stroke-linecap="round" stroke-linejoin="round"/>
<path d="M117.305 72.1472C116.365 72.1472 115.603 71.385 115.603 70.4448C115.603 69.5046 116.365 68.7424 117.305 68.7424C118.245 68.7424 119.007 69.5046 119.007 70.4448C119.007 71.385 118.245 72.1472 117.305 72.1472Z" fill="white" stroke="#263238" stroke-linecap="round" stroke-linejoin="round"/>
<path d="M111.75 71.4272C111.699 71.0943 111.747 70.7537 111.89 70.4485C112.032 70.1432 112.262 69.8871 112.55 69.7125C112.838 69.5379 113.171 69.4526 113.508 69.4675C113.844 69.4824 114.169 69.5967 114.44 69.796C114.711 69.9954 114.918 70.2708 115.033 70.5874C115.148 70.904 115.166 71.2475 115.086 71.5746C115.005 71.9017 114.83 72.1975 114.581 72.4248C114.332 72.652 114.022 72.8004 113.689 72.8512C113.468 72.8853 113.243 72.8755 113.026 72.8223C112.809 72.7692 112.604 72.6737 112.424 72.5415C112.244 72.4092 112.092 72.2427 111.976 72.0515C111.86 71.8603 111.783 71.6481 111.75 71.4272Z" fill="white" stroke="#263238" stroke-linecap="round" stroke-linejoin="round"/>
<path d="M122.342 66.0608L121.299 68.032L123.635 69.2704L124.678 67.296C124.759 67.1427 124.81 66.9748 124.826 66.802C124.843 66.6291 124.825 66.4548 124.774 66.2889C124.722 66.1229 124.639 65.9688 124.528 65.8352C124.417 65.7016 124.281 65.5912 124.127 65.5104C123.817 65.3476 123.456 65.314 123.121 65.4172C122.786 65.5203 122.506 65.7517 122.342 66.0608Z" fill="white" stroke="#263238" stroke-linecap="round" stroke-linejoin="round"/>
<path d="M112.076 75.2096C112.076 76.4826 112.582 77.7035 113.482 78.6037C114.382 79.5039 115.603 80.0096 116.876 80.0096C117.036 80.0096 117.196 80.0096 117.346 79.9904C118.22 79.9039 119.052 79.5796 119.754 79.0529C120.456 78.5263 121 77.8173 121.327 77.0031C121.654 76.1889 121.752 75.3006 121.609 74.4348C121.467 73.569 121.09 72.7588 120.519 72.0923C119.949 71.4257 119.206 70.9283 118.373 70.6542C117.539 70.38 116.646 70.3395 115.792 70.5372C114.937 70.7348 114.152 71.163 113.524 71.7752C112.895 72.3874 112.446 73.1602 112.226 74.0096C112.127 74.4019 112.077 74.8049 112.076 75.2096Z" fill="white" stroke="#263238" stroke-linecap="round" stroke-linejoin="round"/>
<path d="M112.076 75.2097C112.076 76.4828 112.582 77.7037 113.482 78.6038C114.382 79.504 115.603 80.0097 116.876 80.0097C117.036 80.0097 117.196 80.0097 117.347 79.9905C117.531 79.2803 117.549 78.5374 117.401 77.8189C117.253 77.1003 116.943 76.4253 116.493 75.8456C116.043 75.2659 115.467 74.7969 114.808 74.4748C114.149 74.1527 113.424 73.9859 112.691 73.9873C112.534 73.9873 112.371 73.9873 112.22 74.0097C112.123 74.4023 112.075 74.8053 112.076 75.2097Z" fill="white" stroke="#263238" stroke-linecap="round" stroke-linejoin="round"/>
<path d="M87.9065 89.6481C87.0915 86.1651 89.2544 82.681 92.7373 81.866C96.2203 81.051 99.7044 83.2138 100.519 86.6967C101.334 90.1797 99.1716 93.6639 95.6887 94.4789C92.2057 95.2939 88.7215 93.131 87.9065 89.6481Z" fill="white" stroke="#263238" stroke-linecap="round" stroke-linejoin="round"/>
<path d="M93.0096 91.0689C91.4095 90.4015 90.6533 88.5633 91.3207 86.9632C91.9881 85.363 93.8263 84.6069 95.4264 85.2743C97.0266 85.9416 97.7827 87.7798 97.1153 89.38C96.4479 90.9801 94.6098 91.7363 93.0096 91.0689Z" fill="#263238" stroke="#263238" stroke-linecap="round" stroke-linejoin="round"/>
<path d="M95.3272 115.575H66.5912L66.1784 113.629C66.0129 112.852 66.1616 112.041 66.5921 111.373C67.0226 110.705 67.6998 110.234 68.476 110.064C72.5496 109.149 81.3688 108.819 81.3688 108.819C83.4936 108.887 89.4072 109.139 93.4808 110.067C94.2516 110.243 94.9221 110.716 95.3473 111.382C95.7725 112.049 95.9181 112.856 95.7528 113.629L95.3272 115.575Z" fill="white" stroke="#263238" stroke-linecap="round" stroke-linejoin="round"/>
<path d="M74.0441 109.293C77.7241 108.954 81.3593 108.819 81.3593 108.819C82.6969 108.861 85.5385 108.979 88.4761 109.293C87.6185 112.221 84.7129 114.378 81.2601 114.378C77.8073 114.378 74.9017 112.211 74.0441 109.293Z" fill="#92E3A9" stroke="#263238" stroke-linecap="round" stroke-linejoin="round"/>
<path d="M51.2464 101.853L49.459 99.4578L65.0779 87.8031L66.8653 90.1985L51.2464 101.853Z" fill="#263238" stroke="#263238" stroke-linecap="round" stroke-linejoin="round"/>
<path d="M59.0189 108.925L56.6235 110.712L49.4719 101.128L51.8673 99.3405L59.0189 108.925Z" fill="#263238" stroke="#263238" stroke-linecap="round" stroke-linejoin="round"/>
<path d="M52.8378 98.5538C52.6224 98.2649 52.3521 98.0214 52.0424 97.8371C51.7328 97.6528 51.3899 97.5313 51.0332 97.4796C50.6766 97.4278 50.3133 97.4469 49.964 97.5357C49.6148 97.6245 49.2865 97.7812 48.9978 97.997L48.7898 98.1666C48.4198 98.5041 48.1493 98.9367 48.0079 99.4173C47.8666 99.8978 47.8597 100.408 47.988 100.892C48.1164 101.376 48.375 101.816 48.7358 102.163C49.0967 102.511 49.5459 102.753 50.0346 102.863C50.5233 102.973 51.0327 102.947 51.5076 102.787C51.9825 102.628 52.4045 102.341 52.7279 101.959C53.0512 101.576 53.2635 101.112 53.3415 100.617C53.4196 100.122 53.3605 99.6157 53.1706 99.1522C53.0847 98.9398 52.9729 98.7388 52.8378 98.5538Z" fill="white" stroke="#263238" stroke-linecap="round" stroke-linejoin="round"/>
<path d="M59.0873 106.211C58.6816 105.609 58.0532 105.192 57.3403 105.053C56.6273 104.914 55.8883 105.063 55.2857 105.469C55.2121 105.517 55.1417 105.571 55.0713 105.626C54.685 105.944 54.3935 106.363 54.2285 106.836C54.0636 107.309 54.0315 107.818 54.1358 108.308C54.2401 108.798 54.4768 109.25 54.8201 109.615C55.1634 109.98 55.6001 110.244 56.0829 110.378C56.5656 110.512 57.0758 110.51 57.558 110.375C58.0402 110.239 58.4758 109.973 58.8176 109.607C59.1594 109.241 59.3942 108.788 59.4965 108.297C59.5988 107.807 59.5646 107.298 59.3977 106.826C59.3202 106.609 59.2159 106.402 59.0873 106.211Z" fill="white" stroke="#263238" stroke-linecap="round" stroke-linejoin="round"/>
<path d="M67.3127 109.639L62.8096 110.082L62.6394 108.349L67.1425 107.907L67.3127 109.639Z" fill="#263238" stroke="#263238" stroke-linecap="round" stroke-linejoin="round"/>
<path d="M67.5865 107.411L65.3657 107.629L65.6249 110.259L67.8457 110.042C68.1945 110.008 68.5155 109.837 68.7381 109.566C68.9607 109.295 69.0668 108.947 69.0329 108.598C68.9981 108.249 68.8263 107.928 68.5551 107.706C68.284 107.483 67.9356 107.377 67.5865 107.411Z" fill="white" stroke="#263238" stroke-linecap="round" stroke-linejoin="round"/>
<path d="M63.1384 108.531C62.7867 108.007 62.3351 107.557 61.8094 107.208C61.2837 106.859 60.6943 106.616 60.0748 106.495C59.4554 106.374 58.8181 106.376 58.1995 106.501C57.5808 106.627 56.993 106.873 56.4696 107.226C56.3384 107.315 56.2136 107.408 56.092 107.507C55.4155 108.066 54.9052 108.8 54.6166 109.629C54.328 110.458 54.2722 111.35 54.4553 112.208C54.6383 113.067 55.0532 113.858 55.6548 114.497C56.2564 115.137 57.0217 115.598 57.8674 115.833C58.7132 116.067 59.6071 116.065 60.4518 115.827C61.2965 115.589 62.0598 115.124 62.6587 114.482C63.2576 113.841 63.669 113.047 63.8484 112.188C64.0278 111.329 63.9681 110.437 63.676 109.61C63.5435 109.229 63.3629 108.866 63.1384 108.531Z" fill="white" stroke="#263238" stroke-linecap="round" stroke-linejoin="round"/>
<path d="M68.3096 113.517L62.3576 109.066L61.4008 110.342L67.3528 114.79L68.3096 113.517Z" fill="#263238" stroke="#263238" stroke-linecap="round" stroke-linejoin="round"/>
<path d="M68.9275 113.45L67.2923 112.211L65.8395 114.131L67.4747 115.357C67.7315 115.549 68.054 115.631 68.3715 115.586C68.6889 115.54 68.9752 115.37 69.1675 115.114C69.3519 114.86 69.4299 114.544 69.3851 114.233C69.3403 113.922 69.1761 113.641 68.9275 113.45Z" fill="white" stroke="#263238" stroke-linecap="round" stroke-linejoin="round"/>
<path d="M60.6234 110.438C60.5478 110.11 60.5715 109.766 60.6915 109.451C60.8115 109.136 61.0223 108.863 61.2974 108.668C61.5724 108.473 61.8992 108.364 62.2363 108.355C62.5734 108.346 62.9056 108.437 63.1908 108.617C63.4761 108.797 63.7014 109.057 63.8383 109.366C63.9752 109.674 64.0175 110.016 63.9598 110.348C63.9021 110.68 63.747 110.988 63.5142 111.232C63.2814 111.476 62.9814 111.645 62.6522 111.718C62.2136 111.816 61.7541 111.736 61.3741 111.496C60.994 111.257 60.7242 110.876 60.6234 110.438Z" fill="white" stroke="#263238" stroke-linecap="round" stroke-linejoin="round"/>
<path d="M57.4683 117.99L56.5851 111.885L55.2763 112.07L56.1563 118.176L57.4683 117.99Z" fill="#263238" stroke="#263238" stroke-linecap="round" stroke-linejoin="round"/>
<path d="M57.8684 118.314L57.6284 116.634L55.6412 116.919L55.8812 118.595C55.8996 118.726 55.9437 118.852 56.0108 118.966C56.0778 119.079 56.1667 119.179 56.2722 119.258C56.3777 119.337 56.4978 119.395 56.6256 119.428C56.7534 119.461 56.8865 119.468 57.0172 119.45C57.2806 119.412 57.5181 119.271 57.6777 119.058C57.8373 118.845 57.9059 118.577 57.8684 118.314Z" fill="white" stroke="#263238" stroke-linecap="round" stroke-linejoin="round"/>
<path d="M54.7644 111.67C54.9151 111.436 55.1319 111.251 55.3876 111.139C55.6432 111.028 55.9262 110.994 56.2008 111.044C56.4754 111.093 56.7292 111.222 56.9303 111.416C57.1313 111.609 57.2706 111.857 57.3304 112.13C57.3903 112.402 57.368 112.686 57.2665 112.946C57.165 113.206 56.9888 113.43 56.7601 113.59C56.5314 113.749 56.2605 113.838 55.9816 113.844C55.7028 113.849 55.4284 113.772 55.1932 113.622C54.8778 113.42 54.6554 113.101 54.575 112.735C54.4946 112.369 54.5628 111.986 54.7644 111.67Z" fill="white" stroke="#263238" stroke-linecap="round" stroke-linejoin="round"/>
<path d="M63.3594 117.178L59.3914 110.893L58.0442 111.738L62.009 118.026L63.3594 117.178Z" fill="#263238" stroke="#263238" stroke-linecap="round" stroke-linejoin="round"/>
<path d="M63.9579 117.331L62.8731 115.603L60.8219 116.883L61.9099 118.614C62.0811 118.885 62.3526 119.077 62.665 119.149C62.9774 119.22 63.3053 119.165 63.5771 118.995C63.8477 118.825 64.0397 118.554 64.1111 118.242C64.1825 117.93 64.1274 117.603 63.9579 117.331Z" fill="white" stroke="#263238" stroke-linecap="round" stroke-linejoin="round"/>
<path d="M57.2763 111.552C57.3237 111.219 57.4691 110.907 57.6939 110.657C57.9187 110.406 58.2129 110.228 58.5391 110.145C58.8653 110.062 59.2088 110.078 59.526 110.19C59.8433 110.303 60.12 110.507 60.3211 110.777C60.5222 111.047 60.6386 111.37 60.6556 111.706C60.6725 112.042 60.5892 112.376 60.4163 112.665C60.2433 112.954 59.9885 113.184 59.6841 113.328C59.3798 113.472 59.0396 113.522 58.7067 113.472C58.2628 113.406 57.8629 113.168 57.5948 112.808C57.3267 112.448 57.2122 111.996 57.2763 111.552Z" fill="white" stroke="#263238" stroke-linecap="round" stroke-linejoin="round"/>
<path d="M64.6271 93.7311C61.6193 91.7949 60.7506 87.7871 62.6868 84.7794C64.6229 81.7716 68.6307 80.9029 71.6385 82.839C74.6462 84.7752 75.5149 88.783 73.5788 91.7907C71.6427 94.7985 67.6348 95.6672 64.6271 93.7311Z" fill="white" stroke="#263238" stroke-linecap="round" stroke-linejoin="round"/>
<path d="M65.277 89.596C64.5542 88.0201 65.2457 86.1567 66.8216 85.4338C68.3974 84.711 70.2609 85.4026 70.9837 86.9784C71.7065 88.5543 71.015 90.4177 69.4391 91.1406C67.8633 91.8634 65.9998 91.1719 65.277 89.596Z" fill="#263238" stroke="#263238" stroke-linecap="round" stroke-linejoin="round"/>
<path d="M81.2633 75.4497C75.5178 75.4497 70.8601 70.792 70.8601 65.0465C70.8601 59.301 75.5178 54.6433 81.2633 54.6433C87.0088 54.6433 91.6665 59.301 91.6665 65.0465C91.6665 70.792 87.0088 75.4497 81.2633 75.4497Z" fill="#92E3A9" stroke="#263238" stroke-linecap="round" stroke-linejoin="round"/>
<path d="M66.3896 71.9745C64.1554 69.1734 62.7572 65.7986 62.3558 62.2382C61.9544 58.6778 62.5661 55.0765 64.1206 51.8483C65.675 48.6201 68.109 45.8962 71.1428 43.9899C74.1765 42.0836 77.6867 41.0723 81.2696 41.0723C84.8526 41.0723 88.3627 42.0836 91.3965 43.9899C94.4302 45.8962 96.8642 48.6201 98.4187 51.8483C99.9731 55.0765 100.585 58.6778 100.183 62.2382C99.782 65.7986 98.3838 69.1734 96.1496 71.9745H66.3896Z" fill="white" stroke="#263238" stroke-linecap="round" stroke-linejoin="round"/>
<path d="M69.6216 52.9216H93.3848C94.8305 52.9216 96.0024 54.0936 96.0024 55.5392V63.9616C96.0024 65.4073 94.8305 66.5792 93.3848 66.5792H69.6216C68.176 66.5792 67.004 65.4073 67.004 63.9616V55.5392C67.004 54.0936 68.176 52.9216 69.6216 52.9216Z" fill="#92E3A9" stroke="#263238" stroke-linecap="round" stroke-linejoin="round"/>
<path d="M92.8667 59.1969C92.5524 58.3169 91.9796 57.5525 91.2234 57.0037C90.4672 56.4549 89.5628 56.1474 88.6288 56.1214C87.6948 56.0955 86.7747 56.3523 85.9892 56.8583C85.2037 57.3642 84.5893 58.0957 84.2267 58.9569" stroke="#263238" stroke-width="5" stroke-linecap="round" stroke-linejoin="round"/>
<path d="M78.5337 59.1969C78.2194 58.3169 77.6466 57.5525 76.8904 57.0037C76.1342 56.4549 75.2298 56.1474 74.2958 56.1214C73.3618 56.0955 72.4417 56.3523 71.6562 56.8583C70.8707 57.3642 70.2563 58.0957 69.8937 58.9569" stroke="#263238" stroke-width="5" stroke-linecap="round" stroke-linejoin="round"/>
<path d="M83.772 62.3616C83.6916 62.9961 83.3826 63.5796 82.9027 64.0025C82.4229 64.4255 81.8052 64.6588 81.1656 64.6588C80.5259 64.6588 79.9083 64.4255 79.4284 64.0025C78.9486 63.5796 78.6395 62.9961 78.5592 62.3616H83.772Z" fill="white" stroke="#263238" stroke-linecap="round" stroke-linejoin="round"/>
<path d="M56.6361 63.4432C57.1639 63.4432 57.6702 63.2335 58.0435 62.8602C58.4168 62.4869 58.6265 61.9806 58.6265 61.4528V56.9248C58.6269 56.6631 58.5757 56.4039 58.4759 56.1621C58.376 55.9202 58.2295 55.7004 58.0446 55.5153C57.8598 55.3301 57.6402 55.1832 57.3985 55.083C57.1568 54.9827 56.8977 54.9312 56.6361 54.9312C56.3744 54.9307 56.1152 54.9819 55.8734 55.0817C55.6315 55.1816 55.4117 55.3281 55.2266 55.513C55.0414 55.6979 54.8945 55.9174 54.7943 56.1591C54.6941 56.4008 54.6425 56.6599 54.6425 56.9216V61.4496C54.642 61.7115 54.6933 61.9709 54.7934 62.213C54.8934 62.455 55.0402 62.675 55.2254 62.8602C55.4106 63.0454 55.6306 63.1922 55.8726 63.2923C56.1147 63.3923 56.3741 63.4436 56.6361 63.4432Z" fill="#263238" stroke="#263238" stroke-linecap="round" stroke-linejoin="round"/>
<path d="M106.435 63.4432C106.696 63.4436 106.955 63.3924 107.197 63.2926C107.439 63.1927 107.659 63.0462 107.844 62.8613C108.029 62.6764 108.176 62.4569 108.276 62.2152C108.377 61.9735 108.428 61.7144 108.428 61.4528V56.9248C108.429 56.6628 108.377 56.4034 108.277 56.1613C108.177 55.9193 108.03 55.6993 107.845 55.5141C107.66 55.3289 107.44 55.1821 107.198 55.0821C106.956 54.982 106.697 54.9307 106.435 54.9312C106.173 54.9312 105.914 54.9826 105.673 55.0827C105.431 55.1827 105.212 55.3293 105.027 55.5141C104.842 55.699 104.696 55.9184 104.596 56.1599C104.496 56.4014 104.444 56.6602 104.444 56.9216V61.4496C104.444 61.7112 104.495 61.9704 104.595 62.2122C104.695 62.4541 104.841 62.6739 105.026 62.859C105.211 63.0442 105.43 63.1911 105.672 63.2913C105.914 63.3916 106.173 63.4432 106.435 63.4432Z" fill="#263238" stroke="#263238" stroke-linecap="round" stroke-linejoin="round"/>
<path d="M100.054 43.0112C101.814 45.6126 102.753 48.6829 102.748 51.824V55.1136" stroke="#263238" stroke-width="14" stroke-linecap="round" stroke-linejoin="round"/>
<path d="M62.2681 43.0241C63.7089 40.8775 65.6559 39.1185 67.9373 37.9025C70.2187 36.6864 72.7644 36.0506 75.3497 36.0513H86.9817C89.5634 36.0495 92.1059 36.6825 94.3854 37.8945C96.665 39.1065 98.6115 40.8604 100.054 43.0017" stroke="#263238" stroke-width="7" stroke-linecap="round" stroke-linejoin="round"/>
<path d="M59.5865 55.1138V51.8242C59.5816 48.6889 60.5155 45.6239 62.2681 43.0242" stroke="#263238" stroke-width="14" stroke-linecap="round" stroke-linejoin="round"/>
<path d="M101.161 51.5713H103.83C105.374 51.5713 106.626 52.8235 106.626 54.3681V63.6129C106.626 65.1575 105.374 66.4097 103.83 66.4097H101.161C99.6162 66.4097 98.3641 65.1575 98.3641 63.6129V54.3681C98.3641 52.8235 99.6162 51.5713 101.161 51.5713Z" fill="white" stroke="#263238" stroke-linecap="round" stroke-linejoin="round"/>
<path d="M102.073 51.5713H102.915V66.4097H102.073V51.5713Z" fill="#92E3A9" stroke="#263238" stroke-linecap="round" stroke-linejoin="round"/>
<path d="M59.0105 51.5713H61.6793C63.2239 51.5713 64.4761 52.8235 64.4761 54.3681V63.6129C64.4761 65.1575 63.2239 66.4097 61.6793 66.4097H59.0105C57.4658 66.4097 56.2137 65.1575 56.2137 63.6129V54.3681C56.2137 52.8235 57.4658 51.5713 59.0105 51.5713Z" fill="white" stroke="#263238" stroke-linecap="round" stroke-linejoin="round"/>
<path d="M59.9226 51.5713H60.7642V66.4097H59.9226V51.5713Z" fill="#92E3A9" stroke="#263238" stroke-linecap="round" stroke-linejoin="round"/>
<path d="M81.1961 50.224C79.7384 50.2243 78.3038 49.8596 77.0232 49.1631C75.7426 48.4667 74.6568 47.4606 73.8649 46.2368L72.0601 43.4432C74.92 41.8638 78.1384 41.0474 81.4053 41.0726C84.6723 41.0978 87.8777 41.9638 90.7129 43.5872L87.9961 46.96C87.1788 47.9778 86.1436 48.7994 84.9668 49.3643C83.79 49.9292 82.5015 50.2229 81.1961 50.224Z" fill="#92E3A9" stroke="#263238" stroke-linecap="round" stroke-linejoin="round"/>
<path d="M80.7448 67.9616C80.7448 67.8983 80.7635 67.8364 80.7987 67.7838C80.8339 67.7312 80.8838 67.6902 80.9423 67.666C81.0008 67.6417 81.0651 67.6354 81.1272 67.6478C81.1893 67.6601 81.2463 67.6906 81.291 67.7353C81.3358 67.7801 81.3663 67.8371 81.3786 67.8992C81.391 67.9612 81.3846 68.0256 81.3604 68.0841C81.3362 68.1425 81.2952 68.1925 81.2425 68.2277C81.1899 68.2628 81.1281 68.2816 81.0648 68.2816C80.9799 68.2816 80.8985 68.2479 80.8385 68.1879C80.7785 68.1279 80.7448 68.0465 80.7448 67.9616Z" fill="#263238"/>
<path d="M80.7448 69.0368C80.7448 68.9735 80.7635 68.9116 80.7987 68.859C80.8339 68.8064 80.8838 68.7654 80.9423 68.7412C81.0008 68.7169 81.0651 68.7106 81.1272 68.7229C81.1893 68.7353 81.2463 68.7658 81.291 68.8105C81.3358 68.8553 81.3663 68.9123 81.3786 68.9744C81.391 69.0364 81.3846 69.1008 81.3604 69.1593C81.3362 69.2177 81.2952 69.2677 81.2425 69.3029C81.1899 69.338 81.1281 69.3568 81.0648 69.3568C80.9799 69.3568 80.8985 69.3231 80.8385 69.2631C80.7785 69.2031 80.7448 69.1217 80.7448 69.0368Z" fill="#263238"/>
<path d="M81.9644 68.8706C81.9059 68.8329 81.8614 68.7771 81.8375 68.7118C81.8135 68.6465 81.8115 68.5751 81.8318 68.5086C81.8521 68.442 81.8935 68.3839 81.9497 68.343C82.006 68.302 82.074 68.2806 82.1436 68.2818C82.202 68.3195 82.2466 68.3753 82.2705 68.4406C82.2944 68.5059 82.2964 68.5773 82.2762 68.6438C82.2559 68.7104 82.2145 68.7685 82.1583 68.8094C82.102 68.8503 82.0339 68.8718 81.9644 68.8706Z" fill="#263238"/>
<path d="M80.0411 68.8704C79.9916 68.8695 79.943 68.8572 79.8991 68.8343C79.8551 68.8115 79.8171 68.7787 79.788 68.7387C79.7589 68.6987 79.7394 68.6524 79.7312 68.6036C79.723 68.5547 79.7262 68.5047 79.7406 68.4573C79.755 68.4099 79.7803 68.3665 79.8143 68.3306C79.8483 68.2946 79.8902 68.267 79.9367 68.25C79.9832 68.233 80.033 68.227 80.0822 68.2324C80.1314 68.2379 80.1787 68.2548 80.2203 68.2816C80.2698 68.2825 80.3185 68.2948 80.3624 68.3177C80.4063 68.3406 80.4443 68.3733 80.4734 68.4133C80.5026 68.4534 80.522 68.4996 80.5302 68.5485C80.5384 68.5973 80.5352 68.6474 80.5208 68.6947C80.5064 68.7421 80.4812 68.7855 80.4471 68.8215C80.4131 68.8574 80.3712 68.885 80.3247 68.902C80.2782 68.9191 80.2284 68.9251 80.1792 68.9196C80.13 68.9141 80.0827 68.8973 80.0411 68.8704Z" fill="#263238"/>
<path d="M68.4764 79.968C72.55 79.0496 81.3692 78.72 81.3692 78.72C83.494 78.7872 89.4076 79.04 93.4812 79.9712C94.2524 80.1464 94.9234 80.6186 95.3488 81.2853C95.7741 81.952 95.9194 82.7596 95.7532 83.5328L91.9804 101.184C91.795 102.04 91.3227 102.807 90.6418 103.357C89.9608 103.908 89.1121 104.209 88.2364 104.211H73.6924C72.8167 104.209 71.968 103.908 71.287 103.357C70.6061 102.807 70.1338 102.04 69.9484 101.184L66.1788 83.5328C66.0133 82.7556 66.162 81.9445 66.5925 81.2766C67.0229 80.6086 67.7002 80.1382 68.4764 79.968Z" fill="white" stroke="#263238" stroke-linecap="round" stroke-linejoin="round"/>
<path d="M70.3322 79.6288C74.7514 78.9696 81.3594 78.72 81.3594 78.72C84.5949 78.8126 87.823 79.0797 91.0298 79.52L86.7546 104.211H75.1354L70.3322 79.6288Z" fill="#92E3A9" stroke="#263238" stroke-linecap="round" stroke-linejoin="round"/>
<path d="M77.5452 84.0864H84.6236C86.0693 84.0864 87.2412 85.2584 87.2412 86.704V90.16C87.2412 91.6057 86.0693 92.7776 84.6236 92.7776H77.5452C76.0996 92.7776 74.9276 91.6057 74.9276 90.16V86.704C74.9276 85.2584 76.0996 84.0864 77.5452 84.0864Z" fill="white" stroke="#263238" stroke-linecap="round" stroke-linejoin="round"/>
<path d="M83.1514 87.6672H85.145V89.6608H83.1514V87.6672Z" fill="white" stroke="#263238" stroke-linecap="round" stroke-linejoin="round"/>
<path d="M80.0889 87.6672H82.0825V89.6608H80.0889V87.6672Z" fill="white" stroke="#263238" stroke-linecap="round" stroke-linejoin="round"/>
<path d="M77.0235 87.6672H79.0171V89.6608H77.0235V87.6672Z" fill="white" stroke="#263238" stroke-linecap="round" stroke-linejoin="round"/>
<path d="M156.839 78.5728C154.375 78.5728 152.167 78.1728 150.215 77.3728C148.263 76.5728 146.695 75.3888 145.511 73.8208C144.359 72.2528 143.751 70.3648 143.687 68.1568H152.423C152.551 69.4048 152.983 70.3648 153.719 71.0368C154.455 71.6768 155.415 71.9968 156.599 71.9968C157.815 71.9968 158.775 71.7248 159.479 71.1808C160.183 70.6048 160.535 69.8208 160.535 68.8288C160.535 67.9968 160.247 67.3088 159.671 66.7648C159.127 66.2208 158.439 65.7728 157.607 65.4208C156.807 65.0688 155.655 64.6688 154.151 64.2208C151.975 63.5488 150.199 62.8768 148.823 62.2048C147.447 61.5328 146.263 60.5408 145.271 59.2288C144.279 57.9168 143.783 56.2048 143.783 54.0928C143.783 50.9568 144.919 48.5088 147.191 46.7488C149.463 44.9568 152.423 44.0608 156.071 44.0608C159.783 44.0608 162.775 44.9568 165.047 46.7488C167.319 48.5088 168.535 50.9728 168.695 54.1408H159.815C159.751 53.0528 159.351 52.2048 158.615 51.5968C157.879 50.9568 156.935 50.6368 155.783 50.6368C154.791 50.6368 153.991 50.9088 153.383 51.4528C152.775 51.9648 152.471 52.7168 152.471 53.7088C152.471 54.7968 152.983 55.6448 154.007 56.2528C155.031 56.8608 156.631 57.5168 158.807 58.2208C160.983 58.9568 162.743 59.6608 164.087 60.3328C165.463 61.0048 166.647 61.9808 167.639 63.2608C168.631 64.5408 169.127 66.1888 169.127 68.2048C169.127 70.1248 168.631 71.8688 167.639 73.4368C166.679 75.0048 165.271 76.2528 163.415 77.1808C161.559 78.1088 159.367 78.5728 156.839 78.5728ZM199.426 64.4128C199.426 65.1808 199.378 65.9808 199.282 66.8128H180.706C180.834 68.4768 181.362 69.7568 182.29 70.6528C183.25 71.5168 184.418 71.9488 185.794 71.9488C187.842 71.9488 189.266 71.0848 190.066 69.3568H198.802C198.354 71.1168 197.538 72.7008 196.354 74.1088C195.202 75.5168 193.746 76.6208 191.986 77.4208C190.226 78.2208 188.258 78.6208 186.082 78.6208C183.458 78.6208 181.122 78.0608 179.074 76.9408C177.026 75.8208 175.426 74.2208 174.274 72.1408C173.122 70.0608 172.546 67.6288 172.546 64.8448C172.546 62.0608 173.106 59.6288 174.226 57.5488C175.378 55.4688 176.978 53.8688 179.026 52.7488C181.074 51.6288 183.426 51.0688 186.082 51.0688C188.674 51.0688 190.978 51.6128 192.994 52.7008C195.01 53.7888 196.578 55.3408 197.698 57.3568C198.85 59.3728 199.426 61.7248 199.426 64.4128ZM191.026 62.2528C191.026 60.8448 190.546 59.7248 189.586 58.8928C188.626 58.0608 187.426 57.6448 185.986 57.6448C184.61 57.6448 183.442 58.0448 182.482 58.8448C181.554 59.6448 180.978 60.7808 180.754 62.2528H191.026ZM211.964 55.9168C212.924 54.4448 214.124 53.2928 215.564 52.4608C217.004 51.5968 218.604 51.1648 220.364 51.1648V59.8528H218.108C216.06 59.8528 214.524 60.3008 213.5 61.1968C212.476 62.0608 211.964 63.5968 211.964 65.8048V78.2368H203.756V51.4528H211.964V55.9168ZM249.536 64.4128C249.536 65.1808 249.488 65.9808 249.392 66.8128H230.816C230.944 68.4768 231.472 69.7568 232.4 70.6528C233.36 71.5168 234.528 71.9488 235.904 71.9488C237.952 71.9488 239.376 71.0848 240.176 69.3568H248.912C248.464 71.1168 247.648 72.7008 246.464 74.1088C245.312 75.5168 243.856 76.6208 242.096 77.4208C240.336 78.2208 238.368 78.6208 236.192 78.6208C233.568 78.6208 231.232 78.0608 229.184 76.9408C227.136 75.8208 225.536 74.2208 224.384 72.1408C223.232 70.0608 222.656 67.6288 222.656 64.8448C222.656 62.0608 223.216 59.6288 224.336 57.5488C225.488 55.4688 227.088 53.8688 229.136 52.7488C231.184 51.6288 233.536 51.0688 236.192 51.0688C238.784 51.0688 241.088 51.6128 243.104 52.7008C245.12 53.7888 246.688 55.3408 247.808 57.3568C248.96 59.3728 249.536 61.7248 249.536 64.4128ZM241.136 62.2528C241.136 60.8448 240.656 59.7248 239.696 58.8928C238.736 58.0608 237.536 57.6448 236.096 57.6448C234.72 57.6448 233.552 58.0448 232.592 58.8448C231.664 59.6448 231.088 60.7808 230.864 62.2528H241.136ZM270.186 51.1648C273.322 51.1648 275.818 52.1888 277.674 54.2368C279.562 56.2528 280.506 59.0368 280.506 62.5888V78.2368H272.346V63.6928C272.346 61.9008 271.882 60.5088 270.954 59.5168C270.026 58.5248 268.778 58.0288 267.21 58.0288C265.642 58.0288 264.394 58.5248 263.466 59.5168C262.538 60.5088 262.074 61.9008 262.074 63.6928V78.2368H253.866V51.4528H262.074V55.0048C262.906 53.8208 264.026 52.8928 265.434 52.2208C266.842 51.5168 268.426 51.1648 270.186 51.1648Z" fill="#A3B18A"/>
</svg>
