<svg width="245" height="245" viewBox="0 0 245 245" fill="none" xmlns="http://www.w3.org/2000/svg">
<rect width="245" height="245" rx="122.5" fill="#4A3B2E"/>
<path d="M122.5 136.5C130.232 136.5 136.5 130.232 136.5 122.5C136.5 114.768 130.232 108.5 122.5 108.5C114.768 108.5 108.5 114.768 108.5 122.5C108.5 130.232 114.768 136.5 122.5 136.5Z" stroke="#F5E6CC" stroke-width="6.5" stroke-miterlimit="10" stroke-linecap="round" stroke-linejoin="round"/>
<path d="M75.8335 126.607V118.393C75.8335 113.54 79.8002 109.527 84.7002 109.527C93.1468 109.527 96.6002 103.553 92.3535 96.2268C89.9268 92.0268 91.3735 86.5668 95.6202 84.1401L103.693 79.5201C107.38 77.3268 112.14 78.6334 114.333 82.3201L114.847 83.2068C119.047 90.5334 125.953 90.5334 130.2 83.2068L130.714 82.3201C132.907 78.6334 137.667 77.3268 141.354 79.5201L149.427 84.1401C153.674 86.5668 155.12 92.0268 152.693 96.2268C148.447 103.553 151.9 109.527 160.347 109.527C165.2 109.527 169.214 113.493 169.214 118.393V126.607C169.214 131.46 165.247 135.473 160.347 135.473C151.9 135.473 148.447 141.447 152.693 148.773C155.12 153.02 153.674 158.433 149.427 160.86L141.354 165.48C137.667 167.673 132.907 166.367 130.714 162.68L130.2 161.793C126 154.467 119.093 154.467 114.847 161.793L114.333 162.68C112.14 166.367 107.38 167.673 103.693 165.48L95.6202 160.86C91.3735 158.433 89.9268 152.973 92.3535 148.773C96.6002 141.447 93.1468 135.473 84.7002 135.473C79.8002 135.473 75.8335 131.46 75.8335 126.607Z" stroke="#F5E6CC" stroke-width="6.5" stroke-miterlimit="10" stroke-linecap="round" stroke-linejoin="round"/>
</svg>
